<?xml version="1.0" encoding="utf-8"?>
<!-- Generator: Adobe Illustrator 15.0.0, SVG Export Plug-In . SVG Version: 6.00 Build 0)  -->
<!DOCTYPE svg PUBLIC "-//W3C//DTD SVG 1.1//EN" "http://www.w3.org/Graphics/SVG/1.1/DTD/svg11.dtd">
<svg version="1.1" id="Layer_1" xmlns="http://www.w3.org/2000/svg" xmlns:xlink="http://www.w3.org/1999/xlink" x="0px" y="0px"
	 enable-background="new 0 0 16157.48 4535.43"
	 xml:space="preserve">
<g>
	<path fill-rule="evenodd" clip-rule="evenodd" d="M8122.451,2348.258c2.788,0.916,3.35,4.058,4.32,6.789
		c0.275,10.326-5.195,18.111-12.549,20.571c-5.893,1.972-13.739,0.388-20.16-0.617c-6.525-1.021-12.701-2.429-17.28-4.525
		c7.16,8.406,18.043,14.871,28.389,20.776c8.31,4.033,17.023,7.662,25.92,11.109c2.888,1.226,6.894,1.334,8.64,3.703
		c-1.216,1.617-3.604,0.248-4.937-0.206c-11.038-3.759-22.834-8.894-32.709-13.989c-8.411-4.898-16.73-9.801-23.657-16.457
		c-2.166-2.08-4.731-4.292-5.966-7.199c-3.941-2.538-6.47-6.589-9.463-10.08c-2.962-3.456-5.975-6.939-9.051-10.286
		c2.863,10.247-2.178,23.212-5.143,31.681c-2.932,8.371-6.066,16.468-10.286,23.039c-4.303,6.701-10.295,12.076-15.223,18.104
		c-5.169,6.32-9.215,13.07-14.606,18.514c-3.129,4.277-5.79,9.021-8.023,14.194c-1.631,3.669-3.324,7.923-4.525,12.138
		c-0.361,1.264-0.249,3.077-1.646,3.703c-1.843-0.977-1.478-3.446-2.263-4.938c-2.343-4.45-7.256-4.984-12.137-6.994
		c-6.45-5.207-9.699-13.615-15.429-19.543c-5.543-5.771-11.552-11.076-15.634-18.309c-9.072-13.557-17.535-27.722-22.011-45.875
		c-7.402,1.136-17.023,1.051-24.686,0.206c-6.599,2.966-11.354,8.595-17.485,12.343c-6.208,3.795-13.072,6.778-19.749,10.08
		c-13.186,6.521-26.633,13.333-40.938,18.515c-1.883,0.788-4.156,1.322-6.377,2.058c-1.944,0.643-4.333,2.24-6.171,1.028
		c0.242-2.153,2.978-2.047,4.32-2.469c17.918-5.638,34.605-14.172,50.606-22.218c5.936-2.984,12.135-5.477,17.486-8.846
		c2.56-1.611,4.705-3.783,7.2-5.554c2.518-1.787,4.903-3.64,7.406-5.349c-4.504-0.944-9.712-2.214-13.372-4.32
		c-9.972-5.74-18.399-15.55-21.188-29.417c-2.741-13.628-6.897-27.911-6.583-43.817c0.311-15.711,2.535-30.905,4.526-46.08
		c0.959-7.312,1.852-15.195,1.852-23.452c0-25.133,6.097-43.03,13.372-62.331c4.749-12.601,8.41-25.131,13.988-36.412
		c5.373-10.866,12.261-21.107,20.777-29.623c8.071-8.072,20.444-15.922,36.206-12.549c4.625-5.658,8.837-10.146,15.017-13.372
		c6.371-3.325,13.397-4.479,23.246-4.937c9.857-0.458,21.812-0.251,30.446,1.646c25.366,5.574,44.573,19.57,58.834,35.589
		c9.873,12.022,17.243,24.445,22.423,40.731c3.798,11.941,6.504,27.455,2.674,40.937c-1.43,5.034-4.205,8.824-3.703,15.84
		c0.576,8.051,4.949,16.282,8.435,22.834c7.468,14.038,10.286,30.857,11.108,51.429c0.407,10.189,1.007,20.112,0.412,30.857
		c-0.473,8.529-3.69,16.836-6.584,24.068c-2.928,7.32-7.235,15.511-6.994,23.657c0.157,5.284,3.838,9.532,10.08,7.611
		c3.023-0.931,4.266-3.303,5.555-5.966C8120.37,2353.782,8121.004,2350.473,8122.451,2348.258z M8115.252,2363.893
		c-4.982,2.13-10.898,0.073-12.755-4.114c-2.456-5.542-0.126-13.769,1.852-19.337c3.29-9.266,7.159-16.391,9.463-26.332
		c1.157-4.99,1.234-10.256,1.234-16.868c-0.001-24.392-1.008-46.452-7.817-64.183c-4.271-11.705-12.512-19.443-12.137-35.795
		c2.373-8,5.554-15.515,5.554-25.303c0-9.318-1.89-18.697-4.319-26.537c-4.795-15.468-13.322-28.787-22.012-39.703
		c-14.046-15.555-32.846-29.569-57.6-34.971c-16.244-3.545-40.911-2.978-52.869,3.291c-6.39,3.005-10.367,8.422-14.605,13.577
		c-15.354-3.797-27.89,3.821-35.794,11.726c-8.38,8.38-15.118,18.6-20.366,29.212c-5.459,11.039-9.273,23.522-13.783,35.794
		c-6.941,18.889-13.372,36.706-13.372,61.097c0,8.127-0.686,15.977-1.646,23.246c-1.97,14.917-3.792,29.734-4.525,45.257
		c-0.74,15.648,3.217,29.918,5.966,43.2c1.497,7.235,3.268,12.94,6.994,17.897c3.462,4.605,8.273,9.059,12.96,11.932
		c7.774,4.765,21.37,5.856,33.531,5.143c12.571-0.738,23.425-2.971,30.446-8.846c4.815-4.499,7.301-16.903,3.086-23.863
		c1.364,7.446-1.018,13.107-4.526,17.691c-2.247,2.938-5.733,7.196-9.051,8.023c-9.578,2.387-17.529-4.273-18.309-10.903
		c-0.996-8.465,5.996-11.987,11.108-16.457c-1.243-16.38-3.612-31.633-6.171-46.697c-4.246-6.451-6.085-15.309-8.434-23.657
		c-1.812,0.582-3.587,0.473-5.143,0c-5.104-1.553-9.348-6.013-12.343-10.286c-3.365-4.801-4.16-11.198-4.937-17.691
		c-0.517-1.061-0.911-2.243-1.234-3.497c-0.239-1.407-1.833-1.459-2.469-2.469c1.117-3.574-1.654-6.743-1.646-11.108
		c0.012-6.478,5.687-14.696,11.108-14.606c3.534,0.059,5.001,2.881,7.2,4.731c2.026-2.321,3.894-3.816,4.731-6.995
		c0.957-3.631,0.41-7.822,0.206-11.726c-0.213-4.061-0.451-8.194-0.412-11.931c0.169-16.145,4.223-28.453,9.669-39.703
		c2.77-5.722,5.167-11.53,8.64-16.252c6.089-8.279,17.412-14.013,27.566-18.514c10.825-4.8,23.812-7.612,39.497-5.966
		c15.542,12.177,29.234,25.797,42.377,40.114c13.051,14.217,25.404,30.117,35.177,47.52c5.314,9.464,9.669,17.917,9.669,31.475
		c0,12.396-2.346,24.755-4.732,36.617c-2.34,11.639-2.326,24.896-6.788,34.56c-2.974,6.441-8.231,12.976-12.96,17.897
		c-1.468,1.528-4.458,3.96-4.937,5.555c-0.59,1.96-0.441,4.748-0.617,6.994c-0.588,7.519-0.904,14.402-1.028,22.012
		c4.159,5.355,9.27,11.149,13.783,16.457c1.44,1.693,2.896,3.957,4.731,5.348c4.054,3.073,10.559,4.782,17.486,6.172
		c6.844,1.373,14.436,2.809,21.188,2.057c8.628-0.959,17.012-13.127,11.932-22.422
		C8121.701,2356.53,8119.773,2361.96,8115.252,2363.893z M7997.171,2103.458c-19.466-2.148-34.475,3.437-46.491,10.08
		c-6.863,4.011-13.794,7.329-18.309,13.577c-2.157,2.985-3.874,6.762-5.76,10.286c-5.587,10.441-10.401,22.108-11.726,36.206
		c-0.902,9.604,0.317,19.919,0.206,31.063c-1.273,4.692-3.722,8.209-7.611,10.285c-2.538-1.438-3.179-4.775-6.994-4.937
		c-8.428,1.801-10.949,14.278-6.171,21.806c0.855-4.16-1.317-5.406-1.44-9.052c1.799-3.55,4.669-6.027,10.08-5.966
		c1.32,0.758,3.827,1.356,3.086,3.497c-1.707,0.901-1.953-1.3-3.497-1.234c-2.03,2.866-5.672,6.249-6.171,10.903
		c-0.482,4.487,1.226,8.397,2.468,12.137c0.961,2.477,4.852,3.091,4.731,5.966c-2.751,0.944-4.402-3.673-5.76-3.291
		c0.301,5.048,2.332,9.298,5.554,13.166c3.315,3.979,8.583,9.67,15.017,6.995c3.304,8.231,4.285,16.394,8.229,23.245
		c3.752,6.52,9.138,11.768,14.606,16.869c10.867,10.137,24.09,18.513,38.88,24.068c7.896,2.966,16.432,5.381,25.509,5.966
		c9.693,0.624,17.889-2.642,25.303-6.172c13.91-6.622,25.672-16.842,34.766-28.389c4.419-5.818,7.775-13.066,9.257-22.217
		c1.416-8.741,2.684-18.263,4.32-27.154c1.534-8.342,3.297-18.16,3.702-27.771c0.424-10.047-1.635-18.768-5.554-25.92
		c-3.014-5.42-5.626-11.242-9.463-15.84c-14.719-3.754-27.383,3.274-40.32,3.908c0.273-4.395,2.808-8.297,6.171-10.286
		c8.17-2.937,20.569-3.339,29.417-0.823C8045.296,2147.493,8022.085,2124.078,7997.171,2103.458z M7895.754,2225.447
		c0.404-0.997,0.972-2.271,1.646-3.292c0.659-0.998,2-1.945,1.646-2.674C7897.191,2220.476,7893.702,2222.533,7895.754,2225.447z
		 M8024.12,2334.065c-6.253,2.27-12.723,3.499-19.955,2.88c-6.751-0.578-13.297-2.001-19.542-3.909
		c-23.431-7.156-41.341-21.967-55.749-37.646c-0.012-0.216-0.264-0.162-0.206,0.206c0.97,6.869,2.525,14.705,3.497,22.628
		c0.468,3.811,0.858,7.792,1.234,11.726c0.381,3.992,1.226,8.378,1.029,11.932c-0.181,3.257-2.494,6.279-3.703,9.258
		c-1.405,3.462-1.911,6.718-2.88,10.08c2.569,1.686,6.822,2.54,11.108,1.851c6.174-4.554,14.572-12.897,11.52-24.068
		c-0.516-1.889-2.199-3.238-1.44-5.349c3.712,0.955,6.151,4.443,7.2,8.023c0.551,1.881,0.818,4.319,0.823,6.582
		c0.037,17.021-13.137,22.845-27.977,25.303c4.612,17.674,12.954,31.618,21.806,45.052c3.745,6.776,9.854,11.635,15.634,17.897
		c2.467,2.674,4.695,6.22,6.994,9.668c2.049,3.073,4.686,7.405,7.611,9.258c2.556,1.618,6.009,1.756,8.64,3.086
		c0.882,0.832,1.839,1.589,2.674,2.469c0.31,0.582,0.907,0.876,1.029,1.646c0.387,0.09,0.851,1.841,1.028,0.822
		c3.465-10.781,8.09-19.889,14.606-27.771c6.423-7.771,11.637-16.448,18.926-23.451c10.66-10.303,16.812-25.719,21.6-41.966
		c2.018-6.846,4.897-15.907,2.057-22.217c0.337-10.566,0.702-21.104,1.646-31.063
		C8044.692,2323.428,8035.369,2329.98,8024.12,2334.065z M7932.166,2340.853c-0.012-0.126-0.031-0.243-0.206-0.206
		c-5.774,2.662-13.617,13.075-5.76,18.721C7927.116,2352.124,7931.198,2348.045,7932.166,2340.853z"/>
	<path fill-rule="evenodd" clip-rule="evenodd" d="M7998.817,2186.156c-12.222-0.839-23.407-5.316-36.206-5.349
		c-5.219-0.013-9.568,1.135-12.548,3.909c-3.32,1.424-5.285,6.987-10.08,4.937c1.574-4.171,5.052-7.254,8.434-9.668
		c3.446-2.458,7.525-4.577,12.137-5.76C7973.526,2174.193,8005.912,2167.676,7998.817,2186.156z"/>
	<path fill-rule="evenodd" clip-rule="evenodd" d="M8029.88,2205.082c0.39-3.407,3.778-6.358,6.583-8.64
		c4.069-3.31,8.637-5.057,16.046-4.526c5.48,0.393,9.462,2.575,12.96,5.349c-2.737-4.742-9.302-7.611-16.458-7.611
		c-6.433,0-11.52,2.469-14.811,5.76c-1.321,1.321-1.666,3.338-3.909,3.497c-0.734-3.6,4.111-5.829,6.171-8.023
		c8.261-5.325,22.122-3.591,28.389,2.263c1.165,1.088,2.732,2.446,2.674,4.114c-3.068,0.516-0.054,0.695,0,2.675
		c0.049,1.795-2.872,4.458-4.32,5.554c-3.443,2.606-7.671,2.729-13.577,2.469C8042.434,2207.645,8034.736,2206.36,8029.88,2205.082z
		 M8048.806,2205.699c7.605,1.083,14.143-0.662,16.457-5.554c-2.81-3.43-7.792-5.784-13.166-5.966
		C8055.45,2197.821,8053.013,2204.768,8048.806,2205.699z M8039.137,2197.47c-0.045-0.16-0.172-0.239-0.412-0.206
		c-2.028,2.092-5.161,4.157-6.171,6.583c3.489,0.214,7.235,1.268,10.286,1.234C8040.539,2203.612,8038.809,2201.57,8039.137,2197.47
		z"/>
	<path fill-rule="evenodd" clip-rule="evenodd" d="M7991.412,2197.676c-2.126-0.334-2.189-1.857-3.292-2.88
		c-6.452-5.986-20.563-4.517-28.389,0c-2.285,1.319-4.591,3.026-6.583,4.526c-1.988,1.496-3.979,4.036-6.583,3.497
		c-0.138-2.509,3.474-2.942,4.731-4.731c5.298-3.924,11.119-8.32,20.16-9.052c5.673-0.459,11.824-0.221,15.84,2.469
		C7988.768,2193.226,7992.871,2195.012,7991.412,2197.676z"/>
	<path fill-rule="evenodd" clip-rule="evenodd" d="M8030.497,2190.064c-0.311,2.535-2.76,3.373-3.909,5.554
		c-1.343,2.552-1.677,7.275-1.234,11.108c0.206,1.781,1.456,3.933,0.206,5.349c-1.826,0.175-1.863-2.409-2.057-3.703
		c-1.162-7.753,0.589-15.486,5.349-18.514c0.292,0.018,0.583,0.034,0.617-0.206c0.175-0.038,0.194,0.08,0.206,0.206
		C8030.104,2189.772,8030.219,2190,8030.497,2190.064z"/>
	<path fill-rule="evenodd" clip-rule="evenodd" d="M8004.372,2209.813c-1.866-0.222-1.14-2.616-1.234-3.908
		c-0.311-4.245-1.977-8.258-4.114-10.697c-1.605-1.687-4.092-2.491-5.76-4.114c-0.119-0.874,0.555-0.954,1.029-1.234
		c0.137,0,0.274,0,0.411,0c5.758,2.309,9.932,8.158,10.492,15.429C8005.299,2206.642,8005.612,2209.191,8004.372,2209.813z"/>
	<path fill-rule="evenodd" clip-rule="evenodd" d="M7979.48,2209.196c-9.583,2.092-21.958-1.533-27.154-7.405
		c1.616-3.14,5.277-5.652,9.051-7.406c3.82-1.774,8.907-3.023,13.783-2.674c7.364,0.527,11.042,5.596,15.017,9.668
		c1.173,0.885,3.096,1.019,3.497,2.675c-1.091,1.446-3.345,1.729-5.143,2.468c-0.784,0.039-0.126,1.52-0.617,1.852
		c-7.311,3.328-18.619,6.521-28.594,3.703c-1.764-0.498-4.924-0.925-4.937-3.291c2.033-0.622,4.163,1.068,6.583,1.646
		c5.81,1.385,12.642,0.784,17.691-1.028c0.332,0.058,0.354-0.194,0.617-0.206C7979.343,2209.196,7979.412,2209.196,7979.48,2209.196
		z M7973.514,2207.55c6.497-0.292,11.73-1.848,16.457-3.909c-4.418-3.262-7.433-9.024-13.988-9.463
		C7980.659,2197.218,7978.571,2206.618,7973.514,2207.55z M7955,2201.584c3.42,2.34,7.679,4.938,12.343,5.349
		c-3.666-0.959-5.766-7.346-3.085-10.903c-0.023-0.251-0.062-0.487-0.412-0.412C7960.512,2197.222,7957.125,2198.772,7955,2201.584z
		"/>
	<path fill-rule="evenodd" clip-rule="evenodd" d="M8063.412,2210.43c-0.421,1.91-3.141,2.13-4.938,2.469
		c-5.281,0.997-10.558,0.577-15.223-1.029c-2.574-0.885-5.443-1.822-6.377-3.703c-0.035-0.515,0.316-0.644,0.617-0.823
		c3.783,1.25,8.82,4.063,14.4,4.114c2.191,0.021,4.24-0.46,6.171-0.822C8059.685,2210.332,8061.716,2209.38,8063.412,2210.43z"/>
	<path fill-rule="evenodd" clip-rule="evenodd" d="M7908.097,2224.007c-0.328,2.483-4.593,1.03-5.966,2.469
		c-1.868,1.706,0.213,6.293-1.028,7.817c-1.372-0.472-1.371-0.141-2.674,0.206c-0.405-0.35-0.877-0.631-1.029-1.234
		c0.075-1.002,1.023-1.592,1.852-1.234c-0.365-2.392-0.021-4.656,0.823-6.377
		C7901.467,2224.136,7905.615,2222.415,7908.097,2224.007z"/>
	<path fill-rule="evenodd" clip-rule="evenodd" d="M8037.491,2232.442c0.4,1.023-0.129,1.423-0.617,2.057
		c6.556,8.042-1.071,19.978-10.08,19.132c0.348-3.081,4.75-2.107,6.171-4.114c1.979-1.38,3.306-3.414,4.32-5.76
		c0.729-5.838-2.981-8.738-4.937-12.548c0.025-0.523,0.299-0.798,0.823-0.823
		C8034.947,2231.481,8035.605,2232.125,8037.491,2232.442z"/>
	<path fill-rule="evenodd" clip-rule="evenodd" d="M7823.754,2234.499c-0.815-0.076-1.187-0.596-1.44-1.234
		C7822.839,2230.053,7826.797,2233.646,7823.754,2234.499z"/>
	<path fill-rule="evenodd" clip-rule="evenodd" d="M7829.926,2234.499c-0.815-0.076-1.187-0.596-1.44-1.234
		C7829.011,2230.053,7832.969,2233.646,7829.926,2234.499z"/>
	<path fill-rule="evenodd" clip-rule="evenodd" d="M7836.303,2234.499c-0.815-0.076-1.187-0.596-1.44-1.234
		C7835.388,2230.053,7839.346,2233.646,7836.303,2234.499z"/>
	<path fill-rule="evenodd" clip-rule="evenodd" d="M7842.474,2234.499c-0.815-0.076-1.186-0.596-1.44-1.234
		C7841.559,2230.053,7845.518,2233.646,7842.474,2234.499z"/>
	<path fill-rule="evenodd" clip-rule="evenodd" d="M7848.852,2234.499c-0.815-0.076-1.187-0.596-1.44-1.234
		C7847.937,2230.053,7851.895,2233.646,7848.852,2234.499z"/>
	<path fill-rule="evenodd" clip-rule="evenodd" d="M7855.023,2234.499c-0.815-0.076-1.187-0.596-1.44-1.234
		C7854.108,2230.053,7858.066,2233.646,7855.023,2234.499z"/>
	<path fill-rule="evenodd" clip-rule="evenodd" d="M7861.194,2234.499c-0.815-0.076-1.187-0.596-1.44-1.234
		C7860.279,2230.053,7864.237,2233.646,7861.194,2234.499z"/>
	<path fill-rule="evenodd" clip-rule="evenodd" d="M7867.571,2234.499c-0.815-0.076-1.187-0.596-1.44-1.234
		C7866.656,2230.053,7870.615,2233.646,7867.571,2234.499z"/>
	<path fill-rule="evenodd" clip-rule="evenodd" d="M7873.743,2234.499c-0.815-0.076-1.186-0.596-1.44-1.234
		C7872.828,2230.053,7876.786,2233.646,7873.743,2234.499z"/>
	<path fill-rule="evenodd" clip-rule="evenodd" d="M7880.12,2234.499c-0.815-0.076-1.187-0.596-1.44-1.234
		C7879.205,2230.053,7883.163,2233.646,7880.12,2234.499z"/>
	<path fill-rule="evenodd" clip-rule="evenodd" d="M7886.292,2234.499c-0.815-0.076-1.187-0.596-1.44-1.234
		C7885.376,2230.053,7889.334,2233.646,7886.292,2234.499z"/>
	<path fill-rule="evenodd" clip-rule="evenodd" d="M7905.011,2234.499c-0.815-0.076-1.186-0.596-1.44-1.234
		C7904.096,2230.053,7908.055,2233.646,7905.011,2234.499z"/>
	<path fill-rule="evenodd" clip-rule="evenodd" d="M7912.623,2233.059c-0.019,1.01-0.903,1.154-1.44,1.646
		c-1.488,3.163,2.161,5.911,1.029,8.64c-2.065-0.399-3.482-4.184-3.497-6.788c-0.012-2.051,0.969-3.954,2.468-4.731
		C7911.933,2231.965,7912.371,2232.419,7912.623,2233.059z"/>
	<path fill-rule="evenodd" clip-rule="evenodd" d="M7917.56,2234.499c-0.815-0.076-1.187-0.596-1.44-1.234
		C7916.645,2230.053,7920.603,2233.646,7917.56,2234.499z"/>
	<path fill-rule="evenodd" clip-rule="evenodd" d="M7923.937,2234.499c-0.815-0.076-1.187-0.596-1.44-1.234
		C7923.022,2230.053,7926.98,2233.646,7923.937,2234.499z"/>
	<path fill-rule="evenodd" clip-rule="evenodd" d="M7930.108,2234.499c-0.815-0.076-1.186-0.596-1.44-1.234
		C7929.193,2230.053,7933.152,2233.646,7930.108,2234.499z"/>
	<path fill-rule="evenodd" clip-rule="evenodd" d="M7936.28,2234.499c-0.815-0.076-1.186-0.596-1.44-1.234
		C7935.365,2230.053,7939.323,2233.646,7936.28,2234.499z"/>
	<path fill-rule="evenodd" clip-rule="evenodd" d="M7942.657,2234.499c-0.815-0.076-1.187-0.596-1.44-1.234
		C7941.742,2230.053,7945.7,2233.646,7942.657,2234.499z"/>
	<path fill-rule="evenodd" clip-rule="evenodd" d="M7948.829,2234.499c-0.815-0.076-1.187-0.596-1.44-1.234
		C7947.914,2230.053,7951.872,2233.646,7948.829,2234.499z"/>
	<path fill-rule="evenodd" clip-rule="evenodd" d="M7955.206,2234.499c-0.815-0.076-1.186-0.596-1.44-1.234
		C7954.291,2230.053,7958.249,2233.646,7955.206,2234.499z"/>
	<path fill-rule="evenodd" clip-rule="evenodd" d="M7961.377,2234.499c-0.815-0.076-1.186-0.596-1.44-1.234
		C7960.462,2230.053,7964.42,2233.646,7961.377,2234.499z"/>
	<path fill-rule="evenodd" clip-rule="evenodd" d="M7967.548,2234.499c-0.815-0.076-1.186-0.596-1.44-1.234
		C7966.634,2230.053,7970.592,2233.646,7967.548,2234.499z"/>
	<path fill-rule="evenodd" clip-rule="evenodd" d="M7973.926,2234.499c-0.815-0.076-1.187-0.596-1.44-1.234
		C7973.011,2230.053,7976.969,2233.646,7973.926,2234.499z"/>
	<path fill-rule="evenodd" clip-rule="evenodd" d="M7980.097,2234.499c-0.815-0.076-1.187-0.596-1.44-1.234
		C7979.182,2230.053,7983.141,2233.646,7980.097,2234.499z"/>
	<path fill-rule="evenodd" clip-rule="evenodd" d="M7986.474,2234.499c-0.815-0.076-1.186-0.596-1.44-1.234
		C7985.559,2230.053,7989.518,2233.646,7986.474,2234.499z"/>
	<path fill-rule="evenodd" clip-rule="evenodd" d="M7995.731,2232.647c-0.654,3.162-3.709,7.815-2.88,12.138
		c0.339,1.77,1.333,2.805,2.468,4.114c4.178,2.543,11.419,1.894,16.458,0.617c-1.963-1.123-3.803-2.369-5.555-3.703
		c-1.353,0.876-4.92,0.981-5.76-0.411c-0.947,0.177-2.246,1.16-3.086,0.206c0.104-2.099,2.515-2.509,4.114-2.674
		c4.753-0.492,8.302,2.951,11.109,4.731c1.069,0.371,2.574,0.306,2.468,1.852c-0.042,0.822-0.934,0.792-1.44,0.617
		c-0.488,0.128,0.032,1.266-0.411,1.439c-0.712,0.316-1.875,0.182-2.88,0.206c-9.092,2.73-19.749,0.329-19.749-8.846
		c0-3.298,1.22-5.565,2.263-8.229c-0.647-0.382-1.479-0.578-1.646-1.44c-0.004-1.451,2.207-1.902,2.469-0.411
		C7994.137,2232.373,7995.201,2231.914,7995.731,2232.647z"/>
	<path fill-rule="evenodd" clip-rule="evenodd" d="M7998.817,2234.499c-0.815-0.076-1.187-0.596-1.44-1.234
		C7997.902,2230.053,8001.86,2233.646,7998.817,2234.499z"/>
	<path fill-rule="evenodd" clip-rule="evenodd" d="M8005.194,2234.499c-0.815-0.076-1.187-0.596-1.44-1.234
		C8004.279,2230.053,8008.237,2233.646,8005.194,2234.499z"/>
	<path fill-rule="evenodd" clip-rule="evenodd" d="M8011.366,2234.499c-0.815-0.076-1.187-0.596-1.44-1.234
		C8010.451,2230.053,8014.409,2233.646,8011.366,2234.499z"/>
	<path fill-rule="evenodd" clip-rule="evenodd" d="M8017.743,2234.499c-0.815-0.076-1.186-0.596-1.44-1.234
		C8016.828,2230.053,8020.786,2233.646,8017.743,2234.499z"/>
	<path fill-rule="evenodd" clip-rule="evenodd" d="M8023.914,2234.499c-0.815-0.076-1.186-0.596-1.44-1.234
		C8023,2230.053,8026.958,2233.646,8023.914,2234.499z"/>
	<path fill-rule="evenodd" clip-rule="evenodd" d="M8030.292,2234.499c-0.815-0.076-1.187-0.596-1.44-1.234
		C8029.376,2230.053,8033.334,2233.646,8030.292,2234.499z"/>
	<path fill-rule="evenodd" clip-rule="evenodd" d="M8042.634,2234.499c-0.815-0.076-1.187-0.596-1.44-1.234
		C8041.719,2230.053,8045.678,2233.646,8042.634,2234.499z"/>
	<path fill-rule="evenodd" clip-rule="evenodd" d="M8049.011,2234.499c-0.815-0.076-1.186-0.596-1.44-1.234
		C8048.096,2230.053,8052.055,2233.646,8049.011,2234.499z"/>
	<path fill-rule="evenodd" clip-rule="evenodd" d="M8055.183,2234.499c-0.815-0.076-1.186-0.596-1.44-1.234
		C8054.268,2230.053,8058.226,2233.646,8055.183,2234.499z"/>
	<path fill-rule="evenodd" clip-rule="evenodd" d="M8061.56,2234.499c-0.815-0.076-1.187-0.596-1.44-1.234
		C8060.645,2230.053,8064.603,2233.646,8061.56,2234.499z"/>
	<path fill-rule="evenodd" clip-rule="evenodd" d="M8067.731,2234.499c-0.815-0.076-1.187-0.596-1.44-1.234
		C8066.816,2230.053,8070.775,2233.646,8067.731,2234.499z"/>
	<path fill-rule="evenodd" clip-rule="evenodd" d="M8073.903,2234.499c-0.815-0.076-1.187-0.596-1.44-1.234
		C8072.988,2230.053,8076.946,2233.646,8073.903,2234.499z"/>
	<path fill-rule="evenodd" clip-rule="evenodd" d="M8080.279,2234.499c-0.814-0.076-1.186-0.596-1.439-1.234
		C8079.365,2230.053,8083.323,2233.646,8080.279,2234.499z"/>
	<path fill-rule="evenodd" clip-rule="evenodd" d="M8086.451,2234.499c-0.814-0.076-1.186-0.596-1.439-1.234
		C8085.537,2230.053,8089.494,2233.646,8086.451,2234.499z"/>
	<path fill-rule="evenodd" clip-rule="evenodd" d="M8092.828,2234.499c-0.814-0.076-1.186-0.596-1.439-1.234
		C8091.914,2230.053,8095.871,2233.646,8092.828,2234.499z"/>
	<path fill-rule="evenodd" clip-rule="evenodd" d="M8099,2234.499c-0.815-0.076-1.187-0.596-1.439-1.234
		C8098.085,2230.053,8102.043,2233.646,8099,2234.499z"/>
	<path fill-rule="evenodd" clip-rule="evenodd" d="M8105.172,2234.499c-0.816-0.076-1.188-0.596-1.44-1.234
		C8104.256,2230.053,8108.215,2233.646,8105.172,2234.499z"/>
	<path fill-rule="evenodd" clip-rule="evenodd" d="M8111.549,2234.499c-0.815-0.076-1.187-0.596-1.44-1.234
		C8110.634,2230.053,8114.592,2233.646,8111.549,2234.499z"/>
	<path fill-rule="evenodd" clip-rule="evenodd" d="M8117.721,2234.499c-0.816-0.076-1.188-0.596-1.441-1.234
		C8116.805,2230.053,8120.764,2233.646,8117.721,2234.499z"/>
	<path fill-rule="evenodd" clip-rule="evenodd" d="M8124.098,2234.499c-0.816-0.076-1.188-0.596-1.44-1.234
		C8123.182,2230.053,8127.141,2233.646,8124.098,2234.499z"/>
	<path fill-rule="evenodd" clip-rule="evenodd" d="M8130.269,2234.499c-0.815-0.076-1.187-0.596-1.44-1.234
		C8129.354,2230.053,8133.313,2233.646,8130.269,2234.499z"/>
	<path fill-rule="evenodd" clip-rule="evenodd" d="M8136.646,2234.499c-0.815-0.076-1.187-0.596-1.44-1.234
		C8135.73,2230.053,8139.689,2233.646,8136.646,2234.499z"/>
	<path fill-rule="evenodd" clip-rule="evenodd" d="M8142.817,2234.499c-0.815-0.076-1.187-0.596-1.44-1.234
		C8141.902,2230.053,8145.86,2233.646,8142.817,2234.499z"/>
	<path fill-rule="evenodd" clip-rule="evenodd" d="M8148.988,2234.499c-0.814-0.076-1.186-0.596-1.439-1.234
		C8148.074,2230.053,8152.031,2233.646,8148.988,2234.499z"/>
	<path fill-rule="evenodd" clip-rule="evenodd" d="M8155.365,2234.499c-0.814-0.076-1.186-0.596-1.439-1.234
		C8154.451,2230.053,8158.409,2233.646,8155.365,2234.499z"/>
	<path fill-rule="evenodd" clip-rule="evenodd" d="M8161.537,2234.499c-0.815-0.076-1.187-0.596-1.439-1.234
		C8160.622,2230.053,8164.58,2233.646,8161.537,2234.499z"/>
	<path fill-rule="evenodd" clip-rule="evenodd" d="M8167.914,2234.499c-0.814-0.076-1.186-0.596-1.439-1.234
		C8167,2230.053,8170.957,2233.646,8167.914,2234.499z"/>
	<path fill-rule="evenodd" clip-rule="evenodd" d="M8174.086,2234.499c-0.815-0.076-1.187-0.596-1.44-1.234
		C8173.171,2230.053,8177.129,2233.646,8174.086,2234.499z"/>
	<path fill-rule="evenodd" clip-rule="evenodd" d="M8180.258,2234.499c-0.816-0.076-1.188-0.596-1.44-1.234
		C8179.342,2230.053,8183.301,2233.646,8180.258,2234.499z"/>
	<path fill-rule="evenodd" clip-rule="evenodd" d="M8186.635,2234.499c-0.816-0.076-1.188-0.596-1.44-1.234
		C8185.719,2230.053,8189.678,2233.646,8186.635,2234.499z"/>
	<path fill-rule="evenodd" clip-rule="evenodd" d="M8192.806,2234.499c-0.815-0.076-1.187-0.596-1.44-1.234
		C8191.891,2230.053,8195.849,2233.646,8192.806,2234.499z"/>
	<path fill-rule="evenodd" clip-rule="evenodd" d="M8199.183,2234.499c-0.815-0.076-1.187-0.596-1.439-1.234
		C8198.268,2230.053,8202.227,2233.646,8199.183,2234.499z"/>
	<path fill-rule="evenodd" clip-rule="evenodd" d="M8205.354,2234.499c-0.815-0.076-1.187-0.596-1.44-1.234
		C8204.439,2230.053,8208.397,2233.646,8205.354,2234.499z"/>
	<path fill-rule="evenodd" clip-rule="evenodd" d="M8211.525,2234.499c-0.815-0.076-1.187-0.596-1.439-1.234
		C8210.61,2230.053,8214.569,2233.646,8211.525,2234.499z"/>
	<path fill-rule="evenodd" clip-rule="evenodd" d="M8217.903,2234.499c-0.815-0.076-1.187-0.596-1.44-1.234
		C8216.988,2230.053,8220.946,2233.646,8217.903,2234.499z"/>
	<path fill-rule="evenodd" clip-rule="evenodd" d="M8224.074,2234.499c-0.815-0.076-1.187-0.596-1.439-1.234
		C8223.159,2230.053,8227.117,2233.646,8224.074,2234.499z"/>
	<path fill-rule="evenodd" clip-rule="evenodd" d="M8230.451,2234.499c-0.815-0.076-1.187-0.596-1.439-1.234
		C8229.536,2230.053,8233.495,2233.646,8230.451,2234.499z"/>
	<path fill-rule="evenodd" clip-rule="evenodd" d="M8236.623,2234.499c-0.815-0.076-1.187-0.596-1.44-1.234
		C8235.708,2230.053,8239.666,2233.646,8236.623,2234.499z"/>
	<path fill-rule="evenodd" clip-rule="evenodd" d="M8242.794,2234.499c-0.815-0.076-1.187-0.596-1.439-1.234
		C8241.879,2230.053,8245.838,2233.646,8242.794,2234.499z"/>
	<path fill-rule="evenodd" clip-rule="evenodd" d="M8249.172,2234.499c-0.815-0.076-1.187-0.596-1.44-1.234
		C8248.257,2230.053,8252.215,2233.646,8249.172,2234.499z"/>
	<path fill-rule="evenodd" clip-rule="evenodd" d="M8255.343,2234.499c-0.815-0.076-1.187-0.596-1.439-1.234
		C8254.428,2230.053,8258.386,2233.646,8255.343,2234.499z"/>
	<path fill-rule="evenodd" clip-rule="evenodd" d="M8261.72,2234.499c-0.815-0.076-1.187-0.596-1.439-1.234
		C8260.805,2230.053,8264.764,2233.646,8261.72,2234.499z"/>
	<path fill-rule="evenodd" clip-rule="evenodd" d="M8267.892,2234.499c-0.815-0.076-1.187-0.596-1.44-1.234
		C8266.977,2230.053,8270.935,2233.646,8267.892,2234.499z"/>
	<path fill-rule="evenodd" clip-rule="evenodd" d="M8274.269,2234.499c-0.815-0.076-1.187-0.596-1.44-1.234
		C8273.354,2230.053,8277.312,2233.646,8274.269,2234.499z"/>
	<path fill-rule="evenodd" clip-rule="evenodd" d="M8280.44,2234.499c-0.815-0.076-1.187-0.596-1.44-1.234
		C8279.525,2230.053,8283.483,2233.646,8280.44,2234.499z"/>
	<path fill-rule="evenodd" clip-rule="evenodd" d="M8286.611,2234.499c-0.815-0.076-1.187-0.596-1.439-1.234
		C8285.696,2230.053,8289.654,2233.646,8286.611,2234.499z"/>
	<path fill-rule="evenodd" clip-rule="evenodd" d="M8292.988,2234.499c-0.815-0.076-1.187-0.596-1.439-1.234
		C8292.073,2230.053,8296.032,2233.646,8292.988,2234.499z"/>
	<path fill-rule="evenodd" clip-rule="evenodd" d="M8299.16,2234.499c-0.815-0.076-1.187-0.596-1.44-1.234
		C8298.245,2230.053,8302.203,2233.646,8299.16,2234.499z"/>
	<path fill-rule="evenodd" clip-rule="evenodd" d="M8305.537,2234.499c-0.815-0.076-1.187-0.596-1.44-1.234
		C8304.622,2230.053,8308.58,2233.646,8305.537,2234.499z"/>
	<path fill-rule="evenodd" clip-rule="evenodd" d="M8311.709,2234.499c-0.815-0.076-1.187-0.596-1.44-1.234
		C8310.794,2230.053,8314.752,2233.646,8311.709,2234.499z"/>
	<path fill-rule="evenodd" clip-rule="evenodd" d="M8317.88,2234.499c-0.815-0.076-1.187-0.596-1.439-1.234
		C8316.965,2230.053,8320.923,2233.646,8317.88,2234.499z"/>
	<path fill-rule="evenodd" clip-rule="evenodd" d="M8034.817,2244.785c0.032,0.923-0.925,0.858-1.852,0.823
		c-1.087,0.904-2.802,2.27-4.731,1.646c-1.826,0.721-2.888,4.138-5.349,2.88c1.213-3.313,4.389-4.663,6.994-6.583
		C8031.567,2243.344,8034.625,2242.883,8034.817,2244.785z"/>
	<path fill-rule="evenodd" clip-rule="evenodd" d="M8046.954,2274.819c-0.192,2.824-2.612,3.422-3.497,5.555
		c-1.444,1.572-2.723,3.312-4.114,4.937c-12.077,10.212-40.756,7.026-52.251-1.028c-2.162-1.473-4.649-2.619-6.583-4.32
		c-1.922-1.438-5.163-2.653-5.555-4.938c1.239-1.478,2.608-0.416,3.909-0.411c8.574,0.035,18.535-5.912,27.154-6.377
		c3.983-0.215,5.327,1.776,8.229,3.086c2.951-0.341,4.85-1.733,7.406-2.469c9.11-1.165,12.985,5.72,20.16,5.966
		C8043.8,2274.887,8045.248,2274,8046.954,2274.819z M8022.063,2270.911c-2.546,0.438-4.699,2.768-8.023,2.468
		c-2.76-0.249-4.446-3.423-7.611-3.085c-7.402,0.79-14.762,3.958-22.423,5.965c7.757,0.272,15.406,1.235,23.246,1.646
		c11.027,0.578,21.524-0.154,31.886-1.029C8033.614,2274.719,8029.911,2270.742,8022.063,2270.911z M8006.017,2289.013
		c10.18,1.731,21.679,0.546,29.623-3.497c1.336-1.27,3.006-2.206,3.908-3.908c0.647-0.45,1.134-1.061,1.44-1.852
		c0.401-0.3,1.783-1.531,1.028-1.646c-3.096,1.544-6.74,1.021-10.903,1.234c-8.368,0.43-16.427,1.172-24.892,0.617
		c-8.271-0.542-16.44-1.421-24.48-1.852c-0.125,0.012-0.243,0.031-0.206,0.206
		C7987.701,2282.462,7996.46,2287.387,8006.017,2289.013z"/>
</g>
<text transform="matrix(1 0 0 1 8155.333 2163.4307)"><tspan x="0" y="0" font-family="'LinLibertineB'" font-size="17">Upper face (and head):</tspan><tspan x="0" y="20.4" font-family="'LinLibertine'" font-size="17">- syntactic information</tspan><tspan x="0" y="40.8" font-family="'LinLibertine'" font-size="17">- larger scopal domains</tspan></text>
<text transform="matrix(1 0 0 1 8155 2266.0967)"><tspan x="0" y="0" font-family="'LinLibertineB'" font-size="17">Lower face:</tspan><tspan x="0" y="20.4" font-family="'LinLibertine'" font-size="17">- adverbial and adjectival</tspan><tspan x="0" y="40.8" font-family="'LinLibertine'" font-size="17">  information</tspan><tspan x="0" y="61.201" font-family="'LinLibertine'" font-size="17">- smaller scopal domains</tspan></text>
</svg>
