<?xml version="1.0" encoding="utf-8"?>
<!-- Generator: Adobe Illustrator 15.0.0, SVG Export Plug-In . SVG Version: 6.00 Build 0)  -->
<!DOCTYPE svg PUBLIC "-//W3C//DTD SVG 1.1//EN" "http://www.w3.org/Graphics/SVG/1.1/DTD/svg11.dtd">
<svg version="1.1" id="Layer_1" xmlns="http://www.w3.org/2000/svg" xmlns:xlink="http://www.w3.org/1999/xlink" x="0px" y="0px"
	 enable-background="new 0 0 16157.48 4535.43"
	 xml:space="preserve">
<g>
	<path fill-rule="evenodd" clip-rule="evenodd" d="M8301.2,2023.43c0.08,0,0.16,0,0.24,0c2.265,4.056,6.339,7.58,7.92,11.52
		c-2.32,0-4.641,0-6.96,0c0,155.195,0,310.402,0,465.6c1.682,0.558,4.398,0.081,6.479,0.24c0.221,0.796-0.802,1.795-1.439,2.64
		c-2.172,2.876-4.604,5.92-6.48,8.64c-3.06-3.341-6.33-7.749-8.4-11.279c2.24,0,4.48,0,6.721,0c0-155.194,0-310.402,0-465.601
		c-1.522-0.558-4.078-0.082-6-0.24c-0.563-0.906,0.658-1.923,1.2-2.64C8296.64,2029.45,8299.297,2026.042,8301.2,2023.43z"/>
	<path fill-rule="evenodd" clip-rule="evenodd" d="M8131.52,2061.35c8.705-1.117,14.037,4.323,14.881,12.96
		c0.85,8.718,0,20.677,0,32.64c0,18.891-3.672,37.393,13.92,37.44c-0.766,1.242-2.395,0.795-3.36,0.96
		c-13.626,2.331-10.56,18.978-10.56,36.72c0,12.131,0.764,23.875,0,32.641c-0.718,8.228-5.762,14.244-14.881,13.439
		c8.711-0.656,13.453-5.222,14.16-14.399c1.141-14.813-1.19-42.102,0-56.4c0.582-6.992,4.549-11.735,11.521-12.48
		c0.106-0.349,0.21,0.024,0.479,0c-6.57-1.443-11.268-4.935-12-12.72c-1.379-14.669,1.051-40.486,0-56.16
		C8145.068,2066.868,8140.561,2061.398,8131.52,2061.35z"/>
	<path fill-rule="evenodd" clip-rule="evenodd" d="M8033.6,2081.03c-6.245-0.817-12.942-1.043-18,0.96
		C8016.586,2074.41,8031.581,2074.092,8033.6,2081.03z"/>
	<path fill-rule="evenodd" clip-rule="evenodd" d="M7991.84,2081.99c-7.493-1.841-13.985,1.75-20.4,1.68
		C7972.107,2076.885,7990.239,2074.812,7991.84,2081.99z"/>
	<path fill-rule="evenodd" clip-rule="evenodd" d="M8033.36,2089.43c-4.879,2.423-13.996,2.062-18.72-0.24
		C8016.346,2081.232,8031.358,2082.716,8033.36,2089.43z M8016.56,2088.47c1.351,0.173,3.166,1.148,4.32,0.72
		c-1.664-0.578,0.11-3.823-0.48-3.84C8018.818,2086.088,8017.351,2086.941,8016.56,2088.47z M8025.92,2089.67
		c2.047-0.193,4.15-0.331,5.52-1.2c-1.381-1.02-2.722-2.078-4.56-2.64C8027.482,2087.27,8027.03,2089.199,8025.92,2089.67z"/>
	<path fill-rule="evenodd" clip-rule="evenodd" d="M7947.44,2280.95c1.557-0.1,2.4,0.703,2.64,1.44c1.532,4.711-7.035,5.396-5.28,0
		C7944.977,2281.846,7945.795,2281.056,7947.44,2280.95z"/>
	<path fill-rule="evenodd" clip-rule="evenodd" d="M8056.88,2285.03c4.38-0.629,3.663,5.075,0.48,5.28
		C8054.414,2290.5,8052.97,2285.592,8056.88,2285.03z"/>
	<path fill-rule="evenodd" clip-rule="evenodd" d="M7885.28,2311.67c0.24,0,0.48,0,0.72,0c0.941,1.592,1.886,3.12,3.12,4.56
		c1.08,1.26,3.036,2.341,2.88,4.08C7888.768,2318.576,7885.624,2315.496,7885.28,2311.67z"/>
	<path fill-rule="evenodd" clip-rule="evenodd" d="M8131.76,2377.67c4.365,2.674,8.775,5.305,12,9.12
		c-2.061,0.472-4.269-2.174-6.24-3.601c-2.171-1.57-4.436-2.979-6.24-4.56C8131.105,2377.975,8131.757,2378.147,8131.76,2377.67z"/>
	<path fill-rule="evenodd" clip-rule="evenodd" d="M7992.32,2389.43c1.205-1.693,3.179-2.557,4.8-2.16
		c4.299,1.053,2.879,11.441-1.2,11.28C7992.67,2398.421,7992.246,2393.519,7992.32,2389.43z"/>
	<path fill-rule="evenodd" clip-rule="evenodd" d="M7898.72,2472.47c-0.657,0.915-0.915,3.335-2.64,2.399
		C7896.425,2473.536,7896.704,2472.134,7898.72,2472.47z"/>
	<path fill-rule="evenodd" clip-rule="evenodd" d="M8056.88,2081.27c1.581,0.5,5.338,0.757,5.76,3.12
		c0.517,2.896-1.277,6.439-2.4,9.36c-2.868,7.457-5.086,20.356-9.12,26.16c-0.849,1.221-2.05,1.885-2.88,2.4
		c-1.638,4.916-3.696,8.941-5.52,14.16c-0.557,1.594-1.803,3.241-1.92,4.56c-0.265,2.985,2.127,6.593,3.6,8.16
		c2.618,2.784,6.415,4.543,9.6,6.24c10.454,5.569,21.314,9.715,30.48,17.04c5.477,4.377,11.736,9.35,19.199,12.48
		c7.723,3.239,13.422,7.88,15.6,15.84c2.391,8.731,2.484,19.829,1.681,29.52c-0.817,9.852-3.239,18.51-6.239,25.44
		c-3.425,7.909-6.729,13.608-5.761,24.96c0.415,4.868,1.2,9.708,1.2,14.64c0,4.927-0.567,10.094-0.24,15.36
		c0.779,12.556,8.25,19.556,13.92,27.6c2.941,4.173,5.908,8.194,8.641,12.24c2.836,4.2,4.18,9.191,7.199,13.44
		c3.633,5.111,8.36,7.487,12.721,12.72c2.203,2.645,3.781,6.406,6.72,8.159c2.599-3.231,8.896-2.554,14.399-4.8
		c3.721-1.518,5.264-4.951,8.641-5.52c2.182-0.367,4.805,0.359,5.52,0.96c1.229,1.031,2.75,4.994,2.4,7.2
		c-0.404,2.542-3.354,4.428-4.801,5.76c2.721,2.552,6.086,6.216,8.4,11.521c3.471,7.952,8.43,22.589-5.279,21.84
		c-0.564,3.423-1.492,6.882-5.041,7.439c-1.444,0.228-2.934-0.953-4.56-0.72c-2.116,0.304-3.052,3.687-5.28,4.319
		c-1.212,0.346-2.829-0.335-4.319,0c-2.648,0.597-4.121,3.395-6.24,3.601c-3.657,0.356-7.852-3.593-11.04-6
		c-6.838-5.161-13.195-8.838-15.12-18.479c-3.948-1.906-5.983-6.039-9.36-8.641c-1.343-1.035-3.04-1.49-4.319-2.64
		c-2.626-2.36-4.194-5.341-6.72-7.44c-7.488-6.224-16.541-11.229-23.76-18c-4.877-4.573-8.191-10.371-11.761-16.08
		c-3.501-5.601-8.358-10.18-11.52-16.32c-4.818,11.831-0.709,24.352,2.64,36.961c2.341,8.813,3.78,18.48,3.12,28.56
		c-0.102,1.546-0.597,3.013-0.72,4.56c-0.687,8.615,1.963,18.934,2.4,28.32c0.155,3.332-0.422,6.613,0.24,9.36
		c1.368,5.678,6.411,11.721,6.72,17.76c0.112,2.19-0.707,4.53-0.72,6.72c-0.018,3.156,1.334,5.572,0.96,8.16
		c-3.859-2.721-1.371-9.981-1.68-14.88c-0.36-5.696-4.367-9.852-5.521-14.399c-4.447,5.709-14.229,7.692-24,9.84
		c-19.013,4.178-42.236,7.509-65.28,5.76c-22.072-1.676-41.463-6.177-59.28-12.96c-8.072-3.073-15.612-5.468-18-13.2
		c-1.065,1.357-2.175,2.864-3.12,4.561c-0.803,1.439-1.069,4.015-3.12,4.319c-0.24-1.66,1.479-4.259,2.64-6.24
		c1.213-2.069,2.652-4.072,3.84-5.76c1.704-11.056,7.519-19.143,8.16-30.72c0.175-3.158-0.47-5.984-0.48-9.36
		c-0.044-15.475,9.716-25.055,10.8-39.12c0.99-12.848-5.745-22.785-6.72-35.52c-1.536,3.188-0.319,11.428-2.16,15.84
		c-0.874,2.093-3.604,4.359-5.76,6.24c-6.142,5.357-10.668,13.662-16.56,18.72c-8.688,7.458-17.775,10.938-30,17.28
		c-4.752,2.465-9.163,6.396-14.64,9.12c-5.655,2.813-10.621,4.38-14.88,8.64c-3.638,3.639-7.545,7.523-12.96,10.561
		c-4.595,2.576-14.853,7.831-20.4,4.56c-2.181-1.286-2.392-3.886-3.84-5.04c-1.205-0.96-3.552-1.221-5.04-2.4
		c-1.754-1.391-2.556-3.849-3.84-4.56c-3.153-1.745-6.713-0.623-7.44-4.8c-0.357-2.049,0.839-3.494,0.48-5.04
		c-0.493-2.125-3.837-2.716-4.8-4.32c-3.091-5.151,0.596-9.793,3.6-13.2c4.198-4.761,8.578-9.912,15.36-12
		c-0.831-1.792-2.242-3.148-2.4-5.279c-0.34-4.602,3.594-9.912,7.68-9.601c3.034,0.231,4.936,4.604,6.96,6.48
		c4.266,3.953,10.988,7.122,14.16,10.56c3.735-1.688,4.273-5.192,7.44-7.439c3.54-2.513,8.243-3.078,11.28-6
		c1.521-1.464,2.567-3.833,3.84-5.761c3.801-5.755,7.688-11.048,12.72-16.08c3.16-3.159,6.719-5.853,9.84-9.359
		c3.044-3.421,6.88-6.404,9.12-10.08c2.199-3.608,2.583-8.899,2.88-14.4c0.296-5.486,0.761-10.987,1.68-15.6
		c2.039-10.235,3.642-19.598,0.48-29.521c-2.927-9.187-6.48-17.557-6.48-28.08c0-21.494,4.728-41.367,21.36-47.52
		c8.099-2.996,15.927-6.437,23.28-11.04c3.789-2.373,7.235-4.586,11.28-6c12.69-4.436,25.848-7.984,36.24-15.12
		c-2.696-3.864-5.114-7.52-7.2-12.24c-2.002-4.529-2.818-9.31-4.56-14.64c-0.403-1.233-1.229-2.373-1.68-3.6
		c-2.082-5.666-1.849-11.861-3.6-17.04c-0.827-2.445-3.792-4.995-4.56-7.92c-1.269-4.833-0.708-10.359,5.28-9.6
		c-0.749-6.942,0.166-13.106,1.2-19.44c1.24-7.592,2.188-13.093,6.96-16.8c1.45-1.126,3.171-1.665,4.56-2.88
		c8.098-7.083,20.824-16.157,34.56-17.28c10.896-0.89,20.831,2.316,28.56,6.72c6.99,3.982,13.954,9.966,17.76,17.28
		c2.059,3.958,3.128,9.763,4.56,14.64C8054.313,2068.521,8056.777,2073.59,8056.88,2081.27z M8047.76,2087.27
		c0.542-0.327-1.16-0.421-0.72-1.44c1.708-9.05,1.19-17.759,0.48-27.12c-0.261-3.437-0.184-7.446-0.96-10.08
		c-0.845-2.866-4.336-6.629-6.96-9.36c-7.472-7.777-21.979-14.403-35.04-14.16c-11.938,0.223-23.653,7.121-31.68,12.96
		c-2.318,1.687-6.531,4.726-7.2,6.721c-0.356,1.063-0.148,2.975-0.48,4.56c-1.427,6.815-2.531,16.094-1.92,24.48
		c0.257,3.533,1.729,6.945,1.44,10.08c-0.168,1.83-1.67,2.571-2.16,3.84c0.772,2.107,1.234,4.525,1.92,6.72
		c2.138-0.267,2.468-2.466,4.8-3.12c3.483-0.976,8.061,0.226,12.48-0.24c1.631-0.067-0.275-0.382-0.96-0.24
		c-2.438-0.441-5.609-0.15-6.96-1.68c1.032-8.092,15.325-6.535,18-0.96c-1.738,1.52-6.828,3.561-8.88,2.88
		c3.001,0.996,7.335-0.39,10.8,0.72c1.386,0.444,2.366,1.99,3.6,2.16c1.352,0.186,3.019-0.698,4.32-0.72
		c3.031-0.052,5.327,0.946,8.16,1.2c1.047-0.406,2.228-1.908,4.08-2.4c5.104-1.355,20.597-0.933,24,0.48
		c1.664,0.691,2.554,2.4,3.12,3.6C8044.209,2094.12,8046.198,2090.909,8047.76,2087.27z M7958.96,2050.55
		c-1.535,9.43-4.438,19.491-3.12,30.24c3.259,0.58,5.058,2.622,6.48,5.04c2.079-3.974-0.168-7.838-0.48-12.48
		c-0.693-10.335,1.045-20.7,2.4-28.32c-0.014-0.146-0.036-0.284-0.24-0.24C7962.214,2046.604,7960.629,2048.619,7958.96,2050.55z
		 M8048.72,2086.07c1.303-3.152,3.898-3.634,6.72-4.319c-0.247-10.419-4.669-18.673-6.96-27.84
		C8049.523,2064.756,8049.974,2076.248,8048.72,2086.07z M7950.8,2082.71c1.007-0.127,1.341,0.419,2.16,0.479
		c1.002,1.72,3.775,2.942,3.6,5.04c-2.652,0.248-2.92-4.975-6.48-3.84c-0.69,5.804,2.693,8.077,4.32,11.52
		c2.707,5.728,1.357,13.006,4.56,18.96c-0.938-10.902,1.153-24.833-2.88-32.64C7954.51,2081.716,7951.769,2081.412,7950.8,2082.71z
		 M8050.64,2095.91c4.847,3.602,1.315,12.064-1.92,14.64c-0.256,3.264-0.673,6.367-0.72,9.84c2.831-1.5,4.498-5.878,5.76-9.84
		c1.346-4.225,1.923-8.992,3.12-12.48c-0.065,0.565-1.063,0.147-0.96-0.24c0.356-1.986,1.603-4.178,2.4-6.48
		c0.701-2.022,2.298-5.219,0-6.72c-2.749,0.492-3.676,3.948-6.24,3.84c0.985-2.935,3.732-4.107,6.24-5.52
		C8051.033,2082.543,8051.3,2089.69,8050.64,2095.91z M8046.32,2093.03c1.753,0.275,0.896,0.99,0.96,1.44
		c0.406,2.834-0.812,7.406-1.68,10.56c-1.94,7.047-4.908,11.087-7.2,17.52c-1.125,3.158-2.52,6.573-4.08,8.4
		c-2.081,2.438-6.76,3.779-8.4,6c-0.929,1.258-0.932,3.447-1.68,4.8c-3.065,5.546-12.518,5.136-20.16,4.8
		c-8.225-0.362-16.733-0.131-20.88-3.6c-1.973-1.65-2.291-5.097-3.6-7.2c-1.928-3.097-6.271-4.639-6.96-7.92
		c-0.686-3.267,0.656-6.126,0.24-8.64c-0.54-3.258-2.045-7.486-4.8-9.36c-0.996-0.677-2.512-0.456-3.6-1.2
		c-1.246-0.852-1.945-3.744-2.4-6c-0.479-2.376-1.184-5.742,0.24-7.44c1.048,3.992,0.875,9.205,2.88,12.24
		c5.283,0.581,8.348,6.06,9.12,11.76c0.374,2.756-0.588,5.772-0.24,8.64c1.922,3.394,5.496,4.761,7.2,8.16
		c0.855,1.706,0.913,3.815,2.16,5.28c2.205,2.589,8.531,3.607,13.2,3.84c9.655,0.481,22.546,1.663,26.16-3.84
		c1.031-1.569,0.722-3.274,1.68-4.8c1.749-2.785,5.251-2.954,8.16-5.76c2.973-2.868,3.58-7.713,5.28-11.76
		c1.526-3.633,3.875-7.079,5.28-11.28c1.505-4.499,2.387-9.054,2.88-13.92c-1.544,1.692-3.791,2.624-4.56,4.56
		c-1.077,2.708-0.758,5.2-3.12,7.2c-3.307,2.801-10.156,2.582-15.84,2.16c-2.359-0.176-5.518-0.13-7.2-0.72
		c-3.582-1.256-5.27-6.444-6-11.04c-3.615-0.969-8.39-1.713-12.24-0.48c-0.896,3.318-1.605,6.983-3.12,9.12
		c-0.855,1.207-2.476,1.675-2.64,2.88c-0.334,2.456,2.587,2.662,4.32,3.84c2.195,1.493,2.981,3.938,5.04,4.56
		c5.87,1.772,10.364-3.215,12.48-6c0.656-0.863,0.629-2.532,2.16-2.64c0.15,2.822-3.084,6.087-5.28,7.92
		c-2.044,1.708-4.563,2.211-7.92,2.4c8.311,0.531,17.088-0.6,20.16,4.8c1.342,2.358,2.679,8.406-1.2,8.4
		c-2.244-0.004-3.405-4.075-6-5.04c-1.047-0.39-2.338-0.682-4.32-0.24c2.898,1.021,6.193,1.647,7.68,4.08
		c-5.213,3.377-12.454,6.354-21.6,5.04c-4.09-0.588-8.192-3.829-11.76-4.32c-0.363-0.339-0.758-1.166-0.24-1.68
		c-3.365,1.962-6.743-0.698-6.24-3.6c0.493-2.847,5.974-4.668,9.12-5.76c4.292-1.489,9.205-2.205,12.48-2.16
		c-2.25-0.57-3.709-3.478-6-4.8c-2.244-1.295-4.618-1.817-4.32-5.28c-5.557,0.812-13.013,0.333-18.24-0.24
		c-4.403-0.482-5.999-5.914-6.24-10.561c-0.507-0.532-1.976-0.104-2.16-0.96c-1.045-2.267-1.388-6.12-2.4-8.64
		c-0.491-1.224-1.72-3.225-2.64-2.88c3.208,9.835,1.226,23.906,1.92,34.08c0.367,5.386,2.953,11.461,5.28,16.319
		c2.464,5.145,5.647,9.178,9.12,12.721c7.647,7.802,15.143,14.301,28.32,15.12c13.778,0.856,24.107-7.328,30.48-14.16
		c2.984-3.199,6.118-6.64,7.92-11.76c0.778-2.209,1.882-4.6,2.88-6.96c0.951-2.251,2.663-5.116,2.88-7.2
		c0.081-0.775-0.449-1.593-0.48-2.4c-0.398-10.173,3.451-26.127,4.32-34.08C8049.165,2087.715,8047.86,2090.49,8046.32,2093.03z
		 M8060.96,2085.59c-0.016,2.271,0.413,0.196,0.24-0.96c-0.352-0.382-1.11-1.592-1.68-0.96
		C8060.294,2084.016,8060.585,2084.845,8060.96,2085.59z M7975.52,2088.71c1.516,0.088,3.548,0.926,4.8,0.479
		c-1.363-0.551-1.081-3.189-0.24-4.08C7977.435,2085.185,7976.256,2086.726,7975.52,2088.71z M7985.6,2089.43
		c1.594-0.406,3.237-0.763,4.32-1.68c-1.318-0.602-2.205-1.636-3.84-1.92C7986.687,2087.092,7986.068,2088.518,7985.6,2089.43z
		 M7984.4,2092.55c-7.244-0.039-16.018-1.343-17.76,2.88c0.775,3.378,0.527,8.26,4.32,9.6c3.181,1.124,13.297,1.378,17.04,0.96
		c5.964-0.667,6.485-5.993,7.68-10.8C7994.343,2092.596,7989.21,2092.576,7984.4,2092.55z M8010.8,2096.15
		c-0.791,3.349,3.484,8.715,5.28,9.36c3.227,1.16,11.04,1.256,14.88,0.96c5.481-0.422,10.126-3.51,9.12-9.12
		c-1.054-5.877-16.371-4.463-22.32-4.08C8015.007,2093.448,8011.398,2093.617,8010.8,2096.15z M8049.44,2107.19
		c2.062-2.091,3.376-6.854,0.96-9.6C8050.09,2100.642,8049.06,2104.249,8049.44,2107.19z M8019.44,2120.87
		c-3.056-2.196-8.841-1.305-14.88-1.68c-2.014-0.125-4.877-0.804-6.96-0.72c-4.37,0.177-17.764,3.768-17.52,7.44
		c0.324,4.883,9.612-2.051,10.56-2.4c3.706-1.361,9.041-0.623,14.16-0.24c3.961,0.296,8.582,0.041,11.04,0.96
		c2.752,1.028,2.919,4.289,5.76,4.8C8023.376,2126.676,8021.404,2122.281,8019.44,2120.87z M7990.88,2125.19
		c1.147-0.373,2.548-0.492,3.6-0.96C7992.973,2124.089,7990.989,2124.732,7990.88,2125.19z M8014.4,2128.31
		c-6.368-2.985-20.657-4.188-26.64,0C7996.863,2127.745,8006.014,2129.244,8014.4,2128.31z M7988.48,2129.99
		c5.962,3.379,20.344,5.2,25.92-0.24C8005.115,2130.805,7996.783,2128.671,7988.48,2129.99z M7800.08,2366.39
		c-1.31-0.038-3.821,1.83-4.8,2.4c-5.125,2.983-6.125,5.112-9.84,9.359c-2.621,2.997-7.275,7.308-3.6,12
		c1.776,2.268,4.373,1.715,4.8,4.32c0.375,2.283-1.219,4.828,0.24,6.72c1.138,1.476,4.314,1.052,6.24,2.16
		c1.88,1.082,2.134,3.817,3.84,5.04c1.315,0.942,3.171,0.75,4.56,1.68c1.457,0.976,2.28,4.269,4.08,5.28
		c1.137,0.64,3.675,0.943,5.52,0.72c5.823-0.706,11.496-4.17,15.84-6.96c4.826-3.099,8.135-7.193,12.24-10.56
		c3.961-3.249,9.909-5.12,14.88-7.92c5.024-2.83,8.905-6.062,14.16-8.64c10.484-5.146,20.537-9.387,28.8-16.801
		c5.038-4.52,10.196-13.031,15.84-18.24c2.46-2.27,4.981-4.059,5.76-5.76c0.927-2.023,1.128-6.377,1.44-9.84
		c0.342-3.807,1.072-7.629,0.96-10.56c-0.173-4.527-1.856-9.484-2.64-14.641c-1.899-12.487-1.799-27.659,0.24-40.08
		c0.426-2.594,1.574-5.518,1.44-7.2c-0.118-1.486-1.587-3.733-2.4-5.52c-0.873-1.917-1.792-4.128-2.64-5.52
		c-1.061-1.74-3.235-2.468-3.36-4.8c3.588,1.42,5.147,5.296,6.72,8.64c1.6,3.401,3.19,7.11,4.8,10.56
		c3.279,7.026,6.105,14.932,10.08,20.64c1.228,1.765,3.731,2.783,3.84,4.801c-5.027-1.86-6.976-7.398-9.12-12
		c-2.265-4.861-4.701-9.833-6.96-14.4c-6.931,26.633,0.547,55.006,5.52,78.48c1.503,7.098,4.375,12.905,3.84,20.88
		c-0.956,14.253-10.059,22.726-10.8,38.16c-0.164,3.401,0.63,6.493,0.48,10.319c-0.232,5.891-2.054,11.711-4.08,17.28
		c-1.693,4.654-5.128,12.351-4.32,17.28c0.86,5.247,9.362,8.65,14.64,10.8c18.47,7.523,39.843,12.619,62.88,13.92
		c25.271,1.428,49.23-2.106,69.12-7.2c6.654-1.704,13.666-3.191,17.28-8.399c-0.001-7.177-0.356-13.801-0.96-20.4
		c-0.599-6.538-2.272-13.157-1.68-19.68c0.111-1.228,0.611-2.351,0.72-3.601c0.951-10.901-1.222-21.604-3.84-31.439
		c-2.674-10.046-5.235-19.493-3.12-30.48c0.936-4.861,2.609-9.42,3.36-14.16c2.863-18.08,5.407-38.95,6.72-57.6
		c-1.588,2.274-1.894,5.775-2.88,8.88c-0.89,2.804-2.136,6.122-4.8,6.48c0.35-1.733,1.635-2.803,2.4-4.32
		c1.624-3.221,1.868-7.479,3.36-10.56c0.703-1.452,2.164-2.752,2.64-4.32c0.242-0.796-0.086-1.821,0.24-2.641
		c0.495-1.241,2.454-2.313,3.12-3.12c1.706-2.067,3.302-5.564,5.04-8.16c1.68-2.508,3.283-6.113,6.96-5.28
		c-1.214,1.606-3.056,2.105-4.319,3.6c-4.082,4.825-6.375,11.369-10.081,16.56c-1.279,17.251-3.477,37.38-6,54.72
		c-0.575,3.955-2.361,10.055-2.16,13.44c0.31,5.207,7.171,10.527,10.321,15.12c3.789,5.527,6.202,11.101,10.08,15.6
		c3.938,4.569,9.006,8.363,13.92,11.76c5.097,3.524,10.936,6.743,14.879,10.801c1.66,1.706,2.999,4.356,4.561,5.76
		c1.432,1.286,3.58,1.815,5.04,3.119c2.556,2.285,4.044,5.663,7.2,6.48c-0.359-2.069-2.017-6.041-0.48-7.68
		c1.142,1.642,1.109,3.69,1.439,5.52c0.989,5.471,2.606,11.491,6,15.12c1.188,1.27,3.002,2.188,4.561,3.36
		c1.508,1.133,3.008,2.473,4.561,3.6c2.713,1.969,7.286,6.184,10.56,5.76c1.98-0.256,3.425-3.12,6.24-3.6
		c1.269-0.216,2.785,0.324,3.84,0c2.104-0.646,2.899-3.609,5.04-4.08c2.184-0.48,3.001,0.823,5.04,0.48
		c1.325-0.224,2.667-1.406,3.12-2.4c0.633-1.391-0.27-2.62,0.72-4.08c1.216-1.795,5.156-0.827,7.2-2.16
		c3.44-2.244,1.898-8.211,0.72-12c-2.302-7.396-5.708-14.074-11.04-17.76c-5.194,2.131-13.711,0.759-14.16-4.08
		c-0.159-1.718,1.203-2.402,0.721-3.12c-7.37,1.259-15.159,4.427-14.16,12.48c0.987,0.261,1.953-1.562,3.84-1.2
		c1.557-2.398,3.066-5.055,6.24-5.28c2.436-0.173,5.566,1.897,8.16,3.36c4.628,2.61,7.844,5.209,9.6,10.56
		c0.619,1.889,1.951,5.257,0.72,6.48c-1.842-2.368-1.767-6.944-3.6-9.84c-0.587-0.928-2.368-2.81-3.36-3.601
		c-1.893-1.508-8.887-5.771-11.52-5.52c-2.453,0.234-3.628,2.336-4.801,4.32c3.441,2.143,6.012,5.154,8.641,8.159
		c1.646,1.883,4.208,4.692,2.64,7.2c-0.983-0.318-0.948-2.6-1.68-3.84c-0.827-1.402-3.596-4.168-5.28-6
		c-1.876-2.041-4.631-4.839-6.72-4.561c-2.079,0.277-3.096,3.101-3.841,5.28c4.648,2.884,6.993,10.218,8.881,15.84
		c0.482,1.439,1.717,3.425,0.48,4.561c-1.857-2.216-2.324-6.146-3.841-9.84c-1.173-2.857-3.017-8.061-5.28-8.641
		c-2.158-0.553-4.976,0.612-5.76,1.92c-1.497,2.499,0.296,6.416,1.44,9.601c1.651,4.594,3.894,12.802-1.44,11.76
		c0.495-1.434,1.62-1.24,1.92-2.88c1.32-7.206-10.404-19.864,1.92-21.601c0.136-2.024,1.178-3.143,1.68-4.8
		c-1.945-3.709,0.244-8.218,2.641-9.84c-2.988-2.786-4.654-6.458-7.199-9.36c-3.377-3.849-7.523-6.499-10.561-10.08
		c-3.229-3.806-4.644-8.684-7.439-13.439c-2.471-4.2-5.793-8.048-8.641-12c-2.887-4.007-5.73-8.082-8.641-12
		c-3.342-4.501-5.186-8.513-6.239-14.4c-1.089-6.089-0.224-12.048-0.24-19.439c-0.019-8.366-2.338-14.008-1.681-23.04
		c0.431-5.904,3.389-11.004,5.761-16.32c2.366-5.305,4.222-10.945,5.28-16.8c3.042-16.833,2.891-41.016-7.68-49.44
		c-4.643-3.7-11.845-5-17.281-8.64c-4.994-3.345-9.91-8.049-14.879-11.28c-5.33-3.466-11.067-6.361-16.8-9.12
		c-8.96-4.312-19.36-8.198-22.08-18.24c-7.977,8.411-16.587,19.524-32.16,20.64c-17.76,1.272-26.476-8.801-35.76-17.28
		c-1.57,2.019-2.041,1.926-3.36,2.641c-5.529,2.994-11.291,5.322-17.04,7.68c-5.918,2.426-12.25,3.706-18.48,6.24
		c-5.571,2.266-10.301,6.213-15.6,9.12c-2.701,1.481-5.561,2.779-8.4,4.08c-2.953,1.353-6.26,1.851-9.36,3.12
		c-12.764,5.225-18.444,20.721-19.44,37.68c-0.554,9.424,0.129,17.824,2.88,25.68c2.592,7.402,5.782,14.261,5.76,22.8
		c-0.02,7.676-2.365,14.393-3.6,23.28c-1.084,7.803-0.558,17.755-3.12,23.76c-1.09,2.556-3.949,5.017-6.24,7.44
		c-2.123,2.245-3.95,4.978-6,6.96c-2.333,2.257-5.221,3.868-7.44,6c-3.295,3.165-6.473,7.284-9.12,11.04
		c-2.762,3.918-5.073,9.167-8.4,12c-3.21,2.733-8.073,3.084-11.52,6c-2.521,2.132-3.231,5.626-6.72,7.2
		c0.637,0.88,1.875,3.187,0.72,4.319c-1.438-1.469-1.448-3.288-2.64-4.8c-2.738-3.473-7.55-5.151-10.8-8.16
		c0.733,1.953,2.213,3.373,2.16,5.761c-0.04,1.827-1.383,2.799-1.2,4.8c4.961-1.034,7.447,2.248,7.2,7.2
		c4.095,0.428,7.455,4.467,5.52,8.64c10.987,4.762-1.052,14.425-4.08,19.2c-0.943,1.487-1.019,3.801-2.88,3.84
		c-0.29-6.885,17.785-16.797,6-21.84c-4.227,3.525-9.519,7.898-13.44,12.24c-1.252,1.386-2.406,3.935-4.56,3.84
		c2.14-4.14,5.244-6.738,8.88-10.08c1.935-1.778,9.377-6.578,9.36-9.84c-0.01-1.902-2.411-4.54-4.8-4.561
		c-2.22-0.019-4.327,2.139-6.48,3.6c-4.464,3.031-7.301,6.262-10.56,9.841c-1.639,1.8-3.458,3.964-5.76,4.079
		c-0.134-1.449,1.407-1.739,2.16-2.399c0.902-0.791,1.367-1.749,2.16-2.64c3.41-3.831,6.396-6.773,11.04-9.84
		c2.023-1.337,5.771-3.246,6-5.521c0.169-1.688-1.265-4.179-2.88-4.56c-3.533-0.835-6.279,1.794-8.88,2.88
		c-5.635,2.352-7.824,4.385-11.28,8.159c-1.955,2.136-4.294,4.549-7.2,4.561c0.657-1.639,2.358-2.006,3.6-3.12
		c3.065-2.75,5.577-6.271,9.12-8.64c2.732-1.826,8.794-3.065,9.84-5.28C7806.43,2375.483,7804.054,2366.506,7800.08,2366.39z
		 M7804.64,2351.75c-3.981,0.842-6.372,3.945-6.24,7.68c0.196,5.566,6.772,7.638,9.12,10.8c4.17,0.222,7.397-1.685,6.96-5.28
		c-1.541,1.342-3.826,4.014-7.92,3.601c-1.036-1.845-1.9-3.86-2.64-6c1.381-1.579,3.403-2.517,5.76-3.12
		c1.647,1.072,2.564,2.876,4.08,4.08C7811.359,2358.951,7808.888,2354.462,7804.64,2351.75z M7809.2,2360.87
		c-1.216,0.625-2.471,1.21-3.6,1.921c0.371,1.628,1.229,2.771,1.68,4.319c2.488-0.152,4.386-0.895,5.28-2.64
		C7811.407,2363.303,7810.502,2361.887,7809.2,2360.87z M8188.641,2382.23c0.201-1.644-1.072-5.048-2.16-5.76
		c-3.734-2.445-8.033,1.947-10.32,3.84c2.385,0.337,4.916,0.803,5.04,2.88c0.077,1.289-1.72,3.838-3.36,4.08
		c-2.41,0.356-4.889-1.981-6.72-2.64C8173.553,2392.971,8187.956,2387.797,8188.641,2382.23z M8172.32,2383.19
		c0.82,1.82,3.418,1.861,5.279,2.641c0.962-0.719,1.803-1.558,2.16-2.881C8177.93,2381.303,8173.938,2381.505,8172.32,2383.19z"/>
</g>
<text transform="matrix(1 0 0 1 8316.333 2034.4307)" font-family="'LinLibertineB'" font-size="17">Wide scope</text>
<text transform="matrix(1 0 0 1 8317.333 2510.4302)" font-family="'LinLibertineB'" font-size="17">Narrow scope</text>
<text transform="matrix(1 0 0 1 8166.333 2149.4307)" font-family="'LinLibertineB'" font-size="22">Layering</text>
<text transform="matrix(1 0 0 1 7766.333 2438.4302)"><tspan x="0" y="0" font-family="'LinLibertineB'" font-size="22">Left-to-right</tspan><tspan x="0" y="26.4" font-family="'LinLibertineB'" font-size="22">concatenation</tspan></text>
<text transform="matrix(1 0 0 1 8113.333 2461.4302)"><tspan x="0" y="0" font-family="'LinLibertineB'" font-size="22">Right-to-left</tspan><tspan x="0" y="26.4" font-family="'LinLibertineB'" font-size="22">concatenation</tspan></text>
</svg>
