<?xml version="1.0" encoding="utf-8"?>
<!-- Generator: Adobe Illustrator 15.0.0, SVG Export Plug-In . SVG Version: 6.00 Build 0)  -->
<!DOCTYPE svg PUBLIC "-//W3C//DTD SVG 1.1//EN" "http://www.w3.org/Graphics/SVG/1.1/DTD/svg11.dtd">
<svg version="1.1" id="Layer_1" xmlns="http://www.w3.org/2000/svg" xmlns:xlink="http://www.w3.org/1999/xlink" x="0px" y="0px"
	 enable-background="new 0 0 16157.48 4535.43"
	 xml:space="preserve">
<g>
	<path fill-rule="evenodd" clip-rule="evenodd" d="M7581.714,1707.099c7.887-2.799,12.645,1.013,15.223,7.2
		c1.054,2.53,3.061,6.381,3.086,8.846c0.049,4.753-4.906,7.99-2.674,13.783c1.107,2.874,5.013,7.224,1.852,9.257
		c-2.78,1.788-4.496-1.811-7.406-2.88c-2.034-0.747-3.149-0.325-5.349-0.822c0.189,1.784,1.68,2.015,2.468,4.114
		c2.392,6.366,2.856,15.568,11.52,15.84c1.261-0.356-0.535-3.533,1.852-3.703c3.067-0.218,1.803,7.068,2.88,9.875
		c2.962,1.96,12.179,2.961,12.549,7.611c0.23,2.893-2.012,4.477-3.703,6.377c-1.724,1.937-2.702,4.002-4.937,4.937
		c0.742,1.659,1.291,3.509,1.852,5.349c0.827-0.441,1.643-1.691,2.468-2.674c0.881-1.049,1.615-2.211,2.674-2.88
		c-0.859-4.455,4.47-7.073,8.229-4.526c1.95-1.912,3.696-4.334,5.76-6.583c1.884-2.052,3.91-4.799,6.171-6.171
		c6.162-3.74,14.476,0.325,16.457,5.143c4.83,11.743-4.589,22.108-9.463,29.417c-4.861,7.29-9.049,13.966-12.548,20.571
		c12.809,10.632,28.762,19.727,46.491,24.686c9.782,2.736,21.354,4.114,31.886,2.88c10.005-1.173,19.214-4.396,26.949-8.64
		c14.737-8.085,26.418-21.366,34.354-36.823c3.978-7.748,7.298-16.083,9.257-26.332c1.421-7.437,2.872-14.406,4.32-22.217
		c0.478-2.577,0.214-6.458,2.674-5.76c2.88,0.817-0.026,6.237,0,8.64c4.784,5.092,11.125-1.063,12.754-6.377
		c0.574-1.873,1.053-4.359,1.44-6.789c0.391-2.451,1.268-5.252,1.234-6.994c-0.022-1.156-0.72-1.81-0.823-3.085
		c-0.193-2.397,0.514-4.457,0.206-6.583c-0.803-5.536-3.233-11.825-4.525-17.074c-1.738,1.828-2.396,4.735-3.498,7.2
		c2.082,4.927,3.06,12.876,1.029,18.514c1.711-0.115,5.62-1.489,5.966,0.823c0.352,2.354-2.741,1.569-4.526,2.468
		c-1.256,0.656-0.961,4.766-3.703,4.114c-2.262-0.538-1.749-4.454-1.234-6.994c0.92-4.544,1.728-8.372,0.617-13.372
		c-0.417-1.879-1.422-3.817-1.44-5.349c-0.038-3.252,3.19-8.805,4.731-10.902c2.467-3.359,6.097-5.269,10.697-4.526
		c-0.731-1.706-2.729-3.294-5.349-4.319c-1.938-0.76-7.334-0.466-7.2-2.88c0.158-2.833,6.845-0.637,8.023-0.206
		c4.384,1.605,8.813,5.255,9.463,10.491c0.603,4.863-0.585,9.934-1.44,14.194c-1.561,7.774-3.72,17.779-5.143,26.126
		c-1.32,7.737-3.725,14.263-10.903,16.457c-2.333,0.713-4.603,0.201-6.994-1.029c-3.302,17.544-6.614,35.078-15.018,47.52
		c-0.693,18.096-1.877,35.7-2.674,53.691c6.642,4.507,11.468,10.113,14.811,17.897c3.231,7.523,5.859,15.986,8.229,24.479
		c6.564,1.672,12.404,2.515,16.458,5.966c2.947,2.509,4.404,7.431,8.023,8.846c3.167,1.238,7.602,0.552,11.108,0.412
		c8.188-0.327,15.032,0.601,20.16,3.497c2.568,1.451,4.905,3.125,7.611,4.115c5.184,1.895,11.412,0.485,16.663,2.88
		c2.396,1.092,3.329,3.22,5.76,4.32c1.855,0.839,4.563,0.934,6.789,1.44c15.135,3.439,30.332,6.813,42.171,14.194
		c6.302,3.929,12.438,8.755,18.926,13.371c6.408,4.56,12.337,9.229,16.869,15.223c4.459,5.9,6.908,13.901,9.668,22.628
		c5.199,16.438,11.997,31.034,14.605,49.989c1.285,9.333,1.579,19.201,2.263,29.829c2.569,39.927,12.745,72.326,17.485,111.497
		c2.297,18.984,3.497,39.648,3.497,61.097c0.001,15.318,0.306,31.591-0.617,47.314c-0.127,2.162-0.279,4.737-0.823,7.2
		c-0.375,1.697-1.813,5.264-1.234,6.788c0.297,0.786,3.396,1.967,4.937,3.086c1.978,1.438,4.08,3.248,4.937,5.349
		c0.608,1.491,0.677,3.921,1.44,5.349c1.397,2.612,4.362,4.776,6.789,7.406c2.327,2.521,5.479,5.557,5.554,8.846
		c0.063,2.744-2.496,3.041-3.085,5.554c-0.991,4.222,0.163,9.114-1.646,12.96c-1.866,3.97-5.24,5.066-9.874,5.966
		c3.807,9.307,5.035,19.955,6.583,30.857c4.592,32.345,7.757,68.375,9.051,103.269c1.666,44.903,0.11,92.522-2.469,136.183
		c-0.1,1.696,0.261,7.309-1.851,7.406c-2.738,0.126-1.345-5.535-1.234-7.406c2.549-43.37,4.241-91.392,2.263-136.389
		c-1.55-35.251-4.41-69.964-9.051-103.269c-1.511-10.84-3.033-23.002-6.995-30.445c-0.627-1.18-4.124-2.425-5.965-3.086
		c-2.136-0.766-4.578-1.51-6.583-1.646c-4.707-0.32-9.466,2.189-12.754,3.702c-7.652,3.522-15.097,7.767-23.863,9.258
		c-5.252,0.894-10.082,1.119-14.605,2.057c-12.943,2.686-25.089,9.022-41.76,6.789c16.695,89.045,36.795,174.718,58.834,259.2
		c0.313,1.2,2.444,6.797,0.411,7.611c-2.356,0.943-2.908-4.118-3.497-6.377c-21.696-83.168-41.729-168.555-58.423-256.526
		c-2.354,6.219-4.595,13.467-6.583,20.572c-0.634,2.269-1.74,4.982-1.851,6.994c-0.205,3.697,1.734,9.947,2.468,13.988
		c2.525,13.898,6.186,27.16,9.463,39.497c4.64,17.465,7.798,36.368,11.314,53.897c3.586,17.876,6.735,36.103,9.257,56.16
		c1.21,9.625,2.927,18.894,5.554,27.154c1.744,5.482,3.909,12.586,3.908,20.571c0,2.09,0.468,6.311-1.646,6.377
		c-2.145,0.066-1.646-4.116-1.646-6.377c0-7.11-2.038-14.338-3.703-19.749c-2.56-8.318-4.316-16.696-5.554-25.92
		c-1.229-9.161-2.305-18.794-3.703-27.771c-1.415-9.088-3.239-17.891-4.938-26.331c-3.608-17.938-6.963-35.27-10.903-52.046
		c-3.949-16.814-9.254-33.163-11.726-51.018c-1.182,2.646-1.804,6.885-2.674,11.109c-0.476,2.311-1.289,10.348-3.703,9.668
		c-2.083-0.586-1.014-3.994-0.412-6.994c0.517-2.576,1.211-5.319,1.646-7.2c1.271-5.507,3.03-10.69,3.498-14.399
		c0.144-1.145-0.437-2.773-0.206-3.909c0.277-1.36,1.439-1.417,2.057-2.674c0.599-1.218,0.762-3.262,1.234-4.938
		c6.755-23.962,16.208-45.71,21.188-71.383c2.606-13.436,4.019-28.551,5.143-44.229c2.205-30.756,2.251-63.047,3.703-95.04
		c1.433-31.564,2.497-63.004,3.497-95.246c0.373-12.027,0.447-29.55,4.731-38.469c0.219-0.456,1.424-3.708,3.292-2.468
		c1.658,1.1-1.615,6.947-2.057,8.64c-2.412,9.227-2.302,22.759-2.674,32.709c-0.586,15.662-1.055,29.859-1.646,45.668
		c1.668-2.187,4.834-5.94,5.143-10.285c0.275-3.869-0.765-7.428,0.617-10.697c0.904-2.138,2.382-4.013,3.703-5.555
		c1.046-1.22,2.756-4.108,5.349-3.085c1.239,2.387-1.477,3.595-2.674,4.937c-1.317,1.476-3.179,3.707-3.703,5.966
		c-0.688,2.972,0.311,6.018,0,9.052c-0.485,4.741-3.54,9.163-5.965,12.548c-0.89,1.242-2.317,2.297-2.674,3.497
		c-0.833,2.8-0.226,7.318-0.412,11.314c-2.547,54.783-2.025,116.654-9.257,166.012c14.377-0.28,29.893-1.531,44.435-2.88
		c14.499-1.345,28.988-2.181,39.292-8.229c0.331-1.977-1.073-2.219-1.234-3.703c3.816-14.886,3.499-32.776,3.497-50.605
		c-0.001-17.53-0.685-35.749-1.852-52.046c-2.431-33.968-8.925-63.46-14.4-93.6c-3.403,48.476-2.68,100.152-11.52,144.205
		c-0.443,2.207-1.137,7.339-3.085,7.2c-2.965-0.21-0.307-7.051,0-8.64c1.803-9.344,3.53-20.55,4.525-29.829
		c3.215-29.965,4.014-55.637,5.349-85.988c0.316-7.183,0.755-14.515,1.029-21.806c0.275-7.342,1.074-14.827,0.823-22.012
		c-0.178-5.091-1.249-10.463-1.646-15.84c-1.175-15.91-1.444-33.318-4.731-47.108c-2.136-8.962-5.179-17.742-8.229-26.332
		c-3.115-8.774-5.458-17.828-8.846-25.714c-3.413-7.946-9.278-13.637-15.84-18.72c-6.201-4.803-13.557-9.86-20.16-14.4
		c-7.164-4.926-14.637-8.31-23.657-10.902c-4.356-1.252-9.088-2.376-13.783-3.498c-4.553-1.088-9.584-1.64-13.988-3.292
		c-2.724-1.021-4.154-3.756-6.583-4.731c-4.447-1.785-10.159-0.895-14.812-2.057c-2.875-0.718-5.336-2.47-8.023-4.114
		c-5.211-3.19-11.703-3.975-20.366-3.703c-4.358,0.137-9.833,0.73-12.96-1.028c-3.356-1.888-4.765-6.021-7.611-8.641
		c-3.545-3.263-7.762-3.459-13.372-5.348c0.187,3.249,2.523,7.625,3.086,11.726c1.157,8.434-2.456,19.308-4.937,25.303
		c-6.021,14.544-14.394,25.751-23.657,37.646c-2.121,2.723-4.351,5.379-6.995,8.434c-1.801,2.081-5.458,7.184-8.022,7.2
		c-2.247,0.014-5.045-3.684-6.377-5.348c-5.19-6.485-9.499-13.882-14.812-19.955c4.103,25.97,3.702,55.868,3.703,84.755
		c0.001,29.32-0.001,59.323,0,88.457c0.006,116.34,5.038,234.783,0.206,349.508c-1.173,27.85-2.684,55.695-3.497,84.961
		c-0.689,24.813,0.174,50.251,4.526,72.205c0.363,1.834,2.577,7.774,0.206,8.229c-2.386,0.457-3.241-6.526-3.497-7.816
		c-1.922-9.697-3.116-19.921-3.909-29.623c-2.431-29.739-0.327-58.158,1.029-86.605c2.033-42.657,3.908-85.487,3.908-130.218
		c0-89.179-2.268-176.553-2.263-265.783c0.002-43.945-0.156-89.25-0.617-133.303c-0.073-7.028-0.501-14.227-1.234-21.188
		c-0.735-6.979-1.268-14.065-3.085-19.131c-1.077-3.001-4.853-6.36-7.2-9.258c-2.405-2.969-4.581-6.034-6.994-8.434
		c-9.064,2.009-19.302,5.193-20.777,15.428c-0.909,6.31,0.589,13.878,1.646,20.572c1.057,6.694,2.022,13.413,2.468,19.954
		c0.955,14.01,0.4,29.976,0.617,44.229c0.448,29.321,1.646,58.927,1.646,88.046c0,43.962,1.313,89.445-0.617,133.303
		c-1.307,29.696-2.089,58.183-0.823,88.251c0.617,14.665,0.617,29.573,0.617,44.229c0,29.514-1.05,58.532-2.057,87.635
		c-0.984,28.451-2.264,57.628-2.263,87.429c0.001,27.094,1.386,49.35,5.76,72.822c0.422,2.266,2.334,8.079,0.411,8.641
		c-2.814,0.821-3.125-5.839-3.497-7.817c-4.219-22.47-5.967-47.064-5.966-73.028c0.001-29.886,1.696-59.359,2.263-88.046
		c0.574-29.015,2.057-58.477,2.057-88.251c0-29.657-1.132-59.577-0.823-89.075c0.304-29.008,1.853-58.611,1.852-88.457
		c-0.001-29.81,0.25-59.797-0.206-89.691c-0.225-14.737-0.617-29.769-0.617-44.64c0-14.792-0.951-29.471-1.029-44.023
		c-0.081-15.176,0.43-29.993-0.823-44.229c-1.21-13.761-5.207-27.002-3.497-40.319c-7.213,7.405-14.802,15.964-20.777,26.331
		c-1.891,3.281-3.79,7.274-6.789,8.846c-4.317,2.263-7.834-2.264-10.491-5.143c-4.901-5.311-7.975-9.064-12.548-15.223
		c-1.212-1.631-4.414-7.347-5.966-7.406c-2.755-0.104-4.135,5.523-5.143,8.023c-3.873,9.601-10.472,15.82-17.074,22.423
		c-6.467,6.467-13.065,13.447-20.777,18.72c-2.676,1.83-5.396,3.359-7.405,5.554c-8.242,9.003-13.064,22.389-19.543,32.915
		c-6.79,11.03-13.172,22.748-18.926,33.531c-11.985,22.462-23.791,44.678-34.766,70.148c-8.934,20.732-17.256,43.912-25.714,66.24
		c-1.194,3.15-3.355,7.275-3.497,9.463c-0.112,1.717,0.727,3.905,1.028,5.965c1.806,12.34-0.994,26.119-4.731,35.382
		c-0.672,1.666-1.809,3.182-2.057,4.732c-0.546,3.41,0.081,7.75,0.206,11.726c0.825,26.297,1.67,53.784,3.291,79.405
		c0.892,14.092,2.902,28.647,3.909,43.406c2.106,30.89-3.102,59.166-4.526,89.074c-0.742,15.588,0.121,31.201-0.617,46.697
		c-1.343,28.203-4.962,53.089-11.52,77.143c-0.768,2.815-1.367,3.388-2.469,3.291c-2.714-0.237-0.184-7.095,0.206-8.64
		c5.485-21.774,9.307-45.497,10.492-70.972c0.695-14.94-0.054-30.613,0.617-45.874c1.306-29.699,6.062-57.063,4.731-87.84
		c-0.625-14.437-2.634-28.7-3.703-42.789c-2.213-29.171-2.461-58.608-3.909-89.074c-2.833,2.687-4.519,6.52-9.051,7.817
		c-2.011,0.576-4.385,0.129-6.583,0.617c-2.789,3.779-2.377,6.895-5.965,9.051c-2.716,1.633-6.138,2.971-9.669,3.703
		c-1.175,0.244-2.658-0.031-3.908,0.412c-1.493,0.529-3.661,3.249-5.143,4.73c-4.854,4.855-10.471,9.634-14.812,14.4
		c-6.404,7.033-12.058,14.369-17.897,20.982c-5.823,6.596-12.548,14.391-22.012,17.075c-9.536,2.704-22.49,4.537-34.148,1.439
		c-15.32-4.069-22.935-15.805-30.034-28.594c-2.414-4.349-4.631-7.429-5.76-13.577c-1.127-6.139-1.194-12.104-0.206-18.104
		c0.864-5.248,3.496-9.104,4.937-14.399c2.028-7.454,0.837-18.087,1.029-27.771c0.061-3.06,0.788-6.461,0.412-9.257
		c-0.266-1.975-1.522-3.592-2.057-5.143c-1.984-5.744-0.983-12.918,1.028-17.897c1.413-3.497,2.351-7.71,4.114-10.286
		c2.016-2.945,4.32-4.149,7.2-6.994c1.695-1.675,3.003-5.819,4.32-8.229c8.518-15.594,19.904-26.164,33.12-37.646
		c1.536-1.334,5.557-3.86,6.171-5.554c1.373-3.789-0.21-8.861-1.029-12.137c-3.076-12.314,1.737-22.326,7.612-30.446
		c3.838-5.306,7.852-10.335,11.52-15.634c3.641-5.259,7.167-10.638,11.314-15.635c4.433-5.341,8.939-9.048,10.903-16.251
		c1.932-7.086,2.319-14.699,3.497-23.452c0.998-7.412,3.179-15.393,4.115-22.834c0.566-4.505,0.352-8.496-0.617-12.137
		c-0.801-3.008-3.269-7.299-2.88-10.492c0.266-2.186,3.669-4.251,5.76-5.966c6.378-5.23,13.444-10.283,20.366-14.4
		c5.022-2.988,10.015-5.579,14.605-8.64c4.695-3.131,8.981-6.641,13.372-9.875c9.141-6.732,20.114-10.95,32.091-14.399
		c12.044-3.469,24.304-7.741,36.412-10.08c5.316-13.879,6.839-30.167,10.08-45.257c1.623-7.554,3.804-14.662,6.377-21.188
		c2.69-6.823,5.747-11.918,10.697-16.869c4.717-4.717,9.794-8.886,14.194-13.577c4.463-4.759,8.717-9.678,12.548-15.017
		c5.829-8.124,10.765-16.581,17.486-23.863c2.077-2.25,4.972-4.032,6.377-6.994c-15.677,1.726-20.762-23.767-8.434-30.446
		c-0.229-2.87,1.216-5.53,0-8.64c-8.089,0.258-11.284-5.321-13.577-11.52c-0.776-2.097-1.043-4.47-1.852-6.377
		c-0.674-1.588-2.516-2.664-2.88-4.32c-0.352-1.6,0.102-3.973-0.206-5.76c-1.162-6.742-3.708-14.839-4.114-23.451
		c-0.161-3.406-0.894-7.207-0.206-9.463c1.32-4.33,9.719-7.293,14.4-7.405c1.75-0.042,2.786,0.119,2.88,1.439
		c0.146,2.044-2.886,1.854-4.938,2.263C7587.427,1702.045,7582.446,1703.379,7581.714,1707.099z M7596.526,1742.276
		c-1.069-2.185-2.765-4.141-3.086-6.994c-0.596-5.306,3.294-8.884,3.292-12.137c-0.001-1.531-1.646-4.587-2.469-6.583
		c-0.883-2.143-1.97-4.921-3.292-5.965c-2.441-1.93-6.201-1.001-9.051,0.411c0.489,6.574,0.897,13.229,2.674,18.514
		c0.666-2.463,0.981-4.523,2.263-6.994c0.591-1.138,2.785-5.146,4.731-4.731c3.202,0.681-0.697,4.275-1.234,5.143
		c-2.4,3.877-3.421,11.688-4.114,16.868C7590.14,1738.559,7594.647,1740.869,7596.526,1742.276z M7799.36,1711.213
		c1.703,6.32,3.642,12.404,5.143,18.925c1.216-6.326,2.991-12.095,2.674-19.954
		C7804.299,1709.726,7801.086,1709.552,7799.36,1711.213z M7632.937,1786.504c0.564,1.751,3.062,3.848,5.349,3.703
		c2.416-0.154,5.482-3.577,6.789-4.938c1.41-1.468,4.809-4.592,4.937-6.788c0.261-4.472-6.051-7.06-9.668-6.377
		C7635.852,1772.952,7631.004,1780.504,7632.937,1786.504z M7606.194,1776.424c-3.057,2.283-6.849,5.008-7.406,9.875
		c-0.833,7.283,3.205,14.168,10.286,14.4c0.307-0.722,0.234-1.823,0.412-2.674c-8.228-0.517-9.956-15.271-2.469-17.897
		c0.467,0.905,0.239,2.504,1.029,3.086c1.619-2.358,3.84-4.114,5.348-6.583c-2.742-0.961-5.179-2.227-7.817-3.292
		C7605.688,1774.463,7606.056,1775.329,7606.194,1776.424z M7627.588,1784.447c0.756,0.067,1.138,0.507,1.852,0.617
		c-0.133-0.964,0.269-2.463-0.206-3.085C7628.93,1783.046,7627.893,1783.38,7627.588,1784.447z M7632.526,1791.236
		c-2.708,2.281-4.505,7.327-8.023,8.64c-0.978,0.365-2.106,0.138-3.086,0.617c0.27,2.295,0.442,3.936,1.646,4.938
		c1.309,1.09,2.832,0.844,3.908,1.646c1.846,1.375,2.885,5.095,1.646,7.611c-3.425,6.961-15.67,0.935-17.074-5.348
		c-3.542,2.504-6.667,6.077-9.668,9.668c-3.016,3.609-5.679,7.616-8.229,11.52c2.32,0.78,3.839,2.89,6.583,3.703
		c2.046,0.606,6.716,0.063,6.583,2.469c-0.147,2.647-6.689,1.071-8.435,0.411c-2.822-1.067-4.36-3.013-6.583-4.114
		c-7.783,13.024-19.222,23.607-30.035,33.532c-3.805,3.493-6.322,7.411-8.64,12.548c-7.612,16.878-9.785,39.739-14.606,59.657
		c-0.883,3.651-2.417,7.114-2.468,10.697c-1.888,1.772-2.664,4.538-3.703,7.2c-5.244,13.434-9.057,24.556-17.074,35.177
		c-8.78,11.631-16.218,23.154-24.068,35.589c-7.673,12.152-16.101,23.567-24.686,34.972c-8.578,11.396-16.477,23.313-25.097,34.766
		c-8.198,10.891-17.857,21.559-27.977,31.68c-9.996,9.997-19.873,20.245-30.034,29.623c-10.029,9.256-21.115,18.369-31.68,27.977
		c-7.702,7.004-15.179,14.919-20.571,24.274c-2.358,4.091-4.641,7.821-5.966,12.138c-3.577,4.66-6.126,11.327-7.817,18.72
		c-1.661,7.259-2.667,15.505-3.086,23.657c-0.709,13.822,1.188,27.313-2.263,37.234c-1.15,3.309-2.873,6.245-3.703,9.668
		c-1.952,8.048-0.721,19.792,1.852,25.715c0.598,1.377,1.754,2.569,2.674,4.114c0.822,1.38,1.456,3.071,2.263,4.525
		c8.251,14.864,19.307,26.89,42.583,25.304c7.924-0.541,17.833-2.013,23.04-5.35c4.794-3.071,9.723-8.797,13.989-13.576
		c4.422-4.956,8.623-10.313,12.548-15.018c8.472-10.153,18.762-18.554,27.36-27.771c4.593-4.924,9.012-9.445,12.96-14.605
		c3.987-5.21,7.604-10.72,10.903-16.663c6.571-11.837,12.132-24.537,17.075-38.263c11.454-27.434,20.623-56.355,32.708-82.903
		c11.874-26.084,25.665-51.373,39.085-76.525c7.067-13.246,14.615-24.261,20.777-37.028c3.109-6.442,6.914-12.674,11.52-17.28
		c2.453-2.453,5.275-4.09,8.229-6.171c2.71-1.91,5.191-4.46,7.817-6.789c4.727-4.19,10.013-8.872,14.812-13.989
		c4.757-5.072,9.848-9.912,12.549-16.457c2.847-6.9,5.755-13.703,8.64-20.366c1.442-3.331,3.027-6.688,4.938-9.463
		c1.848-2.685,5.094-5.285,6.377-8.229c0.81-1.859,0.249-8.255,2.88-7.817c3.128,0.521,0.146,9.217-0.617,10.492
		c-1.594,2.665-3.53,3.537-4.731,5.965c1.994,0.1,3.542,0.774,3.292,2.263c-0.368,2.185-3.555,0.803-5.554,0.617
		c-1.11,2.181-2.179,4.403-3.085,6.789c-0.228,1.272,1.352,1.928,0.617,3.291c-0.568,1.055-1.508,0.438-2.469,1.029
		c-0.62,0.957-1.026,2.128-1.44,3.291c5.734-2.779,9.592-6.101,13.783-10.697c2.627-2.881,9.136-9.598,9.051-15.429
		c-0.04-2.75-2.047-6.018-3.497-8.434c-3.29-5.483-6.084-9.375-10.286-13.577c-0.833-0.833-6.4-4.175-5.349-6.171
		c1.024-1.944,3.215,0.105,4.114,0.823c4.283,3.417,6.771,6.42,9.875,10.08c2.276-3.641,5.099-5.774,4.525-10.697
		c-0.71-6.106-9.36-10.38-15.634-13.166c-2.821-1.253-6.366-2.522-9.462-3.908c-1.959-0.877-8.989-4.568-5.555-6.377
		c1.368-0.72,2.768,1.292,4.114,2.057c4.611,2.62,9.671,3.612,13.989,5.76c2.636-5.345,8.379-12.833,5.143-19.337
		c-2.604-5.235-12.923-8.251-19.955-9.463c-6.093-1.051-13.831-1.278-19.543-2.469c-0.912-0.19-5.097-0.499-4.731-2.674
		c0.289-1.715,2.601-1.226,4.32-0.823c10.366-21.729,19.695-43.228,32.297-62.125c4.231-6.345,9.25-12.362,11.52-19.955
		c0-0.137,0-0.274,0-0.411c-0.012-0.125-0.031-0.244-0.206-0.206C7646.792,1788.695,7639.758,1797.064,7632.526,1791.236z
		 M7621.211,1789.384c-7.898,2.493-9.691,15.072-3.909,21.188c1.503,1.59,4.22,3.525,7.2,2.469c1.305-2.59-0.825-2.273-2.88-3.291
		c-6.042-2.993-6.007-15.113,0.411-17.075c0.11,1.125,0.479,1.99,0.617,3.086c1.86-1.364,3.995-4.233,5.76-6.377
		c-2.711-0.991-5.088-2.317-7.817-3.291C7620.653,1787.337,7621.116,1788.177,7621.211,1789.384z M7702.469,1856.447
		c-15.661,0.586-29.899-3.793-41.76-9.051c-11.975-5.309-22.552-11.885-31.886-18.926c-0.524,2.797-3.379,4.971-3.703,8.022
		c-0.243,2.29,0.696,5.363,1.028,8.229c0.95,8.191,1.998,17.384,2.88,25.097c8.419,2.264,17.597,4.253,20.777,11.314
		c3.656,8.119-2.636,16.194-5.143,22.011c3.887,2.484,9.225,5.508,11.52,10.08c2.104,4.189,1.079,9.831-1.646,13.372
		c8.942,5.952,18.381,12.916,29.211,17.074c3.645,1.399,7.739,2.545,10.903,4.525c1.537,0.962,2.681,3.104,4.32,3.909
		c1.431,0.702,3.103,0.519,4.32,1.234c2.442-0.918,5.096-1.624,8.023-2.057c22.634-15.903,46.659-30.415,60.48-55.132
		c-3.504-3.793-4.354-9.371-5.143-15.84c-0.494-4.05-1.345-8.299-1.646-12.137c-0.299-3.815,0.429-8,0.617-12.138
		c0.551-12.13,1.247-25.435,1.851-36.822c-0.012-0.126-0.031-0.244-0.206-0.206
		C7753.64,1838.617,7733.938,1855.269,7702.469,1856.447z M7610.309,1867.556c4.54,1.151,10.642,0.74,15.429,1.646
		c-1.296-9.059-1.993-18.716-3.497-27.565C7618.372,1850.384,7613.928,1858.559,7610.309,1867.556z M7772,1890.596
		c0.699,1.523,3.453,3.721,3.497,5.349c0.029,1.068-1.539,3.24-2.468,4.731c-14.001,22.456-36.896,37.682-57.806,51.84
		c6.083,7.78,12.412,15.368,18.515,23.246c6.098,7.873,11.421,16.453,18.309,23.657c9.233-8.994,17.323-20.018,25.097-32.091
		c3.655-5.676,7.374-11.343,10.286-18.309c2.405-5.755,5.844-15.726,5.143-23.657c-0.188-2.129-1.32-4.792-2.057-7.406
		c-4.783-16.964-9.219-37.94-21.6-46.285C7770.101,1876.972,7769.75,1885.692,7772,1890.596z M7681.486,1946.344
		c-10.988-4.232-19.814-11.252-28.8-17.074c-0.649,0.174-0.585,1.061-1.234,1.234c2.339,5.39,8.039,10.393,6.171,17.691
		c-1.348,5.269-5.493,10.143-9.257,14.194c-4.029,4.337-8.457,8.424-12.754,10.697c4.913,7.336,10.314,14.106,16.251,20.777
		c1.477,1.659,4.375,6.019,6.583,5.965c1.822-0.043,3.836-3.53,4.937-5.348c1.653-2.731,2.85-4.851,3.909-6.583
		c7.924-12.965,19.453-22.928,28.389-33.943C7692.655,1949.744,7686.596,1948.313,7681.486,1946.344z M7472.48,2048.996
		c7.598-9.822,14.066-20.508,20.777-31.063c6.655-10.466,13.829-20.396,21.188-30.651c7.521-10.481,11.342-22.784,16.457-35.589
		c-0.046-0.159-0.006-0.405-0.206-0.411c-11.26,2.555-22.876,6.663-34.766,10.08c-11.62,3.34-21.679,7.058-30.446,13.577
		c-4.183,3.11-8.188,6.448-12.549,9.463c-4.252,2.939-8.933,5.48-13.783,8.229c-6.785,3.843-13.477,8.365-19.749,13.371
		c-1.921,1.533-5.54,3.857-5.76,5.349c-0.16,1.083,0.776,3.317,1.234,5.143c6.563,26.167,22.048,44.265,35.794,62.538
		C7457.43,2068.548,7464.938,2058.745,7472.48,2048.996z M7411.794,2059.899c-1.183,9.413-1.548,19.277-5.143,26.331
		c-2.617,5.137-7.625,9.932-11.52,14.812c-3.962,4.965-7.766,10.415-11.108,15.223c-3.395,4.883-7.444,9.929-11.109,15.223
		c-3.696,5.34-6.964,12.729-6.789,19.543c0.131,5.081,3.055,10.612,2.469,16.045c14.627-12.356,28.582-26.162,41.966-40.32
		c13.379-14.153,27.356-28.037,37.852-44.846c-11.727-15.428-23.373-30.936-31.886-49.577
		C7415.045,2041.503,7413.022,2050.125,7411.794,2059.899z M7312.023,2254.504c0.664-9.142,3.057-17.651,5.349-24.48
		C7314.583,2236.58,7308.953,2246.047,7312.023,2254.504z M7460.137,2282.482c-5.853,10.198-12.92,18.88-20.16,27.154
		c-0.31,0.354-1.395,0.68-1.028,1.439c3.205-1.417,6.666-1.488,9.051-4.319c2.307-2.739,2.213-6.787,5.349-8.023
		c2.119-0.835,5.056-0.028,7.2-0.822c3.427-1.271,6.147-5.785,8.023-8.846c6.567-10.716,9.791-24.634,8.229-41.349
		c-0.011-0.125-0.031-0.244-0.206-0.206C7471.688,2259.568,7466.384,2271.597,7460.137,2282.482z M7954.469,2380.402
		c9.024-1.157,16.009-2.92,22.628-5.966c5.866-2.699,13.433-7.663,20.571-8.023c3.412-0.172,6.383,0.713,9.052,1.646
		c2.329,0.814,5.061,2.914,7.611,3.086c3.304,0.222,6.91-1.932,8.023-3.703c2.027-3.229,0.643-9.723,2.057-13.988
		c0.578-1.744,2.721-2.783,2.674-4.32c-0.02-0.643-1.71-2.768-2.674-3.909c-3.133-3.709-7.53-6.218-9.463-10.696
		c-0.647-1.5-0.792-4.006-1.44-5.35c-1.114-2.307-3.798-3.607-5.966-4.937c0,0.206,0,0.411,0,0.617
		c-0.706,3.203-4.467,4.438-7.2,5.554c-3.066,1.252-6.525,2.227-9.874,2.881c-21.742,4.247-47.583,4.234-70.766,6.377
		c-3.131,17.577-8.45,32.967-13.577,48.549C7924.01,2390.692,7937.913,2382.524,7954.469,2380.402z"/>
	<path fill-rule="evenodd" clip-rule="evenodd" d="M8405.6,1711.418c3.958-1.247,7.371,0.382,10.08,2.058
		c0.873,0.539,3.316,1.908,2.263,3.497c-1.281,1.932-6.865-2.547-8.846-2.674c-2.298-0.147-2.982,0.299-4.525,1.851
		c-0.076,5.15,1.762,8.388,2.469,12.755c1.14-0.6,2.551-2.643,3.908-3.703c1.004-0.784,4.193-3.183,5.349-1.44
		c1.23,1.854-2.8,3.79-2.674,3.703c-4.044,2.785-5.029,5.983-5.349,12.96c-0.166,3.633-1.31,6.773-1.028,8.846
		c0.297,2.188,3.384,3.891,4.114,5.76c1.852,4.743,1.12,9.458,5.349,12.137c0.687-1.377,1.218-2.301,2.468-1.852
		c1.684,0.604,0.659,2.798,1.852,4.114c-1.118,34.519,13.579,56.772,35.589,69.531c-0.146-5.221,1.473-8.676,3.703-11.52
		c-2.285-5.711,2.335-6.882,7.611-6.172c4.086,0.55,7.99,0.354,8.64,4.114c0.337,1.949-1.025,4.214-1.852,5.966
		c-1.512,3.206-1.761,6.739-6.171,6.994c1.174,2.392,1.813,5.319,5.76,4.938c1.381-2.391,1.819-5.724,3.703-7.611
		c-1.185-3.408,0.511-7.729,5.554-6.789c0.714-7.271,1.791-13.701,4.731-19.337c0.873-1.672,4.411-5.062,6.583-5.966
		c8.053-3.35,14.117,3.481,16.457,9.052c1.645,3.914,2.036,8.85,1.44,13.988c-1.055,9.097-2.834,19.144-2.058,29.829
		c14.857,1.728,28.605-0.093,38.675-4.114c10.271-4.102,17.475-11.148,23.862-19.955c10.444-14.397,18.55-32.591,24.274-52.663
		c0.583-2.042,1.299-7.632,2.88-8.023c1.449-0.358,2.842,1.863,3.909,2.88c1.16,1.105,2.797,2.46,4.319,2.469
		c3.75,0.021,6.723-5.398,8.435-8.434c1-1.773,1.796-3.527,2.675-5.76c0.798-2.029,2.135-4.601,2.057-6.171
		c-0.049-0.979-0.982-1.875-1.028-2.88c-0.096-2.061,1.294-4.928,1.234-7.611c-0.072-3.218-1.024-6.177-2.058-8.64
		c-0.962-2.296-3.427-4.278-2.263-6.994c3.187-0.588,4.208,3.295,5.143,5.554c1.072,2.59,2.153,5.675,2.263,8.64
		c1.916-5.49,3.795-11.017,3.909-18.309c-1.129-3.907-6.394-3.693-9.669-1.646c-1.7,1.063-2.863,4.922-4.319,7.405
		c-1.482,2.527-3.45,4.973-3.498,6.583c-0.086,2.921,2.928,5.532,2.675,8.846c-0.194,2.546-3.444,6.364-3.497,7.611
		c-0.093,2.195,3.316,2.155,2.057,4.526c-2.487,1.325-5.044-0.991-5.349-3.292c-0.508-3.84,3.384-5.72,3.498-9.052
		c0.103-3.016-3.001-5.531-2.675-9.257c0.168-1.913,2.406-4.99,3.703-7.2c1.807-3.08,2.446-6.768,5.143-8.64
		c2.245-1.559,5.784-2.295,8.64-2.263c-1.02-1.477-3.117-2.622-6.171-3.292c-2.405-0.527-7.905,0.275-8.229-1.646
		c-0.46-2.73,5.023-1.984,6.377-1.852c7.366,0.722,13.159,4.311,14.4,11.521c0.897,5.216-0.73,10.667-2.058,15.428
		c-1.327,4.759-2.819,9.558-4.114,13.783c-1.557,5.077-2.579,9.193-4.525,13.372c-2.032,4.361-4.842,9.645-9.258,11.931
		c-3.692,1.913-8.059,0.136-10.491-2.468c-3.827,14.482-8.889,27.728-15.017,39.909c-0.866,17.438-3.666,39.13-1.646,58.834
		c3.216,2.139,6.368,4.162,8.846,6.994c7.263,8.302,8.593,22.629,13.372,33.943c5.478,1.189,10.026,2.708,13.988,5.76
		c3.758,2.895,6.69,6.946,10.903,8.846c4.915,2.217,12.276,1.036,17.896,1.852c5.348,0.775,10.496,3.064,15.018,4.731
		c5.152,1.899,10.362,2.956,15.634,4.114c2.637,0.579,5.268,1.174,7.611,2.263c2.249,1.044,4.176,2.426,6.583,3.292
		c5.054,1.816,10.464,2.69,15.635,4.114c15.543,4.28,28.806,10.27,40.731,18.514c7.806,5.396,15.239,11.369,21.188,18.309
		c5.923,6.91,10.142,16.03,14.194,25.303c7.791,17.825,15.006,38.627,16.663,62.126c0.863,12.247,0.83,24.473,2.88,36.617
		c3.745,22.191,8.99,44.79,12.96,66.034c4.102,21.949,6.601,46.876,8.229,70.766c1.424,20.903,2.132,44.935-0.411,65.829
		c-0.293,2.401-1.594,6.734-1.234,8.434c0.232,1.104,3.413,3.202,4.937,4.938c1.394,1.586,3.197,3.572,4.114,5.555
		c0.971,2.097,0.702,4.533,1.646,6.377c2.001,3.908,12.199,7.529,12.549,12.96c0.199,3.09-2.778,3.922-3.291,6.377
		c-0.478,2.286,0.454,4.633,0.205,6.788c-0.516,4.48-4.019,11.336-8.229,12.549c-1.272,0.367-2.396,0.322-3.908-0.411
		c14.429,58.652,19.959,124.614,19.954,198.515c-0.001,20.475-0.598,41.09-1.439,62.125c-0.057,1.407,0.491,7.681-2.264,7.2
		c-1.893-0.331-1.127-5.598-1.028-7.817c3.022-67.713,1.53-140.479-7.2-200.365c-2.32-15.92-5.141-31.326-8.434-46.492
		c-1.077-4.959-2.65-9.771-2.88-14.811c-13.45-9.217-26.228,2.74-36.412,6.788c-3.991,1.587-8.509,2.471-13.371,3.086
		c-9.915,1.254-18.515,3.222-27.36,5.76c-8.597,2.467-17.242,5.322-27.359,5.555c8.575,42.753,16.55,84.897,27.154,126.309
		c7.811,30.502,17.588,58.308,24.891,90.309c1.527,6.692,3.688,16.074,5.144,23.657c0.396,2.062,1.638,7.003-0.617,7.199
		c-2.497,0.219-2.352-5.098-2.675-6.788c-3.444-18.016-8.016-36.72-12.548-53.28c-5.34-19.51-11.796-38.775-16.869-58.217
		c-10.551-40.437-18.183-81.7-26.742-123.429c-6.777,17.605-5.515,41.966-3.086,62.537c2.442,20.69,6.48,40.994,10.285,59.246
		c3.872,18.573,8.942,37.344,11.726,58.011c1.327,9.853,1.915,20.579,3.909,30.857c1.229,6.34,3.023,14.096,5.143,20.982
		c0.399,1.299,2.679,5.516,0.411,6.172c-2.274,0.658-3.104-4.419-3.702-6.377c-2.432-7.946-4.587-16.165-5.966-24.274
		c-1.99-11.7-2.356-25.222-4.32-35.794c-4.085-21.985-9.627-44.557-13.988-66.24c-4.531-22.525-8.842-46.37-8.846-71.589
		c-0.005-26.661,8.854-44.085,14.194-66.034c5.191-21.34,8.945-45.181,10.285-70.148c1.334-24.838,1.847-50.951,3.086-77.143
		c1.243-26.274,0.624-51.487,1.852-78.583c0.819-18.086,0.641-39.138,2.057-58.217c0.264-3.539,0.813-9.725,2.058-12.96
		c0.362-0.942,0.834-2.716,2.469-2.057c1.987,0.802-0.294,6.584-0.617,8.64c-1.577,10.013-1.166,21.542-1.646,32.092
		c-0.674,14.815-0.821,29.92-1.234,43.817c4.195-4.775,4.021-13.304,6.788-20.572c1.782-4.681,5.445-8.118,9.874-11.109
		c1.312-0.885,3.524-2.538,4.526-1.028c1.309,1.973-2.783,3.751-3.292,4.114c-1.157,0.826-3.177,2.354-4.319,3.497
		c-2.899,2.899-4.038,6.49-4.938,10.697c-1.377,6.445-3.226,12.025-6.171,17.28c-0.987,1.76-2.578,3.317-2.881,4.731
		c-0.675,3.159-0.144,7.695-0.205,11.726c-0.411,26.755-1.413,53.327-2.058,80.229c-0.736,30.75-2.698,61.202-6.788,87.429
		c13.688-1.54,28.325-3.607,42.583-5.144c14.42-1.553,28.682-2.521,40.114-7.611c7.478-31.375,3.857-70.799,1.234-104.091
		c-2.746-34.837-9.788-65.289-15.841-96.069c0.416,38.92-3.293,77.953-3.702,117.051c-0.015,1.406,0.688,7.04-2.058,6.583
		c-1.699-0.283-1.347-5.611-1.234-8.022c0.958-20.611,1.615-41.313,2.469-61.509c0.977-23.095,1.192-48.135,1.234-70.766
		c-2.69-13.512-2.021-27.334-3.291-40.731c-2.39-25.184-10.619-48.067-19.955-67.063c-4.804-9.775-10.619-17.543-18.72-24.686
		c-15.769-13.904-34.347-22.837-58.217-28.8c-3.075-0.768-5.941-1.381-8.641-2.263c-2.604-0.851-4.805-2.259-7.405-3.497
		c-5.158-2.456-11.271-2.819-17.074-4.526c-8.434-2.48-15.099-6.273-25.92-6.789c-3.081-0.146-6.598,0.083-10.08-0.617
		c-5.167-1.039-8.537-4.813-11.932-8.022c-3.487-3.297-7.38-5.351-12.754-6.995c3.046,6.902,4.675,14.754,3.497,23.452
		c-1.051,7.756-4.02,15.898-6.789,21.806c-2.98,6.357-7.271,11.669-11.314,17.28c-4.042,5.61-8.08,11.465-13.371,15.223
		c-2.238,5.623-3.039,11.51-4.525,17.074c-3.763,14.081-9.818,25.472-17.28,36.617c-1.339,2-3.923,4.583-4.32,6.377
		c-0.521,2.353,0.09,5.923,0.206,9.257c0.729,21.002,1.234,43.126,1.234,63.978c0,24.594,0.824,49.573,0.823,73.646
		c-0.002,24.397,0.205,49.432,0.205,74.263c0,12.283,0.076,24.608-0.411,36.823c-0.498,12.463,0.357,24.911-0.206,37.028
		c-0.565,12.184-0.615,24.619-0.617,36.823c-0.001,12.284-0.618,24.458-0.617,36.617c0.003,24.252-0.593,48.562-1.439,73.028
		c-0.829,23.949-0.557,47.991-1.646,72.822c-0.835,19.04-4.61,39.711-2.469,61.098c0.178,1.783,1.38,7.069-0.617,7.406
		c-2.273,0.382-2.386-3.973-2.675-6.583c-2.311-20.904,1.554-41.458,2.469-60.687c1.169-24.558,0.896-48.51,1.646-72.411
		c0.743-23.707,1.438-48.366,1.44-72.617c0.001-12.095,0.618-24.263,0.617-36.411c-0.002-12.18,0.06-24.462,0.617-36.412
		c0.568-12.188-0.353-24.511,0.205-36.822c0.552-12.158,0.412-24.486,0.412-36.617c0-73.709-0.365-147.656-2.469-219.497
		c-5.956,7.819-12.605,16.955-18.72,26.126c-4.288,6.429-7.451,14.852-11.521,22.423c-1.204,2.241-3.784,5.143-4.114,7.2
		c-0.325,2.027,0.329,5.219,0.411,8.023c0.551,18.652,0.701,38.526,1.234,57.6c0.623,22.253-0.207,45.389-0.205,66.651
		c0.001,21.904-0.707,44.065-1.234,66.035c-1.589,66.205-1.43,131.601-3.909,197.896c-0.801,21.438-0.717,43.597-1.646,65.623
		c-0.742,17.605-0.678,39.074,0.823,57.188c0.146,1.755,1.222,6.213-1.028,6.377c-2.073,0.151-2.136-4.692-2.264-6.171
		c-1.524-17.73-1.423-39.198-0.822-56.572c1.532-44.354,1.757-85.568,3.291-130.011c0.757-21.903,0.031-43.98,1.028-65.417
		c0.504-10.811,0.357-21.83,0.617-32.709c1.807-75.461,3.514-153.04,0.823-229.166c-16.143,27.102-31.608,54.854-47.726,82.697
		c-8.045,13.897-15.919,27.976-23.04,42.377c-7.167,14.493-14.317,29.017-22.834,42.583c-8.222,13.095-17.783,25.578-27.566,37.852
		c-9.74,12.222-18.779,24.996-30.034,35.383c-11.25,10.384-24.032,19.507-34.972,30.446c-5.301,5.301-10.569,11.256-16.251,16.457
		c-5.709,5.226-12.161,10.844-20.777,11.726c0.766,29.067-1.163,59.178-2.469,87.223c-0.227,4.878,0.054,9.793,0.617,14.4
		c0.523,4.279,1.748,8.337,2.264,12.548c0.541,4.431-0.103,9.31-0.412,14.194c-0.885,13.98-1.612,28.635-3.291,41.555
		c-1.955,15.042-4.978,30.099-8.435,44.022c-0.38,1.529-0.317,4.651-3.086,4.32c-1.753-1.644-0.215-4.088,0.206-5.76
		c3.474-13.79,5.861-28.448,8.022-43.817c1.779-12.648,2.612-26.768,3.292-41.143c0.225-4.751,0.883-9.225,0.205-13.783
		c-0.641-4.313-1.851-8.448-2.263-12.754c-1.334-13.958,0.56-27.867,1.234-42.378c0.893-19.178,0.88-38.822,0.823-58.422
		c-17.181-3.374-26.698-14.609-34.354-27.154c-4.042-6.624-7.196-13.047-10.286-20.366c-2.379-5.638-4.215-11.004-5.143-17.897
		c-0.283-2.102-0.096-4.862-0.822-6.788c-0.425-1.125-2.039-1.756-3.292-3.086c-2.844-3.021-5.198-7.854-7.2-11.52
		c-2.832-5.186-6.009-11.26-8.434-16.458c-2.847-6.1-6.536-11.09-6.378-18.72c0.145-6.919,4.148-12.718,7.817-17.074
		c11.189-13.284,28.114-22.334,44.641-30.445c2.741-1.346,5.524-2.867,8.434-4.114c2.813-1.206,5.819-2.756,9.052-2.88
		c23.03-19.21,48.961-35.518,69.942-56.777c-9.538-27.764-24.205-50.402-33.325-78.583c-16.762-11.258-32.271-24.364-46.697-38.057
		c-14.404-13.673-26.956-29.921-32.914-51.84c-3.785,23.14-5.327,47.38-4.114,72.823c0.866,18.178,2.635,36.014,4.114,54.103
		c0.515,6.293,1.278,12.587,1.439,18.515c-6.149,8.941-11.193,20.185-13.165,33.942c-2.035,14.198,0.054,29.075,3.497,41.555
		c0.025-3.791-1.082-7.202-1.029-10.903c0.124-8.606,4.404-16.766,7.817-22.834c0.725-1.289,1.281-3.293,3.292-2.674
		c1.686,1.559-0.114,3.638-0.823,4.937c-2.464,4.518-4.965,9.631-6.377,15.429c-1.02,4.187-0.497,8.187,0.205,12.754
		c0.357,2.319,0.604,4.549,0.412,6.789c-0.17,1.972-1.286,3.856-0.823,5.966c-2.084,2.291-3.768,5.627-5.76,8.64
		c-2.114,3.198-4.469,6.438-5.143,9.669c-0.404,1.935,2.005,4.077,0.411,5.143c-2.441,1.632-3.852-2.202-3.703-4.731
		c0.474-8.038,8.541-13.041,10.491-20.365c-7.564-19.331-8.86-47.971-1.439-67.269c1.653-4.301,4.175-9.077,6.583-13.166
		c0.869-1.476,2.08-3.171,2.263-4.32c0.271-1.697-0.232-4.287-0.411-6.377c-3.25-37.949-8.636-80.693-3.292-120.137
		c1.105-8.162,1.063-16.636,3.292-23.657c1.98-6.24,6.378-12.019,10.696-16.252c4.296-4.209,10.143-8.656,17.075-9.874
		c1.405-0.247,3.305-2.892,4.731-4.114c10.729-9.197,23.68-15.078,38.674-20.366c12.961-4.57,23.099-10.139,37.646-12.96
		c4.425-0.858,9.365-1.14,14.605-2.263c1.001-0.214,2.014-1.697,3.292-2.468c6.175-3.726,14.123-6.37,22.423-8.434
		c1.405-0.35,3.144-0.475,4.114-1.029c0.922-0.527,1.367-1.785,2.469-2.263c3.19-1.383,6.813-1.708,10.08-2.88
		c7.622-2.734,13.841-7.33,22.423-10.08c1.779-0.57,4.145-0.983,4.731-1.646c1.649-1.86,1.383-8.072,2.057-11.314
		c1.841-8.85,4.243-17.975,9.052-23.862c0.96-1.176,2.801-2.444,3.086-3.497c0.835-3.095-0.68-10.747-1.029-13.989
		c-1.425-13.23-3.696-28.286-5.143-40.114c-13.066-12.647-19.494-31.935-20.365-56.777c-2.002-1.622-3.688-2.2-5.144-4.114
		c-2.335-3.072-2.319-7.025-3.702-10.697c-0.83-2.201-3.738-3.516-4.32-5.554c-0.618-2.163,0.245-5.016,0.617-7.406
		c1.289-8.283-1.552-15.517-2.88-22.011c-2.394-11.7,3.147-18.222,13.165-19.132c1.22-0.11,5.161-0.716,4.731,1.852
		c-0.287,1.719-5.887,1.413-7.611,1.852C8409.217,1707.031,8406.712,1708.754,8405.6,1711.418z M8492,1811.602
		c-0.325,3.088,2.395,11.45,4.32,11.931c1.614,0.404,5.078-0.58,6.377-1.851c2.797-2.737,3.536-11.686,1.028-14.194
		c-1.127-1.127-3.174-1.475-5.349-1.234C8495.129,1806.613,8492.262,1809.117,8492,1811.602z M8237.942,2322.184
		c0,8.432,1.094,17.647,2.264,26.332c1.164,8.645,2.33,16.821,5.143,23.657c5.396,13.115,11.831,26.195,21.188,36
		c4.695,4.92,10.67,9.172,17.485,11.108c9.057,2.572,15.096-1.369,20.777-5.966c10.318-8.347,18.975-19.201,29.212-27.978
		c10.349-8.871,21.379-17.059,30.856-26.537c9.37-9.369,17.453-20.748,25.92-31.474c8.551-10.833,16.83-21.846,24.274-33.12
		c15.167-22.969,26.316-50.114,40.114-74.469c20.838-36.781,42.358-72.196,62.743-109.028c3.518-6.355,6.131-12.906,9.463-19.132
		c3.229-6.033,7.755-11.442,11.726-17.074c11.857-16.819,25.102-32.561,32.297-53.691c1.809-5.311,2.89-11.54,4.32-17.28
		c0.472-1.89,1.573-3.628,1.852-5.348c0.436-2.693,0.206-7.092,0.206-11.314c0-4.283,0.518-8.558,0-11.52
		c-0.669-3.822-3.68-11.373-5.966-13.166c-1.754-1.375-5.884-2.144-8.641-3.086c-2.614-0.894-7.313-2.249-7.405-4.32
		c-0.065-1.462,2.534-2.966,3.497-4.731c1.651-3.027,2.387-8.736,0.617-12.137c-1.729-3.325-8.917-7.514-13.988-7.2
		c-1.796,0.111-5.65,3.127-6.789,1.439c-1.026-1.522,2.174-4.684,2.675-5.349c1.633-2.167,2.619-3.667,3.497-5.143
		c1.844-3.1,5.053-7.882,4.319-12.96c-0.668-4.629-8.07-9.758-12.754-10.697c-12.001-2.408-12.7,9.137-19.543,12.137
		c-1.666,0.731-5.408,1.646-7.817,0.412c-0.767-0.393-2.444-3.178-2.674-4.32c-0.284-1.41-0.043-3.589-0.206-5.349
		c-0.552-5.959,0.79-11.417,1.029-17.074c0.682-16.177-1.304-33.004,0.616-47.931c0.918-7.13,2.796-15.269,0-21.6
		c-0.188,2.658-0.688,5.197-1.646,7.2c-1.484,3.103-6.887,6.594-11.726,5.143c-3.843-1.152-3.959-6.832-5.554-10.697
		c-1.139,4.21-2.441,8.257-2.469,13.577c4.18,0.225,7.063,0.731,7.611,3.909c0.344,1.992-0.718,3.562-1.852,5.966
		c-1.608,3.41-2.327,6.978-6.172,7.2c1.084,1.896,1.425,3.539,3.292,4.32c1.183,0.495,3.102,0.229,4.525,0.823
		c5.457,2.277,3.243,9.748-0.617,11.109c-4.143,1.46-8.745-0.501-11.932-2.469c-0.799,4.138-2.07,7.604-2.468,11.726
		c-0.432,4.47,0.939,8.942,0.617,13.372c-0.592,8.133-2.792,16.42-4.114,24.48c-1.227,7.467-3.559,15.356-5.555,23.04
		c-0.974,3.748-1.852,7.744-1.852,12.343c0,4.683,0.706,9.527-0.411,13.577c-0.559,2.024-2.339,3.894-3.086,6.377
		c-1.18,3.922-1.259,9.361-1.44,14.194c-0.173,4.641-0.285,9.637,1.234,13.577c-1.185,4.38-0.047,9.192,0.412,13.989
		c1.328,13.903,3.503,31.081-1.646,42.994c-2.989,6.917-7.938,12.931-12.548,19.131c-9.503,12.779-15.688,26.099-25.098,38.263
		c-4.563,5.9-9.705,11.302-14.399,17.28c-9.406,11.979-18.139,24.482-27.566,35.794c-9.626,11.551-19.65,22.326-30.239,32.915
		c-10.437,10.435-22.174,19.835-34.354,29.006c-11.893,8.954-24.029,17.453-35.795,27.566c-8.043,6.914-16.44,15.936-21.806,25.714
		c-1.374,2.505-2.177,5.535-3.497,8.229c-2.041,4.165-4.629-0.171-2.88-2.674C8244.27,2291.058,8237.942,2302.786,8237.942,2322.184
		z M8556.8,1852.333c-11.548,6.29-27.982,9.452-46.08,7.612c0.851,13.985-0.408,28.081-0.822,40.731
		c2.27-3.168,9.344-6.607,14.605-2.88c8.55-7.75,24.557-0.364,27.771,8.64c2.412,6.757-2.893,15.013-5.555,19.131
		c-0.327,0.506-1.003,1.198-0.822,1.851c6.341,0.265,10.773,2.956,14.399,5.966c0.84,0.697,1.741,1.417,1.852,2.675
		c9.681-8.697,19.383-17.372,26.126-29.006c-4.857-6.313-5.302-15.19-5.966-25.098c-0.618-9.229-1.515-19.313-1.234-29.417
		c0.282-10.143,1.075-20.024,2.058-28.8c-0.012-0.125-0.031-0.244-0.206-0.206C8576.273,1834.924,8568.798,1845.798,8556.8,1852.333
		z M8465.463,1828.059c-9.3,6.954-2.354,25.583,9.463,22.217c0-1.098-0.128-2.067-0.617-2.674
		c-9.158,1.004-12.941-11.474-6.994-16.457c0.459,1.05,0.911,2.106,1.646,2.88c1.051-2.721,2.395-5.148,3.497-7.817
		c-2.798-0.356-5.466-0.843-8.435-1.029C8464.363,1826.279,8465.07,1827.011,8465.463,1828.059z M8445.303,1861.796
		c0.929,7.672,2.014,14.881,1.852,23.04c-0.053,2.674-0.921,5.526-0.823,7.611c0.143,3.017,2.644,6.511,4.114,9.668
		c4.628,9.933,9.438,18.245,18.309,23.452c2.005-6.2,3.113-12.842,4.32-19.749c1.147-6.569,2.992-13.523,3.497-20.571
		c0.319-4.458-0.983-9.041-0.617-13.577c0.39-4.816,2.195-9.37,3.086-13.989c-0.61-1.172-1.591-1.975-2.058-3.292
		c-9.786,2.892-16.654-3.604-19.131-10.697c-5.984-3.478-11.277-7.648-16.457-11.931
		C8442.844,1841.541,8444.092,1851.787,8445.303,1861.796z M8483.36,1836.082c-5.981,4.287-4.935,13.872-1.234,18.515
		c0.905,1.136,3.349,3.271,5.349,3.908c2.327,0.742,6.157,0.715,5.76-1.646c-0.251-1.49-1.748-0.925-3.497-1.234
		c-6.533-1.156-10.527-11.594-4.525-16.457c0.458,1.05,0.911,2.105,1.646,2.88c1.05-2.721,2.395-5.148,3.497-7.817
		c-2.799-0.355-5.466-0.843-8.435-1.028C8482.26,1834.301,8482.968,1835.034,8483.36,1836.082z M8589.714,1903.35
		c0.94-0.142,2.229-1.27,3.086,0c0.994,1.471-0.938,2.969-0.822,4.731c-7.701,12.116-17.962,21.673-28.184,31.269
		c1.071,6.227-0.425,11.949-3.497,15.223c4.766,2.579,10.721,2.158,14.4,5.76c1.683,1.647,2.231,4.143,3.497,6.377
		c1.352,2.386,2.925,4.383,3.291,7.2c0.806,6.183-1.204,12.722-0.205,19.543c5.493-4.783,9.709-11.883,14.399-17.897
		c4.9-6.284,8.411-13.054,11.108-21.806c1.759-5.704,3.581-12.486,3.086-18.926c-0.397-5.173-2.81-10.094-4.731-14.812
		c-1.955-4.802-3.765-9.718-5.143-14.606c-2.986-10.593-5.761-20.258-13.988-25.303c-0.263-0.011-0.285-0.264-0.617-0.206
		C8585.556,1888.323,8586.496,1897.341,8589.714,1903.35z M8436.457,1904.791c-0.707,2.588-1.633,5.453-2.057,8.229
		c-0.483,3.157-0.275,6.275-1.44,8.846c-0.914,2.016-2.181,2.375-2.88,3.908c-1.481,3.249-1.858,7.687-1.852,10.903
		c0.013,5.867,2.623,10.719,4.731,15.634c2.016,4.701,5.453,8.478,8.64,11.932c5.916,6.41,11.349,12.91,16.458,19.543
		c0.667,0.866,1.582,2.294,2.263,2.057c0.073-7.234-0.559-15.464,1.439-21.806c0.632-2.003,2.286-4.021,2.88-6.171
		c1.206-4.362,0.188-10.104,0.412-15.429c0.207-4.922,1.509-9.086,2.674-13.166c-6.478-4.433-11.76-9.909-15.634-16.868
		c-3.776-6.783-8.151-13.978-9.463-23.04c-0.012-0.126-0.031-0.244-0.206-0.206
		C8439.355,1893.65,8438.055,1898.941,8436.457,1904.791z M8516.48,1899.647c-2.989,0.979-6.76,5.709-5.144,8.023
		c6.787,0.752,7.829-4.24,10.697-7.406C8520.383,1899.69,8518.479,1898.993,8516.48,1899.647z M8407.451,1934.413
		c2.839-0.454,5.29-0.907,8.641-1.44c1.116-0.178,7.636-2.133,7.816,0.617c0.138,2.089-4.263,2.136-6.377,2.469
		c-17.667,2.781-37.034,6.288-49.577,12.754c3.229-0.223,7.446-0.567,11.932-0.823c2.43-0.138,11.056-1.302,10.902,1.44
		c-0.123,2.215-5.777,1.516-8.64,1.646c-23.723,1.078-44.225,5.208-61.097,12.138c-10.148,4.167-20.095,7.354-29.829,11.931
		c-7.476,3.515-13.324,7.51-19.131,12.343c-1.825,1.519-3.713,4.042-5.555,4.937c-1.479,0.719-3.134,0.924-4.525,1.44
		c-10.251,3.799-16.938,11.377-21.395,20.982c4.486,22.611,16.558,39.393,30.651,53.486c13.194,13.193,27.928,25.194,42.789,36.412
		c0.989,0.747,2.197,1.863,2.88,1.646c-4.863-15.415-8.71-29.388-13.166-45.668c-3.273-11.959-7.728-21.542-7.2-36.823
		c0.151-4.381,1.516-10.361,0.206-14.194c-0.46-1.345-3.199-1.887-2.469-3.703c1.066-2.649,4.363,0.291,4.731,0.823
		c1.124,1.625,1.214,5.046,1.234,6.377c0.089,5.806-0.411,10.014-0.411,14.812c-0.001,11.076,3.301,17.823,5.349,25.303
		c8.968,32.769,16.897,64.392,30.651,91.749c6.979,13.883,13.07,28.111,18.514,42.789c19.359-18.367,35.902-40.902,52.457-62.537
		c5.534-7.232,11.766-13.981,17.28-21.188c5.548-7.251,10.322-15.249,15.223-23.246c4.766-7.776,10.139-15.175,15.635-22.834
		c2.776-3.869,5.218-7.784,6.583-12.549c4.72-16.485-0.787-35.325-1.029-53.28c-5.842-8.04-12.57-15.96-19.954-24.069
		c-3.268-3.588-7.092-7.514-9.668-12.343c-1.188-2.224-1.975-5.166-3.086-7.817c-1.231-2.938-2.452-5.548-2.675-8.434
		c-0.386-5.007,0.333-9.618,1.44-13.783c-0.138,0-0.274,0-0.411,0C8419.173,1927.895,8413.607,1931.449,8407.451,1934.413z
		 M8225.395,2283.51c-4.2,4.199-9.413,10.355-10.08,16.868c-0.691,6.749,2.462,11.251,4.731,15.841
		c4.621,9.345,9.158,19.706,14.812,27.771c0.372,0.531,0.809,1.523,1.646,1.439c-1.733-14.273-3.384-31.344,0.823-43.611
		c4.059-11.839,12.021-20.859,21.188-26.949c4.334-8.694,11.225-15.929,17.074-22.422
		C8257.638,2260.775,8239.029,2269.875,8225.395,2283.51z M8823.611,2333.293c-1.064,1.491-6.177,2.715-8.846,3.497
		c-3.919,1.147-7.048,1.736-10.285,2.263c-21.865,3.552-46.653,5.098-66.857,8.022c-2.651,17.029-6.675,32.687-11.314,47.726
		c16.522-0.751,30.347-7.935,47.108-10.491c8.373-1.277,16.535-1.899,23.246-5.554c6.344-3.456,12.648-7.867,20.571-8.435
		c5.717-0.409,8.994,0.815,12.754,2.674c1.832,0.906,4.699,3.026,6.172,2.88c1.751-0.173,3.126-2.518,4.114-4.113
		c1.015-1.639,2.055-3.934,2.263-5.967c0.244-2.381-0.601-5-0.206-6.994c0.499-2.513,3.13-3.452,3.292-5.348
		c-2.687-5.27-9.97-6.496-12.343-12.138c-0.764-1.813-0.597-3.815-1.234-5.554c-0.886-2.414-5.198-6.762-7.2-8.023
		C8824.244,2329.25,8824.725,2331.733,8823.611,2333.293z"/>
	<path fill-rule="evenodd" clip-rule="evenodd" d="M7719.337,1704.836c2.102-0.637,4.08,4.459,4.731,5.965
		c1.572,3.631,2.918,8.626,0.617,12.343c-1.865,3.013-6.086,5.237-10.286,6.583c-1.966,0.63-3.427,0.962-3.703-0.617
		c-0.304-1.742,3.9-2.927,5.143-3.497c2.64-1.211,6.251-2.93,6.789-6.171c0.531-3.203-1.079-6.112-1.646-7.406
		C7720.343,1710.575,7716.5,1705.695,7719.337,1704.836z"/>
	<path fill-rule="evenodd" clip-rule="evenodd" d="M7669.349,1706.482c3.672-1.129,1.25,3.496,0.617,5.965
		c-1.758,6.864-0.298,11.24,5.554,13.577c0.798,0.319,3.54,0.18,3.909,1.852c0.721,3.268-4.134,1.429-5.554,0.823
		c-3.684-1.572-7.178-3.789-7.817-8.229C7665.549,1716.945,7666.851,1707.25,7669.349,1706.482z"/>
	<path fill-rule="evenodd" clip-rule="evenodd" d="M7689.509,1718.001c-3.656-0.482-4.295,4.261-6.995,4.938
		c-2.405,0.603-4.705-0.902-4.937-2.675c-0.268-2.04,3.409-7.807,5.143-8.434C7686.592,1710.43,7688.271,1714.968,7689.509,1718.001
		z"/>
	<path fill-rule="evenodd" clip-rule="evenodd" d="M7700.617,1718.619c0.271-6.014,8.119-6.653,11.314-3.291
		c0.829,0.872,1.856,3.044,1.44,4.731c-0.394,1.595-2.677,2.88-4.32,2.88C7705.465,1722.939,7704.479,1718.287,7700.617,1718.619z"
		/>
	<path fill-rule="evenodd" clip-rule="evenodd" d="M8486.445,1736.722c-1.835,1.243-3.796-0.792-5.143-2.263
		c-1.839-2.008-3.748-4.654-4.114-8.022c-0.329-3.03,1.103-12.052,3.703-12.343c3.733-0.418-0.224,7.202-0.411,9.257
		c-0.411,4.497,1.609,7.078,3.702,9.257C8485.034,1733.494,8487.274,1734.485,8486.445,1736.722z"/>
	<path fill-rule="evenodd" clip-rule="evenodd" d="M8528.823,1716.356c2.729-1.102,5.479,8.053,5.76,10.697
		c0.663,6.229-2.141,8.851-6.377,10.491c-1.274,0.493-8.146,2.972-8.229,0c-0.062-2.201,6.207-2.484,8.434-3.703
		c5.032-2.752,2.499-9.352,0.412-13.782C8528.134,1718.595,8526.695,1717.214,8528.823,1716.356z"/>
	<path fill-rule="evenodd" clip-rule="evenodd" d="M8491.794,1720.676c5.084-1.147,6.529,8.172,1.44,8.846
		c-1.906,0.252-5.126-0.778-5.555-2.674C8487.133,1724.425,8489.368,1721.223,8491.794,1720.676z"/>
	<path fill-rule="evenodd" clip-rule="evenodd" d="M8521.828,1730.756c-4.913,3.601-8.755-2.324-12.343-3.909
		C8511.946,1720.507,8522.669,1722.997,8521.828,1730.756z"/>
	<path fill-rule="evenodd" clip-rule="evenodd" d="M8409.097,1749.064c-1.275-1.949-0.023-3.784,1.234-4.937
		c1.968-1.804,8.05-1.709,7.817,1.234c-0.211,2.678-2.228,0.438-4.525,0.823C8411.171,1746.594,8412.051,1750.224,8409.097,1749.064
		z"/>
	<path fill-rule="evenodd" clip-rule="evenodd" d="M7702.469,1747.83c3.745-0.558,8.197,1.247,11.52,2.88
		c6.149,3.022,13.388,7.849,16.663,14.811c0.725,1.542,1.93,3.738,1.852,4.32c-0.239,1.779-5.259,2.682-8.023,3.292
		c-9.505,2.098-19.113,3.291-30.24,3.291c-11.031,0-19.788-1.673-29.417-4.114c-2.269-0.575-7.568-1.647-8.023-3.086
		c-0.805-2.545,2.149-6.548,3.498-8.434c4.639-6.492,14.379-11.511,23.246-12.343c1.905-0.179,3.905-0.1,5.349,0.206
		c2.069,0.438,3.784,2.401,5.554,2.469C7697.478,1751.237,7698.954,1748.354,7702.469,1747.83z M7715.223,1755.03
		c-3.421-1.947-8.228-4.258-11.931-4.115c-3.621,0.141-5.651,4.001-9.668,3.498c-2.857-0.358-4.194-2.796-7.612-2.88
		c-3.779-0.092-8.423,1.269-11.931,2.675c-6.098,2.443-10.671,6.508-13.166,11.931c6.064-1.727,12.522-5.211,20.572-5.76
		c4.033-0.274,8.277-0.116,12.754,0c4.207,0.109,8.748-0.53,12.96-0.205c8.437,0.649,13.452,6.375,20.571,6.994
		C7724.907,1762.083,7720.727,1758.162,7715.223,1755.03z M7701.646,1763.464c-8.008,0.373-16.664-0.775-23.863,0.617
		c-5.178,1.002-9.347,2.962-13.371,4.731c16.546,5.056,41.272,5.694,59.04,1.234
		C7717.598,1766.856,7711.138,1763.023,7701.646,1763.464z"/>
	<path fill-rule="evenodd" clip-rule="evenodd" d="M8508.663,1755.853c3.376-0.412,7.117,2.199,10.08,3.909
		c6.021,3.475,10.399,6.688,15.429,12.137c1.563,1.694,5.941,6.36,5.348,8.434c-0.442,1.55-5.769,1.59-8.846,1.852
		c-19.378,1.644-42.245,2.616-58.217-2.88c-2.278-0.784-6.465-1.985-6.788-3.703c-0.342-1.813,2.445-5.229,3.085-6.171
		c3.708-5.459,10.185-13.218,18.721-13.371c2.275-0.041,4.936,0.368,7.199,0.822c2.198,0.441,4.441,1.67,6.172,1.646
		C8503.789,1758.486,8505.266,1756.268,8508.663,1755.853z M8516.892,1762.23c-2.131-1.231-5.99-3.402-7.817-3.291
		c-3.139,0.19-5.366,3.126-9.463,2.674c-4.385-0.483-7.739-2.396-11.932-2.263c-7.917,0.251-12.34,6.797-16.251,12.549
		c3.409-0.709,6.472-2.813,9.668-3.292c3.294-0.494,6.757-0.241,10.08-0.412c10.945-0.562,19.579,0.686,27.771,3.086
		c5.503,1.612,9.953,5.09,15.018,5.966C8530.627,1772.056,8523.32,1765.947,8516.892,1762.23z M8496.114,1771.282
		c-9.291,0.432-17.937,0.528-24.686,4.114c14.165,5.976,38.587,5.482,56.982,3.497
		C8520.279,1774.806,8508.616,1770.7,8496.114,1771.282z"/>
	<path fill-rule="evenodd" clip-rule="evenodd" d="M7600.64,1821.27c2.683-1.318,10.85,2.958,10.697,4.731
		c-0.281,3.264-4.288-0.037-6.377-0.823c-1.948-0.733-5.141-0.72-5.349-2.263C7599.455,1821.751,7600.481,1821.348,7600.64,1821.27z
		"/>
	<path fill-rule="evenodd" clip-rule="evenodd" d="M7596.114,1872.905c1.5-0.081,8.489-1.307,8.64,1.439
		c0.137,2.489-4.875,1.513-8.023,1.646c-6.354,0.268-11.26,1.265-15.429,3.909c-1.064,0.674-3.925,4.509-5.76,3.291
		c-1.848-1.226,0.931-3.868,2.057-4.731C7582.412,1874.771,7587.94,1873.342,7596.114,1872.905z"/>
	<path fill-rule="evenodd" clip-rule="evenodd" d="M7705.143,1960.539c10.311-1.735,11.102,14.809,0.411,13.783
		c-3.722-0.357-6.534-4.043-6.171-7.817c0.245-2.551,1.346-3.593,1.852-4.114
		C7701.967,1961.635,7703.316,1960.846,7705.143,1960.539z"/>
	<path fill-rule="evenodd" clip-rule="evenodd" d="M7711.52,2039.945c4.879-0.729,9.771,2.726,9.257,8.64
		c-0.813,9.361-15.106,9.054-16.046,0.206C7704.21,2043.883,7707.419,2040.557,7711.52,2039.945z"/>
	<path fill-rule="evenodd" clip-rule="evenodd" d="M7712.343,2152.676c4.448-0.693,8.465,2.331,8.846,6.583
		c0.908,10.141-14.38,11.055-15.223,1.646C7705.555,2156.321,7708.27,2153.31,7712.343,2152.676z"/>
	<path fill-rule="evenodd" clip-rule="evenodd" d="M8533.555,2158.024c5.177-0.872,10.331,3.98,8.022,9.875
		c-2.426,6.193-12.757,5.687-13.988-1.234C8526.822,2162.357,8529.4,2158.724,8533.555,2158.024z"/>
	<path fill-rule="evenodd" clip-rule="evenodd" d="M7711.932,2271.167c4.879-0.729,9.77,2.726,9.257,8.64
		c-0.813,9.361-15.105,9.056-16.045,0.206C7704.622,2275.106,7707.831,2271.78,7711.932,2271.167z"/>
	<path fill-rule="evenodd" clip-rule="evenodd" d="M8533.143,2275.693c1.025-0.206,3.417-0.269,4.32,0
		c7.525,2.243,6.802,17.054-4.32,15.018c-3.363-0.616-5.886-4.135-5.966-7.406c-0.077-3.168,0.931-4.326,2.058-5.554
		C8529.98,2276.937,8531.132,2276.096,8533.143,2275.693z"/>
	<path fill-rule="evenodd" clip-rule="evenodd" d="M7711.932,2393.362c4.879-0.729,9.77,2.727,9.257,8.64
		c-0.812,9.359-15.105,9.057-16.045,0.206C7704.621,2397.3,7707.831,2393.974,7711.932,2393.362z"/>
	<path fill-rule="evenodd" clip-rule="evenodd" d="M8531.497,2399.122c11.157-2.217,12.979,14.613,2.469,15.429
		c-5.493,0.426-10.891-5.267-7.817-11.521C8526.87,2401.563,8528.577,2399.702,8531.497,2399.122z"/>
	<path fill-rule="evenodd" clip-rule="evenodd" d="M7710.903,2508.973c4.594-0.773,9.158,2.621,8.64,8.022
		c-0.868,9.041-13.886,7.904-14.812,0.206C7704.143,2512.301,7707.231,2509.59,7710.903,2508.973z"/>
	<path fill-rule="evenodd" clip-rule="evenodd" d="M8529.646,2513.499c11.601-1.807,12.396,16.661,0.617,15.84
		C8521.307,2528.714,8520.222,2514.966,8529.646,2513.499z"/>
	<path fill-rule="evenodd" clip-rule="evenodd" d="M8529.44,2630.756c4.749-0.99,8.846,1.959,8.846,6.788
		c-0.001,4.514-5.184,8.986-10.492,6.377C8522.308,2641.225,8523.009,2632.096,8529.44,2630.756z"/>
	<path fill-rule="evenodd" clip-rule="evenodd" d="M7712.548,2831.945c-0.127,0.558,0.261,1.632-0.206,1.851
		c-0.772,1.307-2.455,0.463-3.497,0.412c-10.411-0.508-20.488,0.035-30.034-0.206c-0.365-0.39-0.15-1.358-0.206-2.057
		c3.11-1.836,9.387-0.041,10.491-3.497c0.51-1.598-0.896-4.761-1.646-6.995c-2.216-6.599-5.043-14.218-6.789-20.159
		c-5.216-0.001-10.056,0-15.018,0c-4.068-0.001-11.057-1.128-14.605,0.411c-1.858,0.806-2.833,4.021-3.497,5.76
		c-1.886,4.936-3.428,8.867-5.143,13.372c-0.685,1.799-2.069,4.967-1.646,6.582c0.991,3.779,6.493,3.048,9.668,4.32
		c0.228,0.594,0.429,1.961-0.206,2.263c-8.006,0.207-18.628-0.323-27.566,0.206c-0.064-0.676-0.476-1.685,0-2.263
		c0.948-1.212,2.834-0.854,4.32-1.234c7.894-2.021,10.78-12.634,13.783-19.749c8.421-19.954,17.293-40.846,25.303-60.068
		c2.256-0.009,5.294-1.922,6.994-2.469c0.175-0.038,0.194,0.08,0.206,0.206c8.159,22.447,17.023,47.441,25.508,70.972
		c1.156,3.206,2.525,7.646,4.526,9.257C7705.853,2830.922,7709.98,2830.557,7712.548,2831.945z M7659.063,2779.282
		c-2.352,5.755-5.205,11.338-6.583,17.28c3.204,1.691,8.165,1.028,12.754,1.028c4.785,0,9.687,0.166,13.783-0.206
		c-4.415-11.769-8.141-24.225-12.754-35.794C7663.682,2767.352,7661.471,2773.389,7659.063,2779.282z"/>
	<path fill-rule="evenodd" clip-rule="evenodd" d="M8455.794,2793.887c3.413,6.264,7.307,13.023,11.314,20.16
		c3.544,6.311,7.288,14.421,14.4,17.074c1.591,0.594,3.467,0.354,4.937,1.44c0.354,2.283-2.246,2.315-3.497,2.468
		c-13.662,1.675-18.809-7.965-24.274-16.868c-1.946-3.172-4.401-7.198-6.788-11.108c-1.905-3.122-4.622-9.151-7.611-10.286
		c-4.803-1.822-9.355,0.673-13.988-1.028c0.418,7.476-0.644,20.864,0.205,28.594c0.73,6.648,6.455,6.1,12.96,7.406
		c0.288,0.654,0.31,1.84-0.205,2.263c-5.975,0.788-12.176-0.206-18.309-0.206c-6.125,0.001-11.552,1.054-16.869,0.206
		c-0.213-0.541-0.246-1.263-0.205-2.057c2.272-1.469,7.992-0.426,10.079-2.88c2.435-2.863,1.573-11.734,1.646-17.28
		c0.162-12.282,0.125-25.411,0-38.675c-0.057-5.963,0.998-16.905-2.675-19.337c-1.273-0.843-3.64-1.049-5.349-1.234
		c-1.753-0.19-4.296,0.274-3.702-2.674c2.246-1.112,5.345-0.558,7.816-0.412c2.425,0.144,4.9,0.378,7.406,0.412
		c5.555,0.075,12.054-0.728,17.279-1.028c9.896-0.57,19.272,1.176,24.687,6.377c3.119,2.996,6.048,7.78,6.583,12.96
		C8472.908,2780.509,8465.872,2790.078,8455.794,2793.887z M8457.234,2785.865c3.941-6.421,4.233-17.479,1.028-24.687
		c-2.903-6.529-9.621-9.89-18.72-9.257c-3.117,0.217-7.227,0.308-8.64,3.497c-0.849,1.913-0.485,6.145-0.617,9.052
		c-0.44,9.698,0.328,20.319,0,28.183C8441.666,2793.86,8452.229,2794.018,8457.234,2785.865z"/>
	<path fill-rule="evenodd" clip-rule="evenodd" d="M7884.32,2749.042c2.093,5.587,2.317,13.043,3.292,19.749
		c-0.919,0.178-1.572,0.622-2.674,0.617c-1.582-2.043-1.863-4.683-2.88-6.995c-1.345-3.059-3.361-6.731-6.583-8.022
		c-3.187-1.277-8.831-0.822-13.577-0.823c-5.78,0-14.572-1.301-16.457,2.264c-1.518,2.869-0.823,9.783-0.823,14.399
		c0,5.806,0,11.62,0,16.869c5.946,0.056,12.261,0.259,18.103,0c4.313-0.191,7.728-0.563,8.64-5.144
		c0.271-1.36-0.341-4.436,2.057-4.114c1.523,0.204,1.211,2.163,1.029,5.144c-0.308,5.023-0.261,7.506,0,11.931
		c0.139,2.355,0.571,5.387-0.823,5.761c-3.014,0.808-1.805-3.911-2.88-5.966c-1.129-2.157-4.497-3.231-7.406-3.497
		c-6.517-0.597-12.043,0.355-18.72-0.206c-0.466,7.454,0,19.425,0,28.595c0,4.309-0.376,9.114,2.88,10.491
		c2.664,1.126,8.528,0.411,11.52,0.411c4.313,0,8.067,0.36,11.932,0c10.271-0.957,13.336-10.847,16.251-18.926
		c1.286-0.12,2.146,0.185,2.88,0.617c-0.776,7.317-2.744,15.22-4.526,22.217c-19.21-1.365-44.387-0.133-63.154-0.411
		c-0.179-0.51-0.402-1.595,0-2.057c0.968-1.261,3.33-0.713,5.143-1.029c1.573-0.273,3.546-0.864,4.32-1.646
		c2.526-2.553,2.044-12.805,2.263-17.279c0.661-13.543,0.255-26.881-0.206-40.526c-0.165-4.882,0.8-14.19-2.057-17.074
		c-1.912-1.93-7.213-1.437-9.463-2.469c-0.179-0.51-0.402-1.595,0-2.057c1.719-1.288,4.138-0.511,6.171-0.412
		c6.291,0.308,13.179,0.412,20.366,0.412C7860.975,2749.865,7874.042,2750.381,7884.32,2749.042z"/>
	<path fill-rule="evenodd" clip-rule="evenodd" d="M8554.743,2768.791c-3.933,2.743-4.209-3.239-5.555-6.378
		c-1.38-3.219-3.437-6.762-6.583-8.022c-3.11-1.246-9.285-0.822-13.577-0.823c-5.191,0-14.567-1.31-16.457,2.264
		c-1.637,3.096-0.822,11.024-0.822,15.223c-0.001,5.999-0.025,11.228,0,16.251c4.301,0.042,8.1-0.206,12.754-0.205
		c6.679,0,12.835,0.868,13.988-5.349c0.179-0.963-0.038-4.837,2.469-3.909c1.649,0.611,0.214,9.755,0.206,11.726
		c-0.006,1.407,1.595,10.56-0.412,11.109c-3.107,0.851-1.672-3.658-2.88-5.966c-1.727-3.301-6.546-3.423-11.726-3.497
		c-4.625-0.066-9.295-0.106-14.399-0.206c-0.464,7.728,0,19.214,0,28.8c-0.001,4.152-0.311,9.3,3.085,10.491
		c2.872,1.008,8.458,0.206,11.521,0.206c3.95,0,7.946,0.292,11.726,0c9.713-0.75,13.552-10.721,16.251-18.926
		c1.419-0.184,2.137,0.332,3.086,0.617c-1.315,7.667-2.8,15.166-4.731,22.217c-19.413-1.348-45.189-0.15-63.154-0.411
		c-0.179-0.51-0.401-1.595,0-2.057c0.974-1.262,3.331-0.713,5.143-1.029c1.583-0.275,3.536-0.861,4.32-1.646
		c2.603-2.602,2.015-12.219,2.263-17.485c0.342-7.237,0-13.053,0-20.16c0-6.423,0.313-13.456,0-20.16
		c-0.198-4.25,0.263-14.491-2.263-17.074c-1.897-1.941-7.242-1.412-9.463-2.469c-0.179-0.51-0.401-1.595,0-2.057
		c0.534-1.107,2.131-0.616,3.086-0.617c7.064-0.01,15.541,0.617,23.657,0.617c11.791,0,23.952,0.765,33.531-0.617
		c0.375-0.055,0.728-0.406,1.44-0.206c1.499,0.422,2.052,8.019,2.263,9.463C8554.126,2762.745,8554.36,2765.67,8554.743,2768.791z"
		/>
	<path fill-rule="evenodd" clip-rule="evenodd" d="M7592,2749.248c8.851,0.962,19.781,0.05,28.389,0.411
		c1.175,4.165-4.254,2.784-6.789,3.703c-6.636,2.405-4.938,12.955-4.937,22.423c0,17.13,0.136,33.422,0,50.399
		c-0.025,3.054,0.504,6.295-0.823,8.846c-4.323,0.382-6.688-3.706-8.846-6.377c-13.369-16.548-26.597-33.561-39.908-50.399
		c-2.195-2.776-4.102-5.94-7.2-7.817c-2.576,2.701-1.646,8.11-1.646,13.166c0,9.592-0.259,19.654,0.206,29.417
		c0.358,7.522-1.334,15.007,4.32,17.279c2.587,1.04,7.606-0.821,7.406,3.497c-1.967,1.318-4.652,0.368-6.994,0.206
		c-5.343-0.369-9.748-0.141-15.429,0.206c-2.114,0.129-6.324,0.831-6.789-0.823c-0.838-2.982,5.369-2.51,6.994-3.086
		c6.184-2.191,4.938-10.251,4.938-19.131c0-10.742,0.206-22.469,0.206-32.503c0-11.682,1.466-21.203-6.377-24.892
		c-1.857-0.873-5.393,0.241-5.143-3.497c1.181-1.094,2.972-0.617,4.32-0.617c1.534,0,3.092-0.02,4.731,0
		c2.009,0.023,5.567-0.579,8.023,0.206c1.608,0.515,5.345,6.454,6.583,8.022c12.913,16.357,25.282,32.689,38.057,48.96
		c2.112,2.69,3.855,5.83,6.789,7.611c1.903-1.38,1.234-4.225,1.234-6.377c0-12.131,0-24.622,0-37.44
		c0-5.207,0.438-10.807-1.029-13.988c-1.845-4.003-6.634-3.655-10.697-4.525c-0.198-0.542-0.397-1.763,0-2.263
		C7591.58,2749.512,7591.742,2749.332,7592,2749.248z"/>
	<path fill-rule="evenodd" clip-rule="evenodd" d="M7721.6,2749.248c6.49,0.155,11.671,0.413,17.486,0.617
		c8.084,19.779,15.682,39.737,23.863,59.657c1.105,2.691,2.05,5.578,3.908,7.816c2.015-2.322,2.773-5.476,3.909-8.229
		c8.052-19.516,16.875-39.442,24.892-59.245c6.283-0.077,11.704-0.775,17.486-0.412c0.478,0.504,0.54,1.739,0.206,2.469
		c-4.729,0.944-8.93,1.533-9.463,7.2c-0.552,5.868,0.784,12.277,1.234,18.515c0.831,11.511,1.778,24.019,2.674,35.588
		c0.453,5.844,0.233,11.519,2.263,16.252c0.848,2.361,10.581,0.433,8.64,4.114c-0.75,1.423-4.669,0.732-7.2,0.617
		c-7.293-0.332-16.421,0.081-22.423-0.206c-1.606-4.439,5.987-2.186,7.817-4.114c2.458-2.59,0.586-12.924,0.411-15.634
		c-1.093-16.953-1.881-34.069-2.88-49.989c-9.001,20.23-17.758,41.414-26.743,62.332c-0.947,2.204-2.563,7.896-4.526,8.022
		c-2.532,0.164-3.666-5.675-4.526-7.817c-8.064-20.089-16.603-40.938-24.48-61.097c-1.579,13.018-3.049,29.761-4.32,44.022
		c-0.512,5.742-2.753,14.901,0.412,18.926c1.702,2.165,5.479,2.018,7.817,3.292c0.021,0.843,0.041,1.686-0.206,2.263
		c-7.269-0.48-16.652,0.043-23.452-0.206c-1.499-3.876,4.897-2.703,7.2-4.937c2.795-2.711,3.344-12.119,3.909-17.691
		c1.336-13.182,2.172-23.74,3.703-37.44c0.538-4.818,2.845-15.245,0.412-18.926c-1.753-2.65-6.05-1.899-8.64-3.086
		c-0.08-1.247-0.188-0.942,0-2.057C7721.098,2749.568,7721.304,2749.363,7721.6,2749.248z"/>
	<path fill-rule="evenodd" clip-rule="evenodd" d="M8563.794,2749.248c10.579,0.591,20.292,0.636,30.446,0.205
		c10.379-0.439,19.765,0.029,27.977,3.909c14.011,6.619,25.684,19.995,26.126,39.703c0.55,24.498-15.02,40.633-40.731,41.348
		c-11.64,0.324-19.45-0.914-30.857-0.411c-1.546,0.068-7.248,0.425-10.491,0.411c-1.909-0.008-2.773,0.125-3.086-1.028
		c-0.776-2.868,4.175-2.213,4.526-2.263c6.033-0.852,6.886-3.154,7.2-10.285c0.785-17.813,0.74-40.362,0-58.012
		c-0.142-3.357-0.649-7.313-2.058-8.641c-2.25-2.121-6.385-1.123-9.463-2.263c-0.034-0.654-0.482-1.515,0-2.057
		C8563.374,2749.512,8563.536,2749.332,8563.794,2749.248z M8587.246,2755.625c-1.125,1.835-1.164,6.436-1.234,8.435
		c-0.342,9.615-0.412,16.918-0.412,27.565c0.001,7.096,0.037,11.194,0.206,18.309c0.118,4.977-0.584,12.476,1.44,16.663
		c2.914,6.03,16.86,5.246,23.657,3.908c6.249-1.229,11.916-3.837,16.045-7.405c8.146-7.041,10.497-20.002,9.258-32.298
		c-1.332-13.215-6.532-23.675-13.783-30.034c-5.884-5.16-16.711-9.271-27.978-8.229
		C8591.94,2752.771,8588.564,2753.473,8587.246,2755.625z"/>
</g>
</svg>
