<?xml version="1.0" encoding="utf-8"?>
<!-- Generator: Adobe Illustrator 15.0.0, SVG Export Plug-In . SVG Version: 6.00 Build 0)  -->
<!DOCTYPE svg PUBLIC "-//W3C//DTD SVG 1.1//EN" "http://www.w3.org/Graphics/SVG/1.1/DTD/svg11.dtd">
<svg version="1.1" id="Layer_1" xmlns="http://www.w3.org/2000/svg" xmlns:xlink="http://www.w3.org/1999/xlink" x="0px" y="0px"
	 enable-background="new 0 0 16157.48 4535.43"
	 xml:space="preserve">
<g>
	<path fill-rule="evenodd" clip-rule="evenodd" d="M8386.28,1869.167c-1.513,1.024-1.711,3.363-2.88,4.731
		c6.897,11.088,17.263,19.498,28.388,26.948c30.083,20.145,61.448,39.05,93.395,58.217c2.068,1.241,7.856,4.114,8.229,5.554
		c0.77,2.977-3.18,6.999-3.291,9.669c2.076-0.309,3.51-2.292,5.966-2.263c3.788,0.045,6.424,4.262,9.463,5.349
		c-1.22-16.606,10.387-36.876-1.234-48.343c-0.957,8.479-2.487,15.429-4.32,23.863c-0.313,1.439-0.862,6.669-3.291,5.966
		c-1.624-0.471-0.764-3.926-0.412-5.555c1.236-5.713,2.596-11.54,3.703-17.28c1.651-8.559,0.695-17.781,4.525-23.452
		c-5.484-1.086-11.452-2.646-16.457-4.525c-1.433-0.538-3.959-1.022-3.497-3.292c2.464-1.798,5.331,0.484,7.611,1.234
		c7.245,2.384,16.836,4.754,26.949,4.114c9.106-0.576,16.782-4.131,23.451-7.612c1.992-1.039,4.53-3.326,6.994-2.057
		c0.984,2.232-1.531,2.952-2.88,3.703c-9.719,5.411-22.331,11.143-38.263,8.846c-0.843,1.07-1.751,2.937-2.469,4.937
		c-0.594,1.655-1.718,4.346-1.44,5.966c0.255,1.483,2.664,2.993,3.703,4.32c3.634,4.64,5.304,10.071,4.526,18.514
		c-0.888,9.626-3.348,16.714-3.909,27.36c7.21,3.02,13.824,6.566,20.16,10.697c6.278,4.095,11.56,8.68,16.868,13.988
		c5.409,5.408,11.593,8.876,18.104,12.754c12.915,7.694,20.271,20.77,27.359,34.354c10.391,19.909,22.55,39.124,32.915,59.452
		c14.439-5.489,27.152-11.791,39.085-19.749c5.929-3.953,11.746-7.892,17.897-11.52c6.078-3.585,12.652-6.442,18.72-10.492
		c-2.763-3.734-6.315-6.78-9.668-9.875c-21.848-20.162-46.813-39.167-75.292-53.485c-3.945-1.984-9.466-3.567-8.229-9.669
		c0.517-2.545,2.893-5.182,6.583-4.937c4.242,0.282,10.046,4.32,14.194,6.583c13.579,7.407,25.9,15.718,37.646,24.274
		c17.629,12.843,31.465,25.091,44.435,38.058c5.12-4.541,8.823-8.768,16.251-10.903c0.883-0.253,2.083-0.229,3.086-0.617
		c1.67-0.646,3.57-3.159,5.143-4.525c3.498-3.039,6.25-5.937,11.109-7.817c1.984-0.768,5.663-2.407,7.611-1.852
		c1.076,0.308,0.748,1.005,1.439,2.058c1.208,1.838,3.477,3.309,4.526,5.349c4.904,9.537-3.676,20.123-8.641,24.891
		c-6.785,6.518-13.915,10.455-19.337,16.663c41.814,52.81,73.894,115.368,102.24,181.646c4.951-1.425,9.629-3.125,14.605-4.526
		c-3.9,10.431-8.435,20.229-12.343,30.651c-9.682-5.609-18.729-11.854-28.183-17.691c4.272-1.762,9.164-2.904,13.577-4.525
		c-27.35-63.92-58.267-124.269-98.332-175.475c-6.524,8.18-13.798,15.356-22.628,21.189c-6.713,4.434-12.352,9.272-17.691,15.223
		c-1.694,1.888-3.228,4.013-5.349,5.554c4.501,4.843,11.094,7.086,16.251,11.108c5.183,4.042,8.292,9.739,10.491,16.869
		c11.823-0.146,16.333,5.94,16.869,15.634c0.613,11.099-2.815,18.4-8.641,23.863c-2.994,2.808-5.768,5.161-9.462,6.788
		c-3.68,1.621-7.831,2.313-12.344,3.909c-3.441,1.218-7.265,3.413-10.902,5.349c-3.6,1.915-7.599,3.508-10.286,5.76
		c-1.17,0.981-2.21,2.653-3.291,3.908c-7.526,8.734-17.737,15.683-28.8,21.189c-3.305,11.124-5.863,22.457-7.817,35.382
		c-0.627,4.145-1.649,8.709-1.234,12.961c0.551,5.65,2.641,9.896,2.263,15.017c-0.355,4.823-1.996,9.503-2.469,14.605
		c-0.902,9.749,3.069,20.145,5.761,27.978c2.958,8.613,5.958,17.284,8.022,26.331c2.099,9.197,3.823,18.513,6.172,27.978
		c4.261,17.175,11.674,34.33,15.017,53.485c3.415,19.569,4.371,41.237,2.058,63.771c-1.098,0-2.194,0-3.292,0
		c2.488-26.481,1.011-53.107-4.525-75.085c-2.698-10.711-6.385-21.035-9.669-31.475c-3.352-10.655-5.56-21.573-8.022-32.914
		c-2.29-10.545-5.795-21.572-9.257-31.887c-3.527-10.504-7.032-22.14-4.731-34.148c1.269-6.623,1.947-10.931,0.411-17.691
		c-1.378-6.064-0.934-11.531,0-18.103c1.709-12.032,3.748-22.572,7.2-33.737c-11.5,5.766-27.915,5.01-39.909,10.286
		c-3.93,1.729-7.223,3.845-10.697,6.171c-13.687,9.167-27.314,18.119-42.582,24.892c0.649,6.388-0.559,11.914,0.205,17.074
		c0.419,2.828,2.261,6.487,3.086,9.669c0.89,3.429,1.85,6.84,0.823,10.902c2.54,6.923,3.903,14.463,5.349,22.218
		c4.247,22.801,7.75,48.067,6.582,75.702c-0.758,17.952-1.362,37.424,1.852,52.457c3.295,15.411,8.334,29.645,9.463,45.669
		c-0.892,0-1.782,0-2.674,0c-1.279-1.58-0.941-3.767-1.234-5.554c-2.197-13.414-5.771-25.675-8.641-38.675
		c-3.266-14.798-2.549-33.48-2.057-51.223c0.501-18.083-0.133-35.188-2.263-51.429c-2.112-16.102-5.308-31.259-8.435-45.668
		c-1.047,0.393-1.719,1.16-2.88,1.439c-0.753,0.744-1.03,2.429-1.646,3.291c-4.269,5.98-14.221,9.457-21.188,12.961
		c-19.066,9.586-37.806,18.833-57.188,27.977c-3.895,1.837-7.785,3.859-11.932,4.938c-5.564,8.048-15.246,11.693-23.863,16.251
		c-13.379,7.077-28.564,11.402-42.994,17.28c-4.451,1.813-7.847,4.858-11.932,8.022c-3.876,3.003-8.735,4.569-13.577,6.583
		c-32.616,13.568-66.987,26.74-101.417,38.88c-9.787,3.451-19.632,6.722-29.211,10.697c-0.354,3.872-0.728,7.768-1.029,11.726
		c-0.301,3.954,0.034,7.603,0.206,11.521c0.342,7.772-2.319,14.857-4.114,20.982c-1.028,0-2.058,0-3.086,0
		c1.114-6.04,3.94-12.344,3.909-19.748c-0.031-7.264-0.812-14.83,0.617-22.012c-12.975,6.821-25.642,13.566-42.583,16.046
		c-9.798,1.434-18.108,0.69-24.892-3.086c-5.944-3.31-11.207-7.995-16.663-12.754c-5.927-5.172-10.517-8.729-13.988-15.635
		c-3.151-6.269-5.335-13.96-6.378-23.04c-1.068-9.32-0.451-18.691,0-28.183c0.436-9.146,1.723-18.497,0.617-27.978
		c-0.49-4.207-2.22-7.725-3.085-11.726c-0.906-4.188-1.04-8.375,0-13.166c1.88-8.654,2.665-17.053,2.468-26.948
		c-0.367-18.583-2.33-37.612-3.702-55.337c-0.708-9.152-3.218-17.334-4.114-25.509c-1.534-13.982,5.035-24.429,9.463-34.354
		c1.546-3.466,2.574-7.134,4.114-10.491c3.169-6.906,9.524-9.875,16.457-12.96c-1.884-31.793-3.821-67.315-0.617-99.36
		c0.759-7.583,1.911-15.126,3.292-22.628c1.358-7.388,3.193-14.86,3.496-22.423c0.355-8.858,0.079-16.992,2.469-23.452
		c1.063-2.872,3.008-5.567,4.732-8.229c1.717-2.652,3.655-5.61,5.76-7.2c3.275-2.476,7.008-4.306,10.285-7.2
		c3.095-2.732,6.204-5.422,9.463-8.023c3.482-2.779,5.428-6.5,8.64-8.846c6.585-4.81,15.953-7.343,23.452-11.314
		c10.981-5.817,20.208-14.599,31.68-20.366c8.021-4.032,16.783-6.656,26.126-8.846c9.355-2.192,17.849-4.673,25.714-9.051
		c3.811-2.122,7.37-4.341,11.108-6.377c3.841-2.092,7.896-3.52,12.138-5.143c8.071-3.088,14.955-8.653,23.245-11.52
		c-1.425-12.606,8.748-19.212,10.903-30.035c0.717-3.597,1.005-7.023,2.263-9.874c1.906-4.32,6.29-7.231,10.903-7.817
		c2.682-5.479,3.984-13.822,4.731-22.628c0.218-2.574-0.29-9.071,2.263-8.846c2.224,0.196,1.494,4.698,1.234,8.022
		c-0.239,3.059-0.652,6.496-1.029,9.052C8388.864,1860.311,8387.402,1864.197,8386.28,1869.167z M8371.88,1889.945
		c-2.849,7.968-10.591,14.7-10.08,22.628c0.247,3.837,3.293,7.54,5.555,9.875c2.238,2.312,4.947,4.125,7.2,6.377
		c4.575,4.575,8.562,9.594,12.754,14.399c1.03,1.182,2.456,2.088,3.497,3.292c9.301,10.748,21.477,19.472,33.12,27.977
		c10.521,7.687,21.355,14.847,32.709,21.601c11.415,6.791,23.467,13.837,37.439,16.868c2.426-3.479,2.626-8.044,3.497-12.137
		c2.67-12.547,8.46-23.601,12.138-34.972c-33.67-20.553-68.859-40.897-101.006-63.154c-10.695-7.405-21.145-15.421-27.978-26.743
		c-0.017-1.793-0.592-3.696,0.206-4.937C8372.739,1873.099,8374.614,1882.298,8371.88,1889.945z M8378.874,1938.699
		c-2.267-2.645-4.529-5.765-7.2-8.229c-2.577-2.379-5.53-4.251-7.611-6.583c-1.437-1.61-2.759-4.89-4.525-5.76
		c-0.192-0.095-0.641,0.148-0.823,0.206c-4.016,1.268-7.237,3.566-10.696,5.554c-8.857,5.091-19.265,8.226-27.978,13.372
		c-5.969,3.525-11.838,7.142-18.309,9.257c-13.773,4.501-30.14,6.572-41.966,13.166c-11.766,6.56-21.347,15.585-33.737,21.394
		c-6.302,2.955-13.674,5.24-18.72,8.846c-2.164,1.547-3.478,3.938-5.349,5.966c-1.597,1.73-3.569,3.229-5.349,4.731
		c-3.232,2.73-6.33,5.468-9.257,8.023c-0.278,0.243-1.072,0.457-0.823,1.029c9.698-2.462,19.021-5.58,30.034-4.731
		c6.762,0.521,12.842,3.863,18.309,5.966c4.182,1.607,6.265,2.302,11.521,2.263c10.871-0.083,21.679-4.982,30.24-9.463
		c18.273-9.565,33.285-18.919,53.485-25.92c9.797-3.396,20.814-6.086,29.006-10.903c4.637-2.727,8.171-7.104,12.343-10.902
		c4.279-3.897,9.351-6.607,14.194-9.052C8384.138,1944.194,8381.431,1941.681,8378.874,1938.699z M8372.497,1959.887
		c-4.489,4.261-8.601,8.343-14.194,11.108c-11.618,5.746-24.197,8.573-36.822,13.783c-11.72,4.836-22.772,10.726-33.737,16.663
		c-11.169,6.047-22.376,12.368-35.795,14.811c22.275,6.524,37.431,21.795,48.96,39.086c6.045,9.065,10.866,18.625,13.989,30.034
		c3.106,11.352,4.498,24.702,5.143,38.88c0.335,7.379,0.215,14.466,0.823,21.189c1.813,20.063,6.979,37.404,8.846,57.188
		c2.46,26.07-4.734,45.582-14.4,61.508c-1.03,1.699-4.146,4.938-4.32,6.789c-0.1,1.07,0.72,2.843,1.029,4.32
		c1.003,4.792,1.782,9.821,2.263,14.399c10.521-4.951,22.522-9.413,34.148-13.577c3.981-1.426,7.984-3.304,11.932-4.114
		c9.646-1.98,15.91,5.648,24.274,6.172c4.646,0.29,6.773-2.072,10.079-4.32c6.919-4.704,13.675-9.415,20.777-13.166
		c10.017-5.29,21.491-9.448,31.269-13.783c15.923-7.059,30.96-14.241,46.697-20.777c5.451-2.264,11.515-5.054,18.103-3.291
		c11.601-6.229,24.743-10.915,33.737-19.749c-7.152-12.313-8.73-28.052-10.08-44.229c-1.352-16.204-2.868-33.274-6.171-48.343
		c-3.146-14.349-8.914-28.319-12.755-41.555c-2.136-7.359-4.419-14.72-4.114-23.04c0.146-3.967,1.171-7.704,2.264-11.314
		c1.044-3.453,2.752-7.45,2.468-11.314c-0.357-4.875-3.923-8.44-6.994-11.109c-2.993-2.601-6.559-4.915-10.08-5.965
		c-0.831,4.535-1.246,9.219-5.349,10.08c-2.361,0.496-5.63-0.863-8.434-1.851c-18.544-6.539-34.491-17.052-49.166-26.743
		c-17.849-11.787-34.426-24.379-48.343-38.263c-0.138,0-0.274,0-0.411,0C8382.247,1952.18,8377.168,1955.454,8372.497,1959.887z
		 M8528.018,1982.31c-3.09,1.025-9.491-7.226-11.932-6.789c-2.67,0.623-5.427,2.939-8.023,4.32
		c-2.538,7.61-5.802,14.496-7.405,23.04c7.651,3.037,16.802,8.737,19.131,17.28c0.48,1.762,0.581,3.612,0.412,5.554
		c-0.613,7.025-4.745,13.549-4.731,21.189c0.011,6.379,1.954,13.342,3.703,19.542c5.212,18.485,12.09,34.598,15.223,54.72
		c2.116,13.598,3.226,28.006,4.525,41.966c1.275,13.692,3.015,26.928,9.052,37.646c4.174-2.683,6.908-7.052,9.668-11.314
		c2.779-4.291,5.936-8.409,9.052-12.549c6.038-8.021,11.948-16.487,18.309-24.891c8.935-11.805,18.529-24.709,29.828-34.766
		c5.367-4.777,12.854-9.641,22.423-6.995c1.167-1.302,2.701-2.236,3.909-3.497c-7.851-14.783-15.973-29.327-24.48-44.022
		c-4.097-7.076-7.82-14.834-11.931-22.217c-3.988-7.162-8.644-14.827-14.194-20.16c-4.409-4.236-10.411-7.103-15.635-10.286
		c-5.356-3.265-9.946-7.272-14.4-11.726c-8.956-8.957-19.711-15.566-31.68-20.366
		C8529.178,1979.775,8529.372,1981.86,8528.018,1982.31z M8324.771,2233.076c3.184-13.468,2.31-28.827-0.206-43.611
		c-2.276-13.376-5.564-27.269-6.788-41.554c-1.252-14.612-0.993-30.524-3.086-45.257c-4.16-29.286-15.605-47.696-32.297-64.389
		c-8.073-8.072-17.342-14.047-30.034-18.309c-6.171-2.071-12.316-3.32-18.515-5.76c-7.423-2.921-14.331-6.637-24.068-5.966
		c-12.406,0.855-22.623,4.975-33.12,8.229c-2.072,3.645-4.673,6.41-6.378,10.08c-2.416,5.205-2.675,12.37-2.879,19.749
		c-0.202,7.277-1.305,14.288-2.469,20.16c-2.533,12.776-4.338,26.369-5.349,40.114c-2.138,29.07,0.013,59.113,1.44,87.223
		c24.1-5.592,52.529-8.663,81.051-10.286c14.95-0.851,28.702,0.007,40.938,3.497c8.825,2.518,16.996,6.226,24.274,10.08
		c2.25,1.192,5.94,2.265,6.171,5.349c-1.473,1.842-3.277,0.099-4.525-0.617c-10.329-5.928-21.726-10.812-34.972-13.371
		c-0.675,0.203-0.692,0.649-1.234,1.028c-0.566,0.396-1.173,0.468-1.852,0.823c-5.056,2.642-2.569,9.78-0.205,13.988
		c5.104,9.088,13.543,16.242,19.748,23.451c9.363,10.879,15.398,23.757,19.337,38.263
		C8316.376,2256.715,8321.8,2245.648,8324.771,2233.076z M8760.475,2037.647c-2.547,2-5.168,3.978-6.789,6.377
		c1.243,0.091,2.438,0.337,3.497,0.206c4.975-0.618,10.775-8.79,12.343-11.52C8766.037,2033.89,8763.2,2035.507,8760.475,2037.647z
		 M8615.857,2232.87c6.604,5.504,24.219,9.187,31.68,3.085c5.019-4.104,9.557-13.183,12.549-20.16c1.114-2.6,2.733-5.886,2.88-8.229
		c0.296-4.728-3.173-9.024-5.555-12.137c-6.816-8.909-14.499-14.857-23.04-21.6c-1.315-1.039-4.864-2.942-4.319-4.731
		c0.789-2.593,4.823,0.723,5.76,1.44c0.79,0.604,3.76,2.962,5.143,4.114c7.637,6.364,12.817,10.747,18.926,18.309
		c2.799,3.465,5.885,7.911,6.377,12.343c0.59,5.302-1.645,8.666-3.291,12.549c-1.257,2.963-3.474,6.451-4.114,8.64
		c0.012-0.125,0.03-0.243,0.206-0.205c8.522-3.408,15.024-8.838,20.776-15.018c3.215-2.487,5.627-5.945,8.435-9.463
		c2.801-3.509,6.438-6.331,7.611-10.286c1.441-4.855-2.593-10.889-5.143-14.194c-7.502-9.724-16.004-15.419-25.715-22.629
		c-1.427-1.06-5.549-2.926-4.937-4.937c0.867-2.85,5.243,1.118,5.966,1.646c5.166,3.774,11.985,8.987,16.457,12.754
		c5.99,5.047,14.92,13.163,16.663,22.217c1.638,8.509-3.378,11.809-7.2,16.458c-2.059,2.503-4.016,4.799-5.966,6.994
		c-0.486,0.546-1.507,1.38-1.234,2.263c8.412,1.706,13.287-5.143,16.457-10.08c5.313-8.273,8.391-17.456,12.754-26.332
		c2.022-4.114,5.931-9.363,6.378-13.166c0.783-6.668-3.651-12.899-6.789-16.457c-3.971-4.504-11.043-7.151-16.251-11.109
		c-3.314-2.519-7.335-6.879-9.669-10.697c-0.998-1.632-2.102-4.125,0.206-4.32c2.704-0.228,4.604,7.971,6.994,7.817
		c5.76-7.899,13.021-14.965,21.395-20.572c4.253-2.848,8.447-5.468,12.137-8.846c3.546-3.245,6.666-7.147,9.874-11.109
		c6.127-7.564,12.661-14.72,20.777-21.188c3.566-2.842,7.688-5.926,11.108-9.874c4.626-5.337,10.334-16.11,2.88-21.6
		c-5.874,5.272-8.29,14.336-19.131,12.96c-1.131-0.143-2.841-1.212-4.526-1.234c-4.736-0.062-10.008,4.033-13.371,7.2
		c-3.754,3.535-7.259,6.978-10.697,9.875c-7.708,6.494-17.406,10.526-25.509,15.634c-8.29,5.228-16.816,11.035-25.097,16.046
		c-6.515,3.942-13.659,6.882-20.982,9.874c-3.413,1.395-7.039,2.583-9.052,4.731c-1.547,0.167-2.772,0.656-3.497,1.646
		c8.291,2.291,16.89,6.327,24.479,10.08c1.751,0.866,7.011,2.782,6.583,4.937c-0.505,2.544-3.852,0.253-4.319,0
		c-7.894-4.274-15.471-7.646-24.069-10.491c-5.907-1.955-13.37-4.37-19.543-1.234c-5.219,2.651-10.723,8.244-15.017,12.96
		c-4.683,5.143-8.839,10.415-12.755,15.429c-12.251,15.688-25.077,31.917-36,48.548c-3.807,5.797-8.172,10.6-13.371,14.812
		c-10.723,8.686-22.82,13.589-35.794,20.572c-0.542,0.35-1.763,0.021-2.263,0.411c-1.868,2.066-4.112,3.654-4.32,6.994
		c-0.169,2.706,1.397,6.521,2.263,9.257c6.395,20.216,15.292,40.156,22.834,57.806c6.556-4.691,13.903-8.589,20.572-13.166
		c6.227-2.338,11.888-5.564,17.691-8.435c5.632-2.785,11.404-5.749,16.868-9.257c10.788-6.928,19.891-15.783,33.326-19.132
		c7.792-1.942,15.033-2.828,21.806-4.32c6.865-1.512,12.44-4.63,18.309-7.817c8.463-4.597,16.553-9.814,22.834-16.457
		c1.65-1.746,2.829-3.892,4.32-5.555c0.547-0.61,1.816-0.774,1.233-1.234c-1.794-0.331-3.766-0.485-4.937-1.44
		c-7.489,6.5-14.646,13.331-25.715,16.251c-2.84,3.536-4.93,7.094-9.051,9.463c-5.563,3.198-15.122,2.468-21.806,0.823
		c-7.065-1.739-12.26-5.667-15.429-9.668c-0.35,1.072-1.604,1.948-2.675,1.234c-1.621-1.081,0.087-5.156,0.617-6.583
		c2.352-6.322,7.258-11.428,8.641-17.074c-8.938-0.419-15.428-3.939-21.601-7.406c-1.565-0.879-5.835-2.25-5.143-4.526
		c0.837-2.75,6.118,1.173,6.583,1.44c6.747,3.877,13.372,7.178,23.04,7.405c-1.355-2.688-2.659-6.148-3.703-9.463
		c-0.415-1.316-3.865-9.639-0.617-9.874c1.829-0.133,2.287,3.392,2.469,4.114c1.355,5.404,2.57,10.503,5.349,14.605
		c0.33,0.487,1.101,0.753,1.439,1.234c0.435,0.616,0.431,1.342,0.823,1.852c1.372,1.781,3.655,3.396,5.349,4.32
		c0.782,0.427,5.135,1.076,4.731,3.291c-0.339,1.861-3.172,1.099-4.731,0.412c-1.218-0.537-2.897-1.417-4.32-2.468
		c-0.952-0.705-4.11-4.906-5.349-4.731c-1.043,0.147-1.648,2.557-2.468,4.319c-2.517,5.408-4.772,8.467-7.406,13.577
		C8612.775,2229.39,8613.951,2231.282,8615.857,2232.87z M8728.177,2196.047c3.149-2.849,6.493-6.468,7.817-11.932
		c2.45-10.106,1.166-24.606-11.932-22.834c-0.258,0.084-0.42,0.265-0.411,0.617c-0.222,5.465-3.212,8.788-5.555,13.166
		c-2.094,3.914-3.592,8.229-5.143,11.726c-3.577,8.066-7.464,15.395-11.726,21.6
		C8708.93,2203.723,8720.705,2202.805,8728.177,2196.047z M8303.377,2257.145c-1.259-3.606-2.761-7.261-4.319-10.492
		c-6.603-13.681-16.902-21.885-25.921-32.914c-4.08-4.991-9.902-12.775-8.434-20.571c0.432-2.293,1.585-3.625,2.88-4.938
		c0.496-0.502,1.282-0.261,0.411-0.823c-0.808-0.521-3.409-0.492-5.143-0.617c-5.628-0.408-13.582-0.405-18.103,0
		c-14.586,1.307-30.132,1.541-44.846,3.497c-7.028,0.934-13.93,2.437-20.571,3.497c-3.502,0.559-7.131,0.946-10.492,1.646
		c-3.139,0.652-6.494,1.139-8.846,3.292c-1.523-0.491-1.9-0.211-3.086,0.206c-4.293,1.513-9.57,5.02-11.52,8.023
		c-3.17,4.883-4.049,10.723-6.583,16.045c-2.682,5.633-5.233,10.399-6.788,16.046c-3.612,13.117,2.384,25.769,3.291,39.703
		c1.344,20.629,4.191,42.644,3.497,64.8c-0.223,7.101-1.816,13.144-2.88,19.954c-1.171,7.498,2.139,12.54,3.291,18.515
		c1.307,6.769,0.67,14.716,0.206,21.806c-1.444,22.065-2.12,44.696,5.76,59.863c2.604,5.012,6.126,8.213,10.697,12.137
		c6.869,5.896,17.204,16.571,28.183,17.485c13.001,1.083,23.973-2.786,33.532-6.377c4.851-1.822,9.393-3.914,13.782-6.171
		c4.368-2.246,8.247-5.344,12.549-7.406c4.542-2.178,9.993-3.387,15.017-5.143c38.549-13.476,77.217-28.13,113.555-43.2
		c4.619-1.915,9.501-3.622,13.166-6.377c3.935-2.958,7.026-6.139,11.52-8.022c4.505-1.89,9.174-3.5,14.4-5.35
		c9.475-3.352,18.711-6.833,27.771-11.313c4.029-1.993,8.357-4.283,12.754-6.789c7.063-4.024,15.583-8.889,11.726-19.954
		c-54.245,22.142-104.795,49.617-160.868,69.943c-1.621,0.587-4.996,1.791-5.349-0.206c-0.336-1.903,3.44-2.843,4.114-3.086
		c56.266-20.291,106.053-47.484,160.046-69.325c-4.842-9.696-8.842-20.233-13.783-29.829
		c-63.042,30.585-127.452,61.052-192.96,89.28c-1.137,0.489-5.497,2.96-6.377,0.822c-0.92-2.233,4.102-3.631,4.731-3.908
		c2.698-1.189,4.994-2.061,6.377-2.674c63.647-28.219,126.19-56.533,187.2-86.606c-4.364-9.419-8.341-19.225-12.343-29.005
		c-10.013,2.881-19.759,5.631-30.446,7.816c-10.678,2.184-21.873,3.086-35.177,3.086c-25.616,0-52.219-1.322-68.092,8.229
		c-4.473,2.691-7.043,7.227-9.051,12.96c-5.235,14.948-12.472,27.243-19.543,40.938c-0.512,0.991-1.385,2.883-2.88,2.263
		c-2.496-1.035,2.461-8.838,3.085-10.08c5.236-10.414,11.293-19.899,15.018-30.857c2.822-8.303,5.499-14.357,12.343-18.309
		c6.048-3.49,14.591-5.965,23.451-7.199c19.002-2.648,39.687-0.292,59.246-1.44c19.394-1.139,34.918-6.181,50.812-10.491
		c-3.942-11.387-9.943-24.9-6.583-40.32c-11.071,3.959-19.337,10.118-28.183,16.252c-2.916,2.021-6.256,4.508-9.463,5.554
		c-9.995,3.261-16.638-6.159-26.537-5.966c-3.256,0.063-5.935,1.732-9.052,2.88c-2.713,0.999-5.599,1.89-8.229,2.88
		c-10.938,4.123-22.614,7.576-31.269,13.372c-8.912,5.968-15.773,14.36-26.948,17.691c-13.032,3.884-25.634-2.673-36.206-6.172
		c-5.645-1.868-12.639-3.707-18.72-1.234c-5.102,2.075-9.86,6.141-13.988,10.08c-4.247,4.053-7.465,8.873-10.286,13.783
		c-5.648,9.828-11.262,21.876-15.429,32.914c-4.628,12.257-7.233,23.29-10.491,37.852c-2.078,9.29-4.251,19.329-7.817,28.389
		c-0.41,1.042-2.396,8.139-4.937,6.788c-1.486-0.789-0.333-2.83,0.205-4.114c4.416-10.53,7.063-21.88,9.668-33.531
		c6.334-28.307,13.912-50.401,26.949-71.794c3.016-4.947,6.342-9.59,10.903-13.783c4.146-3.811,9.514-8.246,14.605-10.08
		c7.313-2.633,16.141-0.151,22.629,2.058c6.808,2.317,13.491,5.461,20.982,6.377c9.529,1.165,15.656-2.011,20.982-5.76
		c5.395-3.797,9.835-7.897,15.224-12.138c-1.49-5.408-1.445-12.43-3.086-17.485c-0.373-1.148-1.106-1.767-1.646-2.675
		C8307.063,2266.4,8305.024,2261.866,8303.377,2257.145z M8504.771,2247.27c-2.16-6.432-5.064-13.284-1.234-18.926
		c0.601-0.884,3.657-3.102,0.823-2.468c-6.428,1.436-12.787,4.709-18.926,7.406c-18.231,8.007-36.835,16.54-54.721,24.48
		c-3.466,10.456-0.838,21.492,2.058,30.24c8.926,26.969,21.481,50.171,31.68,75.292c20.649-8.426,41.633-16.516,63.36-23.863
		c2.606-6.376,4.562-13.404,6.583-20.365C8524.209,2297.776,8512.996,2271.763,8504.771,2247.27z M8553.525,2290.881
		c0.659,2.016,1.621,3.729,2.469,5.555c0-2.194,0-4.389,0-6.583C8554.906,2289.93,8554.388,2290.578,8553.525,2290.881z
		 M8536.04,2314.745c3.003,0.531,3.66,2.35,5.76,4.32c3.317,3.111,7.997,7.883,13.166,8.434c7.628,0.813,5.463-7.609,4.114-12.549
		c-2.209-8.086-5.547-15.936-8.64-22.217c-6.286,3.246-13.401,7.445-18.926,12.137
		C8532.955,2308.229,8534.7,2311.284,8536.04,2314.745z M8530.28,2342.104c-21.478,7.598-43.046,15.104-63.154,24.069
		c1.039,2.424,1.386,6.663,0.617,9.668c22.283-10.153,44.979-21.374,66.651-32.091c7.283-3.603,15.534-6.715,20.16-12.96
		c-7.879-1.448-11.891-6.762-17.074-10.903C8535.599,2327.812,8533.271,2335.289,8530.28,2342.104z"/>
	<path fill-rule="evenodd" clip-rule="evenodd" d="M7479.903,1874.927c44.686,26.22,90.388,51.414,131.04,81.669
		c1.853-7.513,3.339-15.414,5.143-23.246c0.555-2.41,1.641-4.929,1.028-7.405c2.023-2.168,2.558-5.371,3.703-8.229
		c1.144-2.854,2.546-5.568,3.703-8.229c-13.359-1.831-24.255-5.635-35.794-10.08c-1.8-0.693-10.286-3.003-9.257-5.554
		c1.063-2.635,7.7,1.592,8.846,2.057c9.394,3.814,18.839,6.722,29.417,9.051c11.943,2.63,23.599,2.06,32.914-2.057
		c1.323-0.585,2.753-1.54,4.114-2.263c1.132-0.602,2.93-1.931,4.32-0.412c0.078,2.868-3.45,3.922-5.554,4.938
		c-6.658,3.214-15.609,5.632-25.714,4.731c-1.461,4.044-3.564,7.613-5.143,12.137c-0.491,1.407-1.506,3.32-1.44,4.32
		c0.056,0.841,1.628,2.539,2.263,3.497c2.356,3.559,4.268,7.163,4.938,12.137c0.924,6.864-0.199,14.61,0.617,22.011
		c1.443,13.096,8.216,23.241,14.4,31.063c3.575,4.523,7.008,8.449,10.697,12.137c3.769,3.769,8.65,6.086,12.754,9.874
		c7.87,7.263,13.767,15.676,18.926,26.332c5.026,10.382,10.219,19.844,16.457,29.006c6.249,9.176,11.396,18.568,16.251,29.005
		c4.758,10.228,9.448,21.214,14.4,31.063c2.292,4.56,5.023,10.089,8.229,14.399c3.293,4.429,7.936,9.081,8.846,13.783
		c0.738,3.814-0.265,8.125,0.617,11.314c2.793-13.982,2.854-28.859,3.908-41.76c1.121-13.724,9.659-20.29,17.897-27.771
		c8-7.265,16.308-14.053,23.246-22.423c5.165-6.231,10.492-12.449,15.634-18.72c1.757-2.143,2.373-4.764,3.909-7.405
		c2.068-3.557,5.432-6.561,8.229-9.669c2.774-3.083,5.907-5.944,9.051-8.64c-15.172-12.145-34.101-25.026-53.074-34.972
		c-2.682-1.406-6.633-2.801-8.023-4.525c-3.72-4.617,0.044-10.731,5.349-10.492c2.847,0.129,6.451,2.416,9.257,3.909
		c20.09,10.688,38.346,23.184,55.337,36.617c6.654-8.25,14.381-19.319,22.834-27.771c2.641-2.641,6.433-6.034,10.491-6.377
		c0.867-0.073,1.958,0.196,2.88,0.206c5.494,0.058,7.128,2.988,10.286,5.965c2.313,2.182,3.577,4.189,4.114,7.2
		c1.177,6.6-2.783,12.208-5.143,17.28c-4.93,10.598-12.281,18.163-19.337,26.125c56.781,56.433,94.644,131.772,128.983,210.651
		c4.951-1.425,9.629-3.125,14.605-4.526c-3.901,10.431-8.435,20.229-12.343,30.651c-9.341-5.613-19.432-11.857-27.977-17.896
		c4.417-1.48,8.991-2.803,13.371-4.32c-33.244-75.916-69.365-148.976-124.045-203.451c-8.388,13.897-17.789,26.783-23.246,43.611
		c7.825-1.346,18.114-3.278,27.771-3.703c10.865-0.478,16.109,4.446,20.16,11.52c8.105-0.123,12.317,10.011,8.846,17.075
		c-1.761,3.582-6.137,6.564-9.668,8.846c-0.477,0.308-0.84,0.274-1.234,0.617c-1.392,1.209-3.453,3.172-5.143,4.115
		c4.719,4.211,13.591,8.938,12.96,17.485c-0.196,2.653-2.238,5.639-3.292,8.435c-1.969,5.225-3.68,9.887-8.64,11.931
		c4.957,4.054,10.151,9.378,8.229,17.074c-2.816,11.272-12.989,24.363-22.217,29.417c-0.905,0.495-1.792,0.952-2.88,0.617
		c-3.742,9.211-6.843,17.992-10.697,26.125c-5.878,12.405-15.676,20.459-26.125,28.8c-3.382,2.699-5.828,6.16-9.051,9.257
		c-6.577,6.318-15.643,8.133-24.069,12.549c1.637,3.896,3.503,7.23,5.349,11.52c1.352,3.142,4.639,9.342,3.292,12.96
		c-0.425,1.143-1.953,1.229-3.497,2.469c-1.082,0.868-2.174,2.252-2.88,2.88c-14.101,12.534-34.357,21.263-49.577,31.681
		c-1.306,14.087-0.834,29.891-1.44,45.051c-0.086,2.159-0.538,4.805-0.206,6.377c0.27,1.277,2.38,3.223,3.086,5.143
		c5.817,15.831-1.321,35.043-0.206,52.663c0.51,8.062,3.781,15.387,5.555,23.04c1.894,8.171,3.161,16.063,3.703,24.274
		c-3.963,1.138-3.185-2.302-3.703-5.76c-0.915-6.101-2.021-12.309-3.292-17.897c-1.807-7.948-4.69-14.783-5.349-23.04
		c-1.434-17.983,5.104-36.188,0.206-52.251c-0.952,29.798-2.336,62.139-3.085,93.395c-0.073,3.039,0.782,6.885-2.469,5.554
		c-1.119-0.458-0.866-2.144-0.823-4.319c0.478-24.223,1.588-48.391,2.263-72.617c0.721-25.9,1.445-51.507,2.263-77.144
		c-16.505,9.827-33.605,20.84-50.4,31.063c-5.37,37.135-0.135,76.335,5.76,109.028c0.853,4.73,2.406,9.321,2.057,13.988
		c-3.52,0.922-3.342-3.118-3.703-4.937c-6.835-34.479-12.761-75.72-7.611-115.817c-60.611,35.466-121.496,71.282-191.314,98.126
		c-17.646,6.784-35.094,13.025-53.28,19.131c-5.698,1.913-11.658,4.567-20.571,3.497c60.961-19.555,117.336-42.322,169.714-70.354
		c45.654-24.433,89.506-50.354,132.686-77.348c6.049-3.782,12.292-7.491,17.897-11.932c4.642-2.131,8.958-5.031,13.372-7.611
		c13.089-7.654,27.084-14.65,37.852-24.892c-4.975-2.157-8.931-6.43-12.549-9.257c0.787,15.424-10.769,22.421-20.983,28.183
		c-21.55,12.155-46.572,18.763-69.12,29.828c-33.224,16.306-63.291,35.022-97.303,51.018c-20.685,9.728-42.061,19.071-64.8,27.771
		c-1.062,0.406-3.68,1.338-4.32-0.205c-0.953-2.297,3.792-3.127,4.731-3.497c13.99-5.506,28.862-11.695,41.76-17.485
		c16.016-7.19,31.504-14.051,46.08-21.807c29.98-15.95,57.393-33.08,89.485-46.285c-5.075-9.531-10.564-18.647-15.428-28.389
		c-39.807,21.817-80.004,44.101-122.4,63.977c-11.935,5.596-23.77,11.669-36.617,17.691c-0.712,0.334-4.291,2.457-5.143,0.412
		c-0.856-2.054,3.396-3.259,3.909-3.497c54.338-25.28,107.56-52.965,158.605-81.463c-4.92-10.303-9.98-20.466-14.194-31.475
		c-4.157,2.801-9.281,3.97-14.194,5.761c-14.189,5.169-29.602,10.824-44.64,15.223c-5.803,1.697-12.518,0.807-18.926,1.028
		c-6.387,0.221-12.626,0.328-17.897,2.058c-4.825,1.582-9.129,4.453-13.989,5.965c-5.199,1.618-10.729,1.194-15.429,4.32
		c-0.187,10.92,6.531,22.724,2.057,34.148c-1.754,4.479-6.607,9.281-10.286,12.96c-11.571,11.571-24.344,21.948-34.354,34.766
		c-12.113,15.511-23.042,30.353-33.532,47.108c-1.223,1.954-2.178,5.864-5.554,5.555c-1.208-2.863,1.631-5.238,2.88-7.2
		c15.968-25.076,32.632-49.526,54.309-69.531c3.852-3.555,7.673-7.352,11.52-10.903c3.908-3.606,7.933-7.408,10.697-11.725
		c4.643-7.252,1.785-18.316,0-26.743c-1.2-5.663-2.565-10.52,2.469-12.755c4.771-2.118,10.826-1.706,15.84-3.703
		c4.977-1.98,9.293-4.443,13.783-5.76c5.495-1.609,11.612-1.645,17.897-1.646c5.773,0,12.829,0.471,18.309-1.234
		c17.302-5.382,34.425-11.295,51.017-17.485c2.329-0.869,4.595-2.451,7.2-2.058c-4.707-12.984-11.065-24.317-12.548-40.525
		c-10.377,3.452-18.176,13.046-27.771,19.132c-2.827,1.792-7.724,4.751-11.108,4.937c-7.566,0.415-13.367-1.726-19.749-1.852
		c-7.631-0.15-12.64,1.73-16.868,4.731c-4.392,3.117-7.863,6.012-11.726,9.875c-1.889,1.889-3.364,3.941-4.525,6.377
		c-1.601,3.356-2.619,7.793-6.171,9.874c-5.982,3.503-14.46,3.415-20.572,7.611c-2.588,1.777-4.269,5.658-7.817,6.378
		c-2.407,0.487-6.04-0.869-9.668-1.029c-21.575-0.949-43.145,1.149-58.834,7.406c-1.044,0.416-6.554,3.652-7.611,1.646
		c-1.126-2.138,2.839-3.268,4.32-3.909c2.323-1.006,4.195-1.672,6.171-2.469c-6.195-0.673-11.786,0.045-16.045,2.058
		c-3.366,1.59-5.468,4.997-7.817,7.611c-2.525,2.812-5.316,5.104-9.257,6.172c-7.954,2.155-18.829,1.13-28.183,2.674
		c-8.423,1.392-15.134,5.062-20.571,10.286c-5.458,5.243-10.86,10.324-15.429,15.223c-17.638,18.909-31.988,38.964-33.326,74.674
		c-0.114,3.045,1.315,13.218-0.823,13.578c-3.002,0.505-2.525-8.893-2.469-11.727c0.84-42.492,19.777-64.416,41.349-85.988
		c4.442-4.441,9.522-9.839,14.812-13.371c5.796-3.871,13.47-5.896,21.6-6.583c8.782-0.742,18.786,0.392,25.097-3.086
		c4.538-2.501,7.135-8.001,11.314-11.108c4.589-3.412,15.625-5.228,22.628-3.291c0.924,0.255,1.918,0.965,2.88,1.028
		c3.065,0.202,4.933-1.818,8.64-1.852c-1.98-4.903-6.125-8.859-4.731-16.046c1.354-6.982,8.059-10.865,8.435-18.926
		c0.248-5.315-3.419-10.178-5.966-14.194c-7.749-12.222-16.31-24.296-24.48-35.588c-11.142-15.399-22.74-31.825-34.766-45.463
		c-6.277-7.119-13.043-13.661-19.749-20.366c-6.594-6.595-12.145-14.361-18.103-22.012c-10.602-13.612-20.207-26.355-29.829-40.525
		c-0.6-0.883-4.188-5.101-2.263-6.377c1.82-1.208,4.264,3.208,5.143,4.525c9.278,13.913,19.058,26.639,29.211,39.909
		c5.904,7.715,11.577,14.929,17.897,21.806c6.263,6.813,13.336,12.953,19.543,19.955c6.046,6.82,11.736,14.548,17.485,22.217
		c14.082,18.784,28.024,37.375,41.143,57.806c2.635,4.104,5.866,8.525,7.2,12.549c3.772,11.378-5.825,17.134-7.611,24.892
		c-1.583,6.878,2.958,10.202,5.143,15.223c12.777-0.758,29.944-3.415,44.023-1.028c0.835,0.142,1.688,0.661,2.263,0.617
		c2.147-0.164,4.172-3.431,5.966-4.938c3.997-3.357,9.656-4.927,15.223-6.583c2.881-0.856,6.823-1.527,8.229-3.291
		c2.024-2.542,2.351-5.495,3.497-7.817c3.496-7.079,10.686-11.996,17.075-16.663c4.329-3.162,8.979-5.643,16.663-5.76
		c7.328-0.111,13.553,1.979,20.571,1.852c4.827-0.089,9.744-3.713,13.166-6.172c3.986-2.864,7.392-5.821,10.697-8.435
		c7.563-5.979,15.568-9.893,24.068-14.194c-1.652-18.272-2.774-36.209-7.406-52.045c-2.885-9.867-7.917-18.858-9.668-29.829
		c-0.925-5.793-0.062-11.86-1.234-18.103c-4.249-22.623-7.447-44.702-14.194-64.8c-3.309-9.856-7.444-19.063-11.108-28.389
		c-1.957-4.98-3.705-10.061-4.114-15.634c-0.439-5.969,0.618-11.656,2.057-17.691c1.588-6.662,1.499-11.328-1.44-15.84
		c-2.439-3.745-5.939-6.566-10.697-9.051c-1.25,2.849-1.471,5.579-4.32,6.583c-2.217,0.781-6.608-0.612-9.463-1.44
		c-8.638-2.507-16.402-6.108-23.657-9.669c-29.75-14.601-56.843-34.399-80.023-53.691c-8.596,7.613-17.322,13.942-27.977,19.132
		c-10.804,5.262-23.252,7.414-35.177,11.931c-10.89,4.125-20.583,10.896-30.446,16.663c-10.061,5.884-19.879,11.719-28.8,18.104
		c9.455,3.646,17.438,6.873,24.891,11.52c7.359,4.588,12.736,11.156,18.515,17.897c10.999,12.831,21.401,27.141,30.445,42.171
		c8.848,14.705,17.334,31.263,21.806,50.812c4.061,17.756,1.23,40.07-3.909,55.543c-0.879,2.648-1.719,5.688-3.497,5.143
		c-2.322-0.711-0.875-2.822-0.206-4.731c4.085-11.666,7.109-25.899,6.171-41.76c-0.975-16.5-6.821-30.92-12.343-42.788
		c-11.484-24.687-27.113-46.256-44.229-66.035c-4.414-5.101-8.636-9.969-14.194-13.372c-10.928-6.688-24.677-11.962-38.88-16.251
		c-6.952-2.1-15.855-4.187-23.451-2.058c-3.488,0.978-6.272,2.729-9.257,4.526c-5.94,3.574-11.348,6.354-16.046,11.52
		c-2.211,2.432-4.763,5.011-6.171,7.611c-3.095,5.715-1.709,16.324-3.085,24.48c-1.372,8.13-2.689,15.28-3.703,23.862
		c-4.014,33.996-1.796,72.894-0.206,106.561c1.649,34.901,4.304,70.104,5.143,105.12c0.442,18.458,0.771,35.954,2.469,52.662
		c1.705,16.776,3.939,32.912,5.76,49.372c0.983,8.888,1.154,17.181,2.468,25.097c3.461,20.848,11.857,39.123,21.188,54.721
		c0.835,1.395,2.007,2.979,2.469,4.319c0.951,2.759,1.088,5.457,1.852,7.817c5.466,16.906,16.273,27.688,29.829,37.028
		c-4.877,0.66-6.964-0.705-9.875-3.086c-9.418-7.701-17.903-18.193-22.217-30.239c-0.025,5.717,0.357,11.633,1.029,17.279
		c0.667,5.605,2.234,11.01,1.852,16.046c-2.852,0.875-2.975-1.437-3.292-3.291c-2.114-12.394-3.673-28.005-3.086-41.555
		c-7.768-12.866-14.353-26.377-19.131-41.966c-4.986-16.266-5.418-34.171-7.611-53.279c-2.021-17.605-4.478-36.11-5.76-55.132
		c-1.305-19.359-1.165-39.185-2.057-58.834c-0.87-19.153-1.899-38.479-3.085-57.806c-2.871-46.777-5.818-100.788,1.028-145.029
		c0.686-4.432,1.491-8.818,2.057-13.165c0.627-4.81,0.229-9.567,0.617-14.606c0.469-6.092,3.55-9.839,6.789-13.577
		c3.882-17.603,15.992-28.148,28.8-37.44c18.873-13.692,36.87-29.088,59.04-39.292c3.822-1.759,7.492-3.644,11.52-4.937
		c4.072-1.307,8.491-1.63,12.96-3.292c3.818-1.42,6.854-3.736,10.286-6.171c9.44-6.7,21.419-11.882,31.886-17.074
		c-2.13-4.142,0.181-7.336,1.646-11.314c0.807-2.192,1.42-4.679,2.057-6.994c1.281-4.652,3.247-9.912,3.703-14.606
		c0.275-2.837-0.698-5.793,0.206-8.023c1.833-4.522,7.969-6.2,13.166-5.554c1.75-5.993,2.752-13.93,3.909-21.6
		c0.354-2.343,0.652-5.963,1.646-6.994c3.754-2.223,2.002,5.656,1.646,8.023C7483.924,1856.988,7482.017,1868.727,7479.903,1874.927
		z M7467.766,1876.162c-0.455,1.818,0.304,4.075,0.206,5.966c-0.247,4.75-2.426,10.624-3.703,15.223
		c-0.558,2.011-1.38,4.731-2.263,7.2c-0.839,2.348-2.424,5.104-2.263,7.2c0.257,3.333,4.275,6.209,6.995,8.229
		c6.195,4.6,11.951,8.671,17.691,13.166c2.83,2.215,5.385,5.18,8.434,6.994c0.68,0.404,1.629,0.702,2.469,0.823
		c0.303,0.912,0.859,1.676,1.44,2.263c3.347,3.379,8.01,6.249,12.137,9.463c24.498,19.08,49.902,37.014,80.64,49.372
		c5.253,2.111,10.928,4.326,16.869,4.525c1.976-2.637,2.122-6.451,2.469-10.08c1.117-11.69,2.327-23.52,3.909-34.148
		c-38.65-29.272-83.748-55.725-127.749-80.435c-2.09-1.173-8.153-4.077-8.435-5.554c-0.337-1.775,1.324-2.229,0.823-4.526
		C7472.758,1871.745,7468.582,1872.9,7467.766,1876.162z M7459.332,1917.921c-6.235,3.133-14.244,6.665-21.395,10.492
		c-6.759,3.617-12.67,8.864-19.131,12.137c-3.934,1.993-8.071,2.536-12.137,3.497c-4.011,0.948-7.828,2.478-11.52,4.114
		c-21.447,9.508-38.755,24.138-56.777,36.823c-12.12,8.531-24.668,17.839-30.24,32.297c0.525,0.421,0.99-0.43,1.234-0.617
		c3.705-2.842,7.4-4.99,11.52-7.406c4.678-2.743,9.157-5.943,15.223-6.377c12.795-0.916,21.748,3.409,31.68,6.377
		c9.377-6.023,18.958-12.331,29.006-18.309c9.853-5.862,19.899-12.316,30.651-16.869c11.656-4.936,24.409-6.975,35.588-11.932
		c11-4.876,19.797-11.574,28.183-19.337C7480.971,1934.133,7469.383,1926.796,7459.332,1917.921z M7613.823,1958.447
		c0.623,1.349,1.934,1.332,2.263,2.88c0.561,2.637-1.271,6.411-1.029,9.257c1.073-0.22,2.056-1.456,3.497-1.646
		c4.047-0.533,6.843,3.643,9.257,4.525c-3.054-6.709-1.839-17.42-2.263-26.743c-0.306-6.75-2.128-11.946-5.348-15.634
		c-0.012-0.125-0.031-0.244-0.206-0.206C7618.061,1940.194,7616.018,1949.397,7613.823,1958.447z M7635.011,1988.893
		c-1.397-2.359-2.227-5.1-3.703-7.2c-1.227-1.745-3.53-3.391-5.554-5.143c-1.455-1.259-4.255-4.508-6.583-4.32
		c-2.011,0.162-3.034,2.332-4.32,3.703c11.03,10.775,22.409,22.3,34.766,31.063
		C7644.463,2002.145,7638.856,1995.384,7635.011,1988.893z M7736.429,2219.499c2.852-7.519,6.084-15.68,8.64-23.657
		c0.865-2.698,2.097-5.788,2.469-8.434c0.898-6.386-0.167-13.729-0.617-19.542c-0.169-2.186,0.373-4.548,0-6.583
		c-0.464-2.536-3.661-6.051-5.554-8.64c-2.125-2.905-4.355-5.818-5.966-8.434c-11.167-18.142-18.138-40.07-28.183-58.217
		c-3.338-6.031-7.47-11.595-11.314-17.28c-11.616-17.179-17.969-40.082-34.354-52.046c-3.619,1.811-6.553-1.148-9.462-3.292
		c-13.646-10.05-26.727-22.372-38.057-33.532c-0.012-0.216-0.264-0.162-0.206,0.206c-0.762,6.507-1.482,13.055-2.057,19.749
		c7.641,4.181,15.662,9.054,16.457,19.543c0.521,6.861-2.834,12.93-3.291,19.749c-0.997,14.863,5.458,24.664,9.874,35.794
		c3.646,9.188,7.202,19.272,9.668,29.212c3.893,15.682,6.225,32.418,9.463,48.754c0.576,2.904,1.121,5.556,1.234,8.435
		c0.128,3.267-0.257,7.542,0.206,10.491c1.994,12.695,8.758,23.708,11.52,37.44c2.83,14.067,4.667,27.945,5.555,43.611
		C7693.569,2242.332,7715.027,2230.394,7736.429,2219.499z M7876.52,1995.682c-3.794,1.365-8.635,9.283-10.08,12.548
		c-0.979,2.212-1.565,5.139-0.823,6.789c1.448,3.216,7.077,3.073,10.08,1.439c3.314-1.802,8.585-8.128,9.463-11.931
		c0.96-4.163-2.699-9.399-6.995-9.051C7877.681,1995.515,7876.986,1995.514,7876.52,1995.682z M7861.708,2005.967
		c-1.974,2.365-4.169,4.666-6.171,6.994c-4.06,4.723-7.372,10.356-11.314,15.223c-5.909,7.294-13.646,12.782-19.749,19.749
		c-2.132,2.434-4.699,4.826-6.171,7.2c-1.101,1.776-1.925,4.938-3.085,6.583c-3.602,5.105-8.862,10.121-13.372,15.634
		c-4.539,5.551-8.954,10.845-13.783,15.429c-9.498,9.015-23.159,17.671-28.389,29.829c-3.003,6.981-2.236,18.249-2.88,26.125
		c-2.271,27.784-7.554,49.956-17.074,70.56c0.217,5.978,2.12,10,4.114,15.017c4.488,11.292,9.441,22.658,13.988,32.914
		c6.496,14.653,13.843,28.091,20.366,41.966c4.656-3.511,9.549-7.596,15.84-10.491c6.169-2.839,12.937-4.48,17.897-8.435
		c3.177-2.532,5.629-6.429,9.051-9.463c3.186-2.824,6.854-5.337,10.286-8.229c6.824-5.748,12.597-12.277,16.663-20.365
		c3.994-7.944,6.554-17.507,10.697-26.332c2.607-5.554,7.001-11.808,11.931-15.84c-0.016,0.014,4.933-4.519,5.554-1.234
		c0.368,1.941-3.239,3.329-4.114,4.114c-2.802,2.515-6.347,6.776-7.406,9.463c6.449-4.57,12.601-11.935,16.458-20.16
		c1.386-2.957,3.179-6.28,2.88-9.463c-0.479-5.093-4.422-7.635-7.611-10.492c-0.831-0.412,0.165-1.986-0.617-2.057
		c-4.283,0.212-7.075-0.605-11.932-0.412c-1.585,0.063-10.507,1.642-10.697-1.029c-0.196-2.763,9.388-2.173,11.52-2.263
		c4.957-0.209,9.542,1.475,12.96,0.206c4.403-1.635,5.859-8.381,7.612-12.755c0.72-1.797,1.951-3.29,2.057-4.937
		c0.184-2.86-1.851-5.735-3.497-7.612c-2.75-3.134-6.537-5.503-9.669-7.817c-5.793,1.849-15.679,2.047-23.863,1.646
		c-2.603-0.128-7.021,0.251-6.583-2.263c0.33-1.888,4.977-1.126,7.2-1.028c12.633,0.555,24.238,0.093,29.623-6.377
		c2.457-2.953,5.955-9.649,5.76-14.606c-0.154-3.91-2.137-5.305-4.114-7.817c-2.755-3.5-4.776-6.941-8.64-8.846
		c-4.191-2.066-11.671-1.101-17.485-0.412c-11.255,1.334-20.947,3.336-31.475,5.966c-1.242,0.311-5.186,1.673-5.349-0.617
		c-0.138-1.954,4.043-2.55,6.172-3.086c3.056-0.77,4.715-0.996,7.611-1.646c6.23-18.989,16.266-33.371,25.92-49.166
		c6.859-11.221,17.864-19.956,24.068-32.297c2.598-5.167,6.205-10.729,5.76-17.691c-3.781,5.978-7.725,15.566-17.28,15.634
		c-3.655,0.026-7.18-1.368-8.64-4.526c-3.452-7.464,4.186-13.79,5.965-18.103
		C7866.328,2000.561,7864.006,2003.214,7861.708,2005.967z M7886.806,2131.248c4.815-1.906,6.371-12.891,1.234-15.429
		C7891.083,2120.33,7888.26,2127.73,7886.806,2131.248z M7673.686,2256.116c-2.942,1.491-6.059,2.858-8.64,4.938
		c0.775,14.567,6.58,26.429,11.314,38.263c2.344,5.859,4.63,11.734,7.2,17.485c2.516,5.632,4.98,11.65,8.023,16.869
		c0.563,0.966,1.356,1.663,2.263,2.469c-0.279,1.049,0.065,1.831,0.412,2.674c1.97,4.801,5.108,9.221,7.611,13.783
		c2.547,4.643,5.017,9.273,7.611,13.782c17.034-6.852,37.432-13.341,52.663-23.04c5.064-3.225,10.536-7.212,13.371-11.932
		c2.476-4.12,3.455-12.894,0-17.485c0.23-0.841,0.149-1.772,0-2.468c-0.712-3.334-3.111-7.368-4.937-10.903
		c-5.424-10.503-11.207-21.286-15.84-31.886c-6.546-14.978-13.23-29.507-18.103-45.463
		C7716.198,2233.366,7694.339,2245.654,7673.686,2256.116z M7788.68,2305.487c-1.493,1.056-2.831,2.139-4.938,3.703
		c-1.424,1.058-4.185,2.315-4.32,3.703c-0.117,1.204,2.381,3.615,3.292,4.525c3.991,3.991,8.796,8.414,14.4,9.463
		C7796.133,2318.741,7791.958,2312.016,7788.68,2305.487z"/>
	<path fill-rule="evenodd" clip-rule="evenodd" d="M7632.749,2043.407c6.212-1.749,9.119,11.329,3.703,12.343
		C7631.109,2056.75,7627.018,2045.02,7632.749,2043.407z"/>
	<path fill-rule="evenodd" clip-rule="evenodd" d="M8527.812,2044.642c9.65-1.596,10.274,16.954,1.646,17.074
		C8521.374,2061.829,8519.697,2045.984,8527.812,2044.642z"/>
	<path fill-rule="evenodd" clip-rule="evenodd" d="M7329.937,2089.899c2.548-1.731,4.229,3.438,5.349,5.349
		c15.849,27.025,33.218,53.009,52.251,77.349c1.487,1.901,4.809,5.212,6.789,8.229c0.916,1.395,1.091,2.707,0,3.291
		c-1.701,0.91-4.754-3.574-5.349-4.32c-20.792-26.087-39.196-53.601-56.571-83.314
		C7331.295,2094.583,7329,2092.465,7329.937,2089.899z"/>
	<path fill-rule="evenodd" clip-rule="evenodd" d="M7822.623,2135.773c0.889-0.088,2.358-0.315,2.468,1.234
		c0.152,2.149-6.632,3.521-8.229,4.32c-6.919,3.463-11.335,9.541-15.017,16.251c-0.641,1.169-1.234,3.666-3.086,3.086
		c-2.857-0.895,1.817-7.186,2.469-8.229c3.41-5.462,6.591-9.653,12.549-12.96
		C7816.517,2137.956,7819.582,2136.076,7822.623,2135.773z"/>
	<path fill-rule="evenodd" clip-rule="evenodd" d="M7666.28,2168.893c2.456-0.322,4.864,4.439,4.731,8.435
		c-0.077,2.333-0.968,4.63-2.674,4.731C7664.736,2182.273,7660.693,2169.626,7666.28,2168.893z"/>
	<path fill-rule="evenodd" clip-rule="evenodd" d="M8553.731,2173.418c7.892-1.448,8.808,15.232,1.852,15.429
		C8549.055,2189.032,8546.971,2174.66,8553.731,2173.418z"/>
	<path fill-rule="evenodd" clip-rule="evenodd" d="M8631.286,2263.11c3.07-2.295,3.177,3.77,3.497,5.966
		c5.605,38.431,8.067,77.479,10.08,120.138c1.524,32.334,3.463,66.597,1.851,101.211c-0.354,7.597-0.805,16.428-1.439,24.48
		c-0.175,2.219-0.26,6.506-2.263,6.377c-2.149-0.139-1.418-4.591-1.234-6.994c1.437-18.81,2.262-38.33,2.263-58.012
		c0.001-23.062-1.665-45.074-2.675-66.24c-1.851-38.811-3.67-76.438-8.64-112.114
		C8632.04,2272.997,8630.735,2268.04,8631.286,2263.11z"/>
	<path fill-rule="evenodd" clip-rule="evenodd" d="M8570.395,2311.248c5.275-0.866,6.705,14.146,2.057,14.605
		C8568.112,2326.282,8565.043,2312.125,8570.395,2311.248z"/>
	<path fill-rule="evenodd" clip-rule="evenodd" d="M7737.046,2326.676c7.385-1.23,12.959,3.854,12.96,9.874
		c0,12.497-19.955,9.165-19.955-2.058C7730.052,2330.344,7732.981,2327.352,7737.046,2326.676z"/>
	<path fill-rule="evenodd" clip-rule="evenodd" d="M8495.309,2327.705c5.81-0.787,12.889,3.396,10.286,10.491
		c-2.647,7.215-15.064,7.163-17.691,0C8485.77,2332.381,8490.279,2328.385,8495.309,2327.705z"/>
	<path fill-rule="evenodd" clip-rule="evenodd" d="M8367.354,2380.368c6.415-1.011,10.581,6.695,6.994,12.548
		c-3.029,4.942-9.848,3.4-11.932,0C8359.195,2387.66,8362.24,2381.172,8367.354,2380.368z"/>
	<path fill-rule="evenodd" clip-rule="evenodd" d="M7611.971,2390.448c5.781-0.863,10.402,3.706,8.229,9.257
		c-3.074,7.849-17.629,4.153-13.989-5.144C7606.924,2392.742,7608.866,2390.911,7611.971,2390.448z"/>
	<path fill-rule="evenodd" clip-rule="evenodd" d="M7695.491,2445.579c4.95-1.191,5.966,13.829,1.234,13.988
		C7692.271,2459.717,7691.048,2446.648,7695.491,2445.579z"/>
	<path fill-rule="evenodd" clip-rule="evenodd" d="M8583.766,2450.721c7.448-1.677,8.283,15.971,1.852,16.252
		C8579.343,2467.248,8577.719,2452.083,8583.766,2450.721z"/>
	<path fill-rule="evenodd" clip-rule="evenodd" d="M7622.463,2605.625c0.662,3.057,0.949,5.582,1.44,9.463
		c0.269,2.123,2.347,8.62-1.234,8.022c-1.671-0.278-2.857-5.434-3.703-6.994c-3.204-5.916-8.296-11.485-18.309-10.902
		c-8.86,0.516-16.006,10.703-13.372,19.543c2.257,7.57,10.509,11.566,18.103,14.605c11.686,4.675,24.964,9.192,23.451,26.537
		c-1.125,12.893-12.311,22.094-25.508,23.04c-9.637,0.69-16.7-2.396-26.332-2.88c-0.658-3.377-1.101-6.145-1.646-10.286
		c-0.314-2.384-1.878-9.082,0-10.08c0.341-0.181,0.599-0.062,1.028,0c1.496,0.217,0.924,0.616,1.44,2.058
		c2.164,6.042,5.067,10.796,9.875,13.988c4.833,3.21,15.859,5.631,22.628,1.852c8.935-4.989,10.626-21.221,2.263-28.595
		c-7.993-7.048-22.948-8.353-30.651-17.485c-5.485-6.503-5.508-18.758-0.617-25.509c3.64-5.023,9.973-8.96,18.309-9.669
		C7608.741,2601.559,7614.621,2603.475,7622.463,2605.625z"/>
	<path fill-rule="evenodd" clip-rule="evenodd" d="M8371.674,2602.333c16.365-1.401,27.303,4.988,34.972,13.166
		c6.179,6.588,10.216,17.41,10.08,31.269c-0.233,23.86-15.826,41.717-39.497,42.172c-13.204,0.254-23.06-4.562-30.034-11.314
		c-6.991-6.771-11.391-16.833-11.521-29.212c-0.202-19.371,7.133-33.121,20.16-40.937
		C8360.404,2604.734,8365.008,2602.904,8371.674,2602.333z M8365.709,2606.859c-8.145,3.76-13.377,12.212-15.841,20.16
		c-1.383,4.462-2.299,9.646-2.468,15.017c-0.549,17.437,4.762,29.865,15.223,38.058c6.942,5.437,17.822,8.362,26.948,2.88
		c12.555-7.543,17.724-28.215,14.605-46.491c-1.585-9.292-5.024-16.21-10.08-21.806c-4.52-5.004-12.729-10.435-22.423-9.258
		C8369.467,2605.687,8367.318,2606.116,8365.709,2606.859z"/>
	<path fill-rule="evenodd" clip-rule="evenodd" d="M7638.097,2602.333c22.363,1.937,49.247,1.981,71.383,0
		c0.176,6.697,0.814,12.737,1.646,19.338c-0.859,0.238-1.68,0.514-2.674,0.617c-1.14-1.39-1.215-3.016-1.852-4.526
		c-2.244-5.323-6.899-9.545-14.4-10.285c-3.029-0.299-7.555-0.652-9.875,0.822c-3.46,2.2-2.646,11.543-2.88,16.663
		c-0.612,13.417-0.412,27.07,0,40.731c0.166,5.514-0.372,14.234,2.468,17.074c1.018,1.018,3.271,1.689,5.76,2.058
		c1.2,0.177,5.96-0.249,5.554,2.263c-0.332,2.053-6.464,1.146-8.64,1.028c-8.524-0.46-16.719-0.142-24.274,0.206
		c-1.537,0.07-3.517,0.424-4.731-0.617c0-0.617,0-1.234,0-1.852c2.687-1.377,8.24-0.779,10.697-2.88
		c3.298-2.818,2.675-12.195,2.674-17.28c0-13.94,0-27.364,0-40.731c0-5.7,0.595-14.942-3.085-16.868
		c-3.073-1.608-8.769-0.844-12.137-0.617c-9.681,0.649-13.964,7.402-16.251,15.223c-0.917-0.249-1.963-0.368-2.88-0.617
		c1.123-6.283,2.648-12.163,3.085-19.132C7637.677,2602.598,7637.839,2602.417,7638.097,2602.333z"/>
	<path fill-rule="evenodd" clip-rule="evenodd" d="M8516.291,2602.333c22.344,1.926,48.327,2.002,71.383,0
		c0.111,6.368,0.86,12.702,1.646,19.338c-0.895,0.351-2.129,0.468-2.675,0.617c-1.124-1.365-1.226-3.043-1.852-4.526
		c-2.138-5.073-5.972-8.776-12.548-9.874c-3.759-0.627-8.98-1.369-11.727,0.411c-3.258,2.113-2.665,10.63-2.88,16.458
		c-0.493,13.41-0.534,26.936,0,40.319c0.243,6.075-0.282,14.606,2.469,17.486c1.475,1.542,2.955,1.82,6.377,2.263
		c1.845,0.238,6.302,0.455,4.731,2.88c-0.926,1.43-6.923,0.522-9.257,0.411c-7.426-0.354-15.795-0.351-23.657,0
		c-1.503,0.067-3.308,0.844-4.525-0.411c-0.688-3.57,2.096-2.254,5.76-2.88c1.722-0.295,4.399-1.349,5.143-2.058
		c3.126-2.979,2.469-11.313,2.469-17.074c0.001-13.801-0.001-26.209,0-39.908c0.001-5.626,0.475-15.879-3.086-17.691
		c-4.384-2.232-16.704-0.166-19.543,1.439c-4.746,2.685-6.848,7.296-8.846,13.166c-0.996-0.169-1.908-0.423-2.88-0.617
		c1.14-6.266,2.63-12.182,3.086-19.132C8515.871,2602.598,8516.033,2602.417,8516.291,2602.333z"/>
	<path fill-rule="evenodd" clip-rule="evenodd" d="M7385.48,2603.156c6.028,0.126,11.649,0.408,17.486,0.617
		c7.969,19.824,15.841,39.673,23.863,59.657c1.082,2.695,2.061,5.579,3.909,7.817c2.027-2.318,2.755-5.482,3.908-8.229
		c8.176-19.466,16.785-39.479,24.892-59.246c5.758-0.069,11.697-0.774,17.486-0.411c0.478,0.503,0.54,1.738,0.206,2.469
		c-4.628,1.008-8.957,1.329-9.463,7.405c-0.493,5.92,0.833,12.518,1.234,18.103c0.787,10.95,1.767,24.652,2.674,36
		c0.466,5.825,0.273,11.443,2.263,16.046c1.822,2.913,9.761-0.409,8.64,4.526c-8.917,0.039-19.506,0.059-29.623,0
		c-1.598-4.448,5.979-2.178,7.817-4.115c2.407-2.535,0.653-12.277,0.411-15.84c-1.133-16.677-1.845-33.451-2.88-49.782
		c-8.872,20.317-17.921,41.294-26.743,62.331c-0.93,2.217-2.592,7.87-4.526,8.023c-2.53,0.2-3.672-5.692-4.525-7.817
		c-8.063-20.085-16.621-40.929-24.48-61.098c-1.429,12.767-3.13,28.884-4.32,43.406c-0.417,5.095-1.421,10.305-1.028,15.017
		c0.151,1.816,0.628,3.493,1.44,4.526c1.652,2.101,5.414,2.058,7.817,3.291c0.021,0.844,0.041,1.687-0.206,2.263
		c-6.806-0.478-16.265,0.035-23.452-0.205c-1.293-3.321,1.83-2.485,4.526-3.498c5.909-2.219,5.538-11.367,6.377-18.926
		c1.417-12.744,2.639-24.512,4.115-37.851c0.606-5.483,2.531-15.203,0.206-18.721c-1.667-2.52-5.902-1.971-8.64-3.085
		c-0.08-1.247-0.188-0.942,0-2.058C7384.978,2603.477,7385.184,2603.271,7385.48,2603.156z"/>
	<path fill-rule="evenodd" clip-rule="evenodd" d="M7485.251,2603.156c10.52,0.844,20.568,0.405,30.24,0
		c1.276-0.054,3.107-0.468,4.115,0.617c1.093,3.061-2.083,2.394-4.32,2.675c-1.669,0.209-4.702,1.035-5.554,1.851
		c-2.396,2.296-2.216,10.978-2.263,15.429c-0.074,7.012,0,11.864,0,18.104c0,14.318-0.665,25.689,4.937,33.736
		c3.417,4.908,9.653,9.327,16.869,9.669c8.598,0.407,16.513-3.522,20.16-9.257c6.636-10.437,5.143-30.317,5.143-48.138
		c0-7.739,1.514-17.595-3.497-20.159c-1.124-0.576-3.04-0.756-5.349-1.029c-1.495-0.177-4.639-0.329-3.703-2.674
		c0.667-1.674,5.205-0.732,6.789-0.617c5.338,0.389,8.376,0.505,14.811,0c1.798-0.142,6.003-0.808,6.583,0.617
		c1.287,3.16-5.511,2.915-6.789,3.497c-4.847,2.206-3.909,8.778-3.909,15.223c0,24.044,2.804,50.705-11.52,61.097
		c-5.559,4.033-13.808,5.742-23.451,5.144c-7.604-0.473-13.667-3.161-18.103-6.789c-13.37-10.933-8.845-33.067-9.463-55.954
		c-0.12-4.441,0.844-15.332-2.674-18.103c-2.343-1.845-6.089-1.036-9.463-2.263c0.058-1.083-0.217-1.22,0-2.058
		C7485.017,2603.607,7484.962,2603.209,7485.251,2603.156z"/>
	<path fill-rule="evenodd" clip-rule="evenodd" d="M8232.405,2603.156c6.895,0.145,11.763,0.445,17.486,0.617
		c8.087,19.774,15.684,39.74,23.862,59.657c1.107,2.695,2.049,5.575,3.909,7.817c2.014-2.322,2.772-5.476,3.908-8.229
		c8.053-19.513,16.883-39.438,24.892-59.246c5.905-0.104,12.134-0.778,17.485-0.411c0.376,0.604,0.581,1.698,0.206,2.469
		c-4.635,0.954-8.926,1.482-9.463,7.199c-0.534,5.69,0.743,11.903,1.234,17.897c0.955,11.658,1.849,24.603,2.674,35.794
		c0.436,5.902,0.204,11.804,2.264,16.663c1.188,0.814,2.482,1.388,4.731,1.646c2.293,0.264,4.942-0.161,3.908,2.469
		c-0.661,1.683-4.842,0.526-7.2,0.412c-6.4-0.311-17.507,0.512-22.423,0c-1.586-4.423,5.983-2.184,7.817-4.115
		c2.329-2.454,0.673-12.366,0.411-16.251c-1.117-16.595-1.901-33.722-2.88-49.371c-9.005,20.226-17.759,41.413-26.743,62.331
		c-0.951,2.215-2.557,7.881-4.525,8.023c-2.537,0.182-3.667-5.679-4.525-7.817c-8.063-20.087-16.61-40.937-24.48-61.098
		c-1.562,12.688-3.005,29.492-4.319,43.611c-0.544,5.835-2.543,15.642,0.411,19.338c1.674,2.095,5.417,2.04,7.817,3.291
		c0.021,0.844,0.04,1.687-0.206,2.263c-7.39-0.532-16.835,0.077-23.451-0.205c-0.029-0.649-0.371-1.274-0.206-1.852
		c0.373-1.304,6.004-1.732,7.405-3.086c2.921-2.82,3.25-11.713,3.909-17.691c1.827-16.585,3.351-31.96,4.731-47.521
		c0.283-3.19,0.634-6.953-0.617-8.846c-1.582-2.392-6.09-2.078-8.641-3.085c-0.075-0.95-0.253-1.185,0-2.058
		C8231.903,2603.477,8232.109,2603.271,8232.405,2603.156z"/>
	<path fill-rule="evenodd" clip-rule="evenodd" d="M8482.555,2603.156c9.591,1.003,19.663,0.011,28.388,0.411
		c1.032,2.668-0.932,2.622-2.468,2.881c-3.691,0.621-7.109,1.241-8.435,4.525c-1.66,4.115-0.822,12.024-0.823,18.514
		c0,17.165,0.001,33.427,0,50.4c0,3.117,0.54,6.389-0.822,9.052c-4.325,0.378-6.681-3.697-8.846-6.377
		c-13.372-16.552-26.593-33.558-39.909-50.4c-2.198-2.781-4.076-5.964-7.199-7.817c-2.592,2.788-1.646,8.284-1.646,13.372
		c0,9.621-0.258,19.805,0.206,29.622c0.336,7.105-1.373,14.58,4.32,16.869c2.58,1.037,7.601-0.822,7.405,3.497
		c-1.957,1.06-4.666,0.558-7.2,0.411c-5.44-0.314-10.268-0.313-15.223,0c-2.161,0.137-5.693,0.804-6.583-0.617
		c-1.801-2.876,5.595-2.713,7.406-3.497c5.301-2.295,4.319-9.326,4.319-17.897c0.001-10.466,0.207-21.695,0.206-32.914
		c0-5.69,0.749-11.662,0-16.868c-0.576-4.011-3.603-7.335-6.377-8.64c-1.527-0.719-5.559-0.003-5.143-3.498
		c2.197-1.099,5.426-0.636,8.64-0.617c2.439,0.015,6.152-0.516,8.435,0.206c1.62,0.513,5.355,6.469,6.582,8.022
		c12.942,16.393,25.256,32.657,38.058,48.961c2.094,2.666,3.869,5.813,6.789,7.611c1.868-1.265,1.256-4.032,1.233-6.172
		c-0.13-12.49,0-24.114,0-37.646c0.001-7.731,0.801-15.139-4.525-17.28c-2.254-0.906-5.08-0.404-7.2-1.234
		c-0.197-0.541-0.397-1.762,0-2.263C8482.134,2603.421,8482.296,2603.241,8482.555,2603.156z"/>
	<path fill-rule="evenodd" clip-rule="evenodd" d="M8592.817,2603.156c8.132,0.441,17.626,0.742,26.125,0.206
		c2.341-0.148,7.678-0.987,8.023,1.028c0.401,2.346-3.134,2.058-4.731,2.263c-1.665,0.214-4.255,0.796-5.143,1.646
		c-2.543,2.434-2.151,10.305-2.264,14.606c-0.175,6.765-0.038,11.086-0.205,17.691c12.945,1.69,31.925,1.236,45.257,0.205
		c-0.21-5.83,0.281-11.727,0-17.279c-0.258-5.087,0.421-12.609-2.469-15.224c-0.832-0.752-3.108-1.38-4.731-1.646
		c-2.917-0.477-6.16,0.209-4.731-3.086c8.744-0.36,16.696,0.35,26.743-0.205c2.356-0.131,8.152-1.142,8.022,1.439
		c-0.092,1.828-2.265,1.494-4.937,1.852c-5.803,0.776-6.928,3.063-7.2,9.875c-0.609,15.202-0.206,30.714-0.206,48.754
		c0.001,4.751-0.646,14.754,2.058,17.691c1.23,1.337,3.744,1.59,5.76,1.852c1.814,0.235,4.582-0.578,4.525,2.674
		c-0.881,1.302-2.752,0.863-4.114,0.823c-3.485-0.104-8.283-0.592-12.96-0.617c-6.127-0.033-12.241,1.03-17.691,0.206
		c-0.407-0.799-0.332-1.283-0.205-2.264c2.766-1.047,6.702-0.529,9.051-2.057c3.999-2.601,2.657-11.178,2.88-17.28
		c0.253-6.899,0.241-14.424,0.206-20.365c-12.488-1.435-31.081-1.39-45.052-0.206c-0.136,9.081-0.192,19.494,0.206,29.006
		c0.272,6.482,1.185,9.268,7.2,10.08c1.737,0.234,5.386,0.127,4.731,2.469c-0.496,1.774-5.975,0.948-8.229,0.822
		c-9.423-0.527-18.406,0.177-26.332-0.205c-1.821-4.459,6.115-2.166,9.052-4.32c3.075-2.255,2.562-12.422,2.675-17.486
		c0.294-13.182,0.135-26.191,0-39.291c-0.059-5.635,0.524-15.774-2.264-18.515c-1.906-1.873-6.581-1.515-9.257-2.263
		c-0.375-0.418-0.65-1.668-0.206-2.263C8592.396,2603.421,8592.559,2603.241,8592.817,2603.156z"/>
</g>
</svg>
