<?xml version="1.0" encoding="utf-8"?>
<!-- Generator: Adobe Illustrator 15.0.0, SVG Export Plug-In . SVG Version: 6.00 Build 0)  -->
<!DOCTYPE svg PUBLIC "-//W3C//DTD SVG 1.1//EN" "http://www.w3.org/Graphics/SVG/1.1/DTD/svg11.dtd">
<svg version="1.1" id="Layer_1" xmlns="http://www.w3.org/2000/svg" xmlns:xlink="http://www.w3.org/1999/xlink" x="0px" y="0px"
	 enable-background="new 0 0 16157.48 4535.43"
	 xml:space="preserve">
<g>
	<path fill-rule="evenodd" clip-rule="evenodd" d="M8569.24,2083.43c45.601,0,91.199,0,136.8,0c0,45.601,0,91.199,0,136.8
		c-22.72,0-45.44,0-68.16,0c0,62.879,0,125.761,0,188.64c-85.604,0-171.198,0-256.8,0c0.16-85.52-0.32-171.68,0.24-256.8
		c62.642,0,125.279,0,187.92,0C8569.24,2129.19,8569.24,2106.31,8569.24,2083.43z M8571.64,2086.55c0,21.84,0,43.68,0,65.52
		c13.282,0,28.276,0,42.24,0c2.123,0,5.04-0.795,5.04,1.2c0,1.815-1.999,1.164-2.4,1.2c-1.069,0.096-2.754,0-3.6,0
		c-76.134,0-154.861,0-229.44,0c0,83.998,0,168.001,0,252c83.999,0,168.002,0,252,0c0.001-71.353-0.001-147.037,0-219.36
		c0-1.67-0.913-6.202,1.44-5.76c1.439,0.271,0.949,1.614,0.96,3.6c0.061,11.024-0.046,23.146,0,32.88c21.92,0,43.84,0,65.76,0
		c0-44,0-88,0-132c-43.921,0-87.839,0-131.76,0C8571.601,2085.871,8571.619,2086.209,8571.64,2086.55z"/>
	<path fill-rule="evenodd" clip-rule="evenodd" d="M8614.36,2125.91c7.327,0.069,12.312,0,19.68,0c2.444,0,5.579-0.421,6,0.96
		c0.782,2.565-3.67,2.105-4.8,2.64c-4.452,2.106-2.641,15.169-2.641,23.04c0.001,8.838-0.9,17.27,1.44,22.8
		c10.479,2.36,18.313-1.978,19.92-10.08c1.183-0.411,1.781,0.073,3.36,0.24c-0.418,4.942-1.161,9.559-2.16,13.92
		c-9.217-0.072-20.909-0.573-32.641-0.24c-1.068,0.03-8.287,1.23-8.88-0.72c-0.83-2.732,4.111-2.179,5.28-2.88
		c3.7-2.221,2.16-16.36,2.16-22.8c0-7.573,1.365-17.692-0.72-21.601c-1.246-2.334-3.989-1.987-6.48-2.64
		c-0.146-0.575-0.345-1.095-0.24-1.92C8613.774,2126.285,8614.015,2126.044,8614.36,2125.91z"/>
	<path fill-rule="evenodd" clip-rule="evenodd" d="M7423,2152.07c85.603,0,171.198,0,256.8,0c0,85.519,0,171.042,0,256.561
		c-0.014,0.146-0.036,0.284-0.24,0.239c-85.518,0-171.042,0-256.56,0C7423,2323.268,7423,2237.673,7423,2152.07z M7425.4,2155.19
		c0,83.758,0,167.521,0,251.28c83.999,0,168.001,0,252,0c0-83.999,0-168.001,0-252c-83.925,0-167.837,0-251.76,0
		C7425.36,2154.51,7425.379,2154.85,7425.4,2155.19z"/>
	<path fill-rule="evenodd" clip-rule="evenodd" d="M7998.28,2152.07c85.519,0,171.042,0,256.56,0c0,85.603,0,171.197,0,256.8
		c-85.602,0-171.197,0-256.8,0c0-85.36,0-170.719,0-256.079C7998.02,2152.45,7998,2152.111,7998.28,2152.07z M8000.44,2155.19
		c0,83.758,0,167.521,0,251.28c83.999,0,168.001,0,252,0c0-83.999,0-168.001,0-252c-83.925,0-167.837,0-251.76,0
		C8000.4,2154.51,8000.419,2154.85,8000.44,2155.19z"/>
	<path fill-rule="evenodd" clip-rule="evenodd" d="M8637.88,2152.07c0,7.2,0,14.4,0,21.601c-0.8,0-1.6,0-2.4,0
		c-0.233-7.206,0.613-15.493-0.72-21.601C8635.8,2152.07,8636.84,2152.07,8637.88,2152.07z"/>
	<path fill-rule="evenodd" clip-rule="evenodd" d="M8568.76,2159.27c5.66-1.682,1.146,7.714-1.439,3.12
		C8566.518,2160.965,8567.01,2159.791,8568.76,2159.27z"/>
	<path fill-rule="evenodd" clip-rule="evenodd" d="M8101.96,2168.63c0.024,0.744-0.294,1.146-0.479,1.68
		c2.644,4.665-6.069,4.851-3.601,0.24c-0.036-0.764-0.544-1.056-0.479-1.92C8097.945,2166.294,8101.414,2166.294,8101.96,2168.63z"
		/>
	<path fill-rule="evenodd" clip-rule="evenodd" d="M8110.12,2166.95c1.229-0.2,1.905,0.301,2.159,0.72
		c2.213,3.636-5.558,5.383-4.079,0.479C8108.349,2167.657,8108.908,2167.147,8110.12,2166.95z"/>
	<path fill-rule="evenodd" clip-rule="evenodd" d="M8120.68,2166.95c3.401-0.708,3.068,4.204,0.48,4.32
		C8119.159,2171.36,8117.523,2167.607,8120.68,2166.95z"/>
	<path fill-rule="evenodd" clip-rule="evenodd" d="M8131.48,2166.95c1.604-0.25,2.33,0.41,2.399,1.92
		C8134.146,2174.722,8125.48,2167.888,8131.48,2166.95z"/>
	<path fill-rule="evenodd" clip-rule="evenodd" d="M8142.04,2166.95c3.313-0.69,3.013,4.206,0.479,4.32
		C8140.457,2171.363,8138.938,2167.596,8142.04,2166.95z"/>
	<path fill-rule="evenodd" clip-rule="evenodd" d="M8152.84,2166.95c3.918-0.603,2.154,5.833-0.96,4.08
		C8150.322,2170.154,8150.315,2167.338,8152.84,2166.95z"/>
	<path fill-rule="evenodd" clip-rule="evenodd" d="M8163.4,2166.95c2.434-0.44,3.459,2.944,1.439,4.08
		C8162.233,2172.498,8159.732,2167.614,8163.4,2166.95z"/>
	<path fill-rule="evenodd" clip-rule="evenodd" d="M8172.279,2170.07c-0.756-3.325,2.656-4.032,3.841-2.64
		C8178.077,2169.731,8174.248,2172.897,8172.279,2170.07z"/>
	<path fill-rule="evenodd" clip-rule="evenodd" d="M8184.76,2166.95c1.248-0.226,1.924,0.327,2.16,0.72
		c1.805,3-3.896,5.462-4.08,1.439C8182.779,2167.767,8183.349,2167.206,8184.76,2166.95z"/>
	<path fill-rule="evenodd" clip-rule="evenodd" d="M8195.32,2166.95c3.051-0.699,3.185,4.198,0.479,4.32
		C8193.565,2171.371,8192.281,2167.646,8195.32,2166.95z"/>
	<path fill-rule="evenodd" clip-rule="evenodd" d="M8204.44,2167.67c1.067-1.097,3.146-1.157,3.84,0
		C8210.559,2171.472,8202.678,2172.866,8204.44,2167.67z"/>
	<path fill-rule="evenodd" clip-rule="evenodd" d="M8216.68,2166.95c3.074-0.67,3.182,4.198,0.48,4.32
		C8214.711,2171.38,8213.689,2167.603,8216.68,2166.95z"/>
	<path fill-rule="evenodd" clip-rule="evenodd" d="M8227.48,2166.95c1.229-0.2,1.904,0.301,2.159,0.72
		c2.213,3.636-5.559,5.383-4.08,0.479C8225.709,2167.657,8226.269,2167.147,8227.48,2166.95z"/>
	<path fill-rule="evenodd" clip-rule="evenodd" d="M8236.12,2168.87c1.229-0.255,2.565,0.261,2.64,1.92
		C8239.018,2176.508,8230.194,2170.103,8236.12,2168.87z"/>
	<path fill-rule="evenodd" clip-rule="evenodd" d="M7760.92,2168.87c45.519,0,91.041,0,136.56,0c0,45.601,0,91.2,0,136.8
		c-45.601,0-91.2,0-136.8,0c0-45.359,0-90.722,0-136.08C7760.659,2169.25,7760.64,2168.911,7760.92,2168.87z M7763.08,2171.99
		c0,43.759,0,87.521,0,131.28c44,0,88,0,132,0c0-44,0-88,0-132c-43.921,0-87.839,0-131.76,0
		C7763.041,2171.311,7763.06,2171.65,7763.08,2171.99z"/>
	<path fill-rule="evenodd" clip-rule="evenodd" d="M8568.52,2170.07c2.374-0.918,4.017,1.708,2.641,3.36
		C8569.032,2175.985,8565.068,2171.406,8568.52,2170.07z"/>
	<path fill-rule="evenodd" clip-rule="evenodd" d="M8235.64,2179.67c0.913-0.359,1.704-0.274,2.16,0
		c3.791,2.271-3.267,6.554-3.6,2.16C8234.133,2180.94,8234.231,2180.224,8235.64,2179.67z"/>
	<path fill-rule="evenodd" clip-rule="evenodd" d="M8099.32,2180.63c1.229-0.256,2.564,0.261,2.64,1.92
		c0.139,3.079-4.437,2.989-4.56,0.24C8097.363,2181.968,8097.626,2180.983,8099.32,2180.63z"/>
	<path fill-rule="evenodd" clip-rule="evenodd" d="M8568.76,2180.63c2.189-0.651,3.646,1.333,2.641,3.12
		C8569.5,2187.125,8564.61,2181.864,8568.76,2180.63z"/>
	<path fill-rule="evenodd" clip-rule="evenodd" d="M8236.12,2190.23c1.229-0.256,2.565,0.262,2.64,1.92
		C8239.015,2197.806,8230.192,2191.464,8236.12,2190.23z"/>
	<path fill-rule="evenodd" clip-rule="evenodd" d="M8098.84,2191.43c0.912-0.359,1.703-0.273,2.16,0
		c3.791,2.272-3.268,6.554-3.6,2.16C8097.332,2192.7,8097.432,2191.984,8098.84,2191.43z"/>
	<path fill-rule="evenodd" clip-rule="evenodd" d="M8568.28,2191.43c3.663-1.758,4.191,3.945,1.199,4.08
		C8567.382,2195.605,8566.102,2192.476,8568.28,2191.43z"/>
	<path fill-rule="evenodd" clip-rule="evenodd" d="M8235.64,2201.03c0.914-0.359,1.685-0.286,2.16,0
		c3.75,2.247-3.214,6.458-3.6,2.16C8234.111,2202.198,8234.249,2201.577,8235.64,2201.03z"/>
	<path fill-rule="evenodd" clip-rule="evenodd" d="M8099.32,2201.99c1.229-0.256,2.564,0.261,2.64,1.92
		C8102.215,2209.566,8093.393,2203.224,8099.32,2201.99z"/>
	<path fill-rule="evenodd" clip-rule="evenodd" d="M8570.92,2202.23c2.799,3.444-3.581,5.476-3.84,1.92
		C8566.954,2202.416,8568.928,2200.986,8570.92,2202.23z"/>
	<path fill-rule="evenodd" clip-rule="evenodd" d="M7807.96,2208.23c6.926,0.019,13.272,0,19.92,0c2.468,0,5.343-0.408,5.76,0.96
		c0.795,2.607-3.611,2.086-4.8,2.64c-4.002,1.865-2.64,13.479-2.64,20.64c0,10.108-0.95,18.771,1.44,25.2
		c10.479,2.359,18.313-1.979,19.92-10.08c1.206-0.43,2.084,0.114,3.36,0.24c-0.398,4.961-1.166,9.554-2.16,13.92
		c-8.636,0.015-20.294-0.688-32.16-0.24c-1.688,0.063-8.78,1.189-9.36-0.72c-0.81-2.664,3.922-2.065,5.28-2.88
		c3.347-2.008,2.16-13.772,2.16-21.12c0-7.908,0.546-15.17,0-20.4c-0.458-4.382-3.357-4.987-7.2-5.76
		c-0.331-0.31-0.237-1.043-0.24-1.68C7807.375,2208.604,7807.614,2208.365,7807.96,2208.23z"/>
	<path fill-rule="evenodd" clip-rule="evenodd" d="M7735.24,2208.47c6.595,4.365,12.391,9.529,18.96,13.92
		c-6.047,4.833-12.837,10.203-18.96,14.16c0-2.8,0-5.6,0-8.4c-16-0.56-33.041-0.08-49.44-0.24c0-3.52,0-7.04,0-10.56
		c16.48,0,32.96,0,49.44,0C7735.24,2214.39,7735.24,2211.43,7735.24,2208.47z"/>
	<path fill-rule="evenodd" clip-rule="evenodd" d="M8146.84,2208.47c4.459,0,8.236,0,13.439,0c2.23,0,11.668-0.919,12.24,0.96
		c0.803,2.633-3.492,2.031-4.799,2.64c-1.779,0.829-2.391,2.386-2.641,5.04c-0.602,6.401,0,13.5,0,21.36
		c0,7.508-0.791,15.178,1.439,19.44c10.391,2.341,18.114-1.781,19.92-10.08c1.093-0.542,2.157,0.187,3.36,0.24
		c-0.375,4.985-1.172,9.548-2.159,13.92c-9.167-0.022-20.705-0.649-32.4-0.24c-2.262,0.079-8.777,1.187-9.12-0.96
		c-0.376-2.354,5.567-1.911,6.72-3.84c1.951-3.266,0.721-15.491,0.721-21.36c0-3.437,0-7.554,0-11.28
		c0-4.039,0.521-8.232-0.721-10.56c-1.027-1.927-4.234-2.316-6.48-2.641c-0.145-0.574-0.344-1.095-0.239-1.92
		C8146.254,2208.844,8146.494,2208.604,8146.84,2208.47z"/>
	<path fill-rule="evenodd" clip-rule="evenodd" d="M8235.88,2211.59c1.86-0.55,2.829,0.516,2.88,1.92
		C8238.952,2218.833,8230.531,2213.172,8235.88,2211.59z"/>
	<path fill-rule="evenodd" clip-rule="evenodd" d="M8569.24,2212.55c1.049-0.131,2.328,0.332,2.399,1.92
		c0.142,3.135-4.438,2.925-4.56,0.24C8567.038,2213.779,8567.396,2212.78,8569.24,2212.55z"/>
	<path fill-rule="evenodd" clip-rule="evenodd" d="M8098.84,2212.791c0.914-0.359,1.684-0.286,2.16,0
		c3.75,2.247-3.215,6.458-3.6,2.16C8097.316,2214.017,8097.469,2213.33,8098.84,2212.791z"/>
	<path fill-rule="evenodd" clip-rule="evenodd" d="M8574.04,2218.31c1.23-0.2,1.905,0.301,2.16,0.72
		c2.213,3.636-5.559,5.382-4.08,0.48C8572.269,2219.017,8572.829,2218.507,8574.04,2218.31z"/>
	<path fill-rule="evenodd" clip-rule="evenodd" d="M8584.6,2218.31c1.229-0.256,2.565,0.262,2.641,1.92
		c0.139,3.079-4.437,2.989-4.561,0.24C8582.643,2219.648,8582.905,2218.663,8584.6,2218.31z"/>
	<path fill-rule="evenodd" clip-rule="evenodd" d="M8595.4,2218.31c1.229-0.2,1.904,0.301,2.159,0.72
		c2.213,3.637-5.559,5.382-4.08,0.48C8593.629,2219.017,8594.188,2218.507,8595.4,2218.31z"/>
	<path fill-rule="evenodd" clip-rule="evenodd" d="M8605.96,2218.31c3.401-0.708,3.067,4.203,0.48,4.32
		C8604.439,2222.72,8602.804,2218.967,8605.96,2218.31z"/>
	<path fill-rule="evenodd" clip-rule="evenodd" d="M8616.76,2218.31c1.613-0.252,2.333,0.452,2.4,1.92
		C8619.426,2226.06,8610.76,2219.248,8616.76,2218.31z"/>
	<path fill-rule="evenodd" clip-rule="evenodd" d="M8627.32,2218.31c3.311-0.689,3.012,4.206,0.479,4.32
		C8625.729,2222.724,8624.206,2218.958,8627.32,2218.31z"/>
	<path fill-rule="evenodd" clip-rule="evenodd" d="M8235.64,2222.39c2.374-0.918,4.017,1.708,2.641,3.36
		C8236.151,2228.305,8232.188,2223.726,8235.64,2222.39z"/>
	<path fill-rule="evenodd" clip-rule="evenodd" d="M8099.32,2223.35c1.656-0.345,2.511,0.646,2.64,1.68
		c0.396,3.168-4.433,3.311-4.56,0.48C8097.342,2224.228,8098.029,2223.619,8099.32,2223.35z"/>
	<path fill-rule="evenodd" clip-rule="evenodd" d="M8235.88,2232.95c5.658-1.682,1.146,7.714-1.439,3.12
		C8233.638,2234.645,8234.13,2233.47,8235.88,2232.95z"/>
	<path fill-rule="evenodd" clip-rule="evenodd" d="M8098.84,2234.15c2.373-0.918,4.016,1.708,2.641,3.36
		C8099.352,2240.065,8095.389,2235.486,8098.84,2234.15z"/>
	<path fill-rule="evenodd" clip-rule="evenodd" d="M7704.76,2246.87c16,0.56,33.041,0.08,49.44,0.24c0,3.521,0,7.04,0,10.561
		c-16.48,0-32.96,0-49.44,0c0,2.8,0,5.6,0,8.399c-1.362,0.119-2.938-1.639-4.56-2.88c-4.526-3.463-9.826-7.338-14.4-10.8
		c6.093-4.787,12.503-9.257,18.48-14.16C7705.385,2240.165,7704.451,2244.139,7704.76,2246.87z"/>
	<path fill-rule="evenodd" clip-rule="evenodd" d="M8235.4,2243.75c0.255-0.545,1.508-0.092,2.159-0.24
		C8242.339,2248.422,8230.896,2248.924,8235.4,2243.75z"/>
	<path fill-rule="evenodd" clip-rule="evenodd" d="M8099.08,2244.71c5.658-1.682,1.146,7.714-1.439,3.12
		C8096.838,2246.405,8097.33,2245.23,8099.08,2244.71z"/>
	<path fill-rule="evenodd" clip-rule="evenodd" d="M7574.2,2255.75c0.336,4.783,1.061,9.178,1.68,13.68
		c-1.322,0.037-2.387,0.333-3.6,0.48c-3.069-8.698-9.089-14.199-20.4-13.681c-18.341,0.841-20.84,30.464-10.8,42.48
		c4.35,5.206,17.687,9.257,24,2.399c-0.869-4.533,1.395-10.899-0.48-13.92c-1.302-2.097-4.036-1.048-6.48-2.16
		c-0.307-0.427-0.462-2.239,0-2.64c6.578-0.936,15.497-0.452,22.56-0.24c1.754,3.274-2.45,2.784-3.6,4.8
		c-1.035,1.814-0.946,8.184-0.48,11.28c0.193,1.288,0.656,2.118,1.2,2.88c-12.05,9.561-38.447,9.504-48.48-1.439
		c-9.607-10.48-8.093-30.67,3.12-39.84c4.808-3.932,10.847-6.403,18-6.96C7559.801,2252.142,7565.678,2254.696,7574.2,2255.75z"/>
	<path fill-rule="evenodd" clip-rule="evenodd" d="M8532.28,2256.47c0.248,4.159,1.082,9.142,1.68,13.68
		c-1.322,0.038-2.387,0.333-3.6,0.48c-2.149-12.415-21.149-18.274-30.24-9.84c-8.996,8.346-8.511,29.407-0.96,38.64
		c4.632,5.664,17.738,9,24,2.4c-0.852-4.553,1.371-10.875-0.48-13.92c-1.297-2.136-4.05-1.021-6.479-2.16
		c-0.307-0.428-0.463-2.24,0-2.641c6.574-0.923,15.457-0.472,22.56-0.24c1.8,3.228-2.462,2.807-3.6,4.801
		c-1.032,1.809-0.946,8.182-0.48,11.279c0.194,1.289,0.656,2.118,1.2,2.881c-18.889,12.848-52.911,8.764-54.96-16.561
		c-1.415-17.483,10.229-30.402,27.6-31.68C8517.982,2252.894,8524.099,2255.436,8532.28,2256.47z"/>
	<path fill-rule="evenodd" clip-rule="evenodd" d="M8235.88,2254.31c1.542-0.458,2.329,0.396,2.4,0.48
		c2.471,2.964-4.532,5.944-4.08,1.2C8234.266,2255.304,8234.698,2254.662,8235.88,2254.31z"/>
	<path fill-rule="evenodd" clip-rule="evenodd" d="M8100.76,2255.27c1.891,1.421,1.117,4.226-0.96,4.32
		C8096.898,2259.723,8096.268,2254.602,8100.76,2255.27z"/>
	<path fill-rule="evenodd" clip-rule="evenodd" d="M8236.36,2264.87c1.049-0.131,2.328,0.333,2.399,1.92
		c0.142,3.13-4.438,2.93-4.56,0.24C8234.158,2266.099,8234.515,2265.1,8236.36,2264.87z"/>
	<path fill-rule="evenodd" clip-rule="evenodd" d="M8099.08,2266.07c5.658-1.681,1.146,7.715-1.439,3.12
		C8096.838,2267.765,8097.33,2266.59,8099.08,2266.07z"/>
	<path fill-rule="evenodd" clip-rule="evenodd" d="M8235.64,2275.67c0.913-0.359,1.704-0.273,2.16,0
		c3.791,2.271-3.267,6.554-3.6,2.16C8234.133,2276.94,8234.231,2276.224,8235.64,2275.67z"/>
	<path fill-rule="evenodd" clip-rule="evenodd" d="M8098.6,2276.87c3.658-1.756,4.195,3.945,1.2,4.08
		C8097.701,2281.044,8096.422,2277.916,8098.6,2276.87z"/>
	<path fill-rule="evenodd" clip-rule="evenodd" d="M8236.36,2286.23c1.562-0.196,2.347,0.748,2.399,1.92
		c0.131,2.905-4.427,3.195-4.56,0.24C8234.138,2287.01,8234.919,2286.412,8236.36,2286.23z"/>
	<path fill-rule="evenodd" clip-rule="evenodd" d="M8101.24,2287.67c2.799,3.443-3.582,5.476-3.84,1.92
		C8097.273,2287.856,8099.247,2286.425,8101.24,2287.67z"/>
	<path fill-rule="evenodd" clip-rule="evenodd" d="M8235.64,2297.03c0.913-0.358,1.704-0.273,2.16,0
		c3.791,2.272-3.267,6.555-3.6,2.16C8234.133,2298.299,8234.231,2297.584,8235.64,2297.03z"/>
	<path fill-rule="evenodd" clip-rule="evenodd" d="M8099.561,2297.991c1.048-0.131,2.328,0.322,2.399,1.92
		c0.142,3.13-4.438,2.93-4.56,0.239C8097.357,2299.219,8097.715,2298.22,8099.561,2297.991z"/>
	<path fill-rule="evenodd" clip-rule="evenodd" d="M8104.359,2303.75c1.23-0.2,1.906,0.301,2.16,0.72
		c2.213,3.636-5.559,5.383-4.08,0.479C8102.588,2304.458,8103.148,2303.948,8104.359,2303.75z"/>
	<path fill-rule="evenodd" clip-rule="evenodd" d="M8114.92,2303.75c1.229-0.256,2.565,0.262,2.641,1.92
		c0.139,3.078-4.437,2.988-4.561,0.24C8112.963,2305.088,8113.226,2304.103,8114.92,2303.75z"/>
	<path fill-rule="evenodd" clip-rule="evenodd" d="M8125.721,2303.75c1.229-0.2,1.904,0.301,2.159,0.72
		c2.213,3.637-5.559,5.383-4.08,0.479C8123.949,2304.458,8124.509,2303.948,8125.721,2303.75z"/>
	<path fill-rule="evenodd" clip-rule="evenodd" d="M8136.279,2303.75c3.402-0.708,3.068,4.203,0.48,4.319
		C8134.76,2308.161,8133.123,2304.407,8136.279,2303.75z"/>
	<path fill-rule="evenodd" clip-rule="evenodd" d="M8147.08,2303.75c1.613-0.252,2.333,0.451,2.4,1.92
		C8149.746,2311.5,8141.08,2304.688,8147.08,2303.75z"/>
	<path fill-rule="evenodd" clip-rule="evenodd" d="M8157.641,2303.75c3.277-0.652,3.076,4.203,0.479,4.319
		C8156.095,2308.162,8154.446,2304.385,8157.641,2303.75z"/>
	<path fill-rule="evenodd" clip-rule="evenodd" d="M8168.439,2303.75c3.919-0.603,2.155,5.833-0.959,4.08
		C8165.922,2306.954,8165.916,2304.138,8168.439,2303.75z"/>
	<path fill-rule="evenodd" clip-rule="evenodd" d="M8179,2303.75c2.434-0.44,3.459,2.943,1.439,4.08
		C8177.833,2309.297,8175.332,2304.414,8179,2303.75z"/>
	<path fill-rule="evenodd" clip-rule="evenodd" d="M8189.561,2303.75c1.64-0.385,2.471,0.358,2.64,1.68
		c0.405,3.175-5.146,3.75-4.32-0.24C8188.057,2304.336,8188.449,2304.01,8189.561,2303.75z"/>
	<path fill-rule="evenodd" clip-rule="evenodd" d="M8200.36,2303.75c1.142-0.203,1.952,0.379,2.159,0.72
		c1.814,2.981-3.896,5.48-4.079,1.44C8198.378,2304.555,8198.945,2304,8200.36,2303.75z"/>
	<path fill-rule="evenodd" clip-rule="evenodd" d="M8210.92,2303.75c3.073-0.671,3.181,4.198,0.48,4.319
		C8208.95,2308.18,8207.93,2304.403,8210.92,2303.75z"/>
	<path fill-rule="evenodd" clip-rule="evenodd" d="M8221.72,2303.75c1.23-0.2,1.905,0.301,2.16,0.72
		c2.213,3.636-5.559,5.383-4.08,0.479C8219.948,2304.458,8220.509,2303.948,8221.72,2303.75z"/>
	<path fill-rule="evenodd" clip-rule="evenodd" d="M8232.28,2303.75c1.229-0.256,2.565,0.262,2.64,1.92
		c0.139,3.078-4.437,2.988-4.56,0.24C8230.323,2305.088,8230.586,2304.103,8232.28,2303.75z"/>
	<path fill-rule="evenodd" clip-rule="evenodd" d="M8079.16,2329.67c0.381,5.108,0.991,8.716,1.68,13.68
		c-1.25,0.11-2.5,0.22-3.6,0.48c-2.771-8.637-9.654-14.301-20.4-13.681c-18.671,1.078-21.287,31.141-10.32,42.96
		c4.584,4.941,17.553,8.576,23.52,1.92c-0.873-4.531,1.403-10.912-0.48-13.92c-1.316-2.102-4.052-1.019-6.48-2.16
		c-0.307-0.427-0.462-2.238,0-2.64c6.288-0.894,15.08-0.515,22.561-0.24c0.058,1.011,0.663,2.587-0.721,3.12
		c-3.94-0.444-4.139,7.782-3.359,12.96c0.21,1.401,0.81,2.305,1.199,2.88c-12.328,9.472-38.254,9.715-48.48-1.439
		c-3.42-3.73-6.01-9.02-6.48-15.12c-1.349-17.518,10.229-30.328,27.6-31.68C8064.877,2326.053,8070.96,2328.675,8079.16,2329.67z"/>
	<path fill-rule="evenodd" clip-rule="evenodd" d="M7423,2435.03c0-1.439,0-2.88,0-4.319c2.144-9.589,8.461-16.7,19.44-16.08
		c9.269,0.522,17.04,7.797,17.04,18.239c0,9.962-6.911,17.669-17.04,18.24C7431.567,2451.723,7425.422,2445.143,7423,2435.03z
		 M7444.36,2425.911c-2.919-2.035-9.649-0.283-8.88,3.84c0.727,0.325,1.979,0.387,2.4-0.24c0.614-0.643-0.145-1.266,0-2.16
		c2.47-2.149,6.361-0.395,5.52,3.6c-2.936,1.213-6.375,1.188-7.92,3.36c-3.683,5.182,4.881,8.243,7.92,4.08
		c0.253,0.946,0.929,1.471,1.68,1.92c1.913,0.073,3.451-0.229,3.84-1.68c-0.505-0.491-1.988,0.515-2.4-0.48
		C7445.502,2434.24,7447.568,2428.147,7444.36,2425.911z"/>
	<path fill-rule="evenodd" clip-rule="evenodd" d="M8397.4,2415.831c10.738-1.206,19.235,6.397,20.159,16.319
		c0.514,5.506-1.663,10.539-4.319,13.681c-9.961,11.775-33.654,5.946-32.16-13.44
		C8381.77,2423.439,8388.383,2416.842,8397.4,2415.831z M8398.36,2426.63c-8.311,1.375-7.605,16.875,2.64,15.12
		c1.52-0.261,3.754-2.254,3.6-3.84c-2.017,0.722-2.274,2.367-4.8,2.159c-6.059-0.498-5.269-13.837,0.48-12.239
		c1.532,0.426,1.025,1.789,2.16,3.359c1.293,0.174,1.978-0.262,2.399-0.96C8404.828,2426.607,8400.849,2426.218,8398.36,2426.63z"/>
	<path fill-rule="evenodd" clip-rule="evenodd" d="M8018.2,2452.55c-1.28,0-2.56,0-3.84,0c-9.823-1.798-16.825-8.772-16.32-19.2
		c0.475-9.814,7.931-17.28,18.24-17.28c10.042,0,17.744,7.034,18.24,17.28C8035.044,2444.17,8028.424,2450.269,8018.2,2452.55z
		 M8008.84,2423.75c0.111,1.008,2.05,0.19,2.16,1.199c0.571,6.42,0.063,15.095,0.24,21.12c1.382,0.343,1.014-1.065,2.16-0.96
		c10.529,6.457,15.488-15.802,3.6-14.16c-1.22,0.169-2.049,1.288-3.12,1.2c-0.356-3.506,0.625-8.008-0.24-9.84
		C8012.367,2423.117,8009.691,2422.521,8008.84,2423.75z"/>
	<path fill-rule="evenodd" clip-rule="evenodd" d="M7442.92,2432.39c1.079,0.682,0.19,3.33,0.48,4.8
		c-1.175,1.332-4.959,2.661-5.76,0.24C7436.697,2434.579,7440.078,2432.553,7442.92,2432.39z"/>
	<path fill-rule="evenodd" clip-rule="evenodd" d="M8013.88,2443.43c0.117-3.163-0.261-6.82,0.24-9.6
		c1.041-0.684,1.646-1.406,2.88-1.44C8024.407,2432.188,8020.76,2450.1,8013.88,2443.43z"/>
</g>
</svg>
